<svg width="93" height="75" viewBox="0 0 93 75" fill="none" xmlns="http://www.w3.org/2000/svg">
<path d="M37.0272 45.9415C41.7647 39.5449 46.7009 38.0229 46.934 37.9543C46.6735 38.1463 38.1996 44.2412 37.0752 58.0559C36.9176 59.667 36.9381 61.2576 37.0204 62.6082H21.8757C19.6818 49.0198 9.3705 39.3186 9.01399 38.9827C9.33622 39.0718 16.3155 41.252 21.6426 51.3096C18.7357 34.1493 11.2833 25.7782 11.2833 25.7782C11.2833 25.7782 19.4418 30.879 24.4535 46.4145C22.1156 31.6058 15.6574 19.7725 5.21582 12.9028C5.21582 12.9028 18.8042 16.2279 26.6748 37.968C25.05 19.6696 20.2097 10.469 21.9031 0C21.9031 0 24.1793 15.9331 29.1087 25.7988C29.2526 26.0867 29.3829 26.3747 29.52 26.6626C30.4113 17.6951 32.2624 8.12425 35.9372 0.767859C35.8343 1.21349 31.7893 18.7303 33.6679 29.597C33.8392 30.6048 33.9764 31.6332 34.0861 32.6684C36.6845 25.8605 40.5512 22.0966 40.7089 21.9458C40.6266 22.1309 38.0282 28.0407 36.8901 36.2266C44.6167 21.699 54.5921 19.0526 54.9006 18.9772C46.0565 24.7978 40.0713 34.1973 37.0272 45.9346V45.9415Z" fill="url(#paint0_linear_776_11622)"/>
<path d="M74.0272 46.002C78.7647 39.6054 83.7009 38.0834 83.934 38.0149C83.6735 38.2068 75.1996 44.3017 74.0752 58.1164C73.9176 59.7275 73.9381 61.3181 74.0204 62.6687H58.8757C56.6818 49.0803 46.3705 39.3792 46.014 39.0432C46.3362 39.1324 53.3155 41.3126 58.6426 51.3702C55.7357 34.2098 48.2833 25.8388 48.2833 25.8388C48.2833 25.8388 56.4418 30.9396 61.4535 46.4751C59.1156 31.6663 52.6574 19.833 42.2158 12.9634C42.2158 12.9634 55.8042 16.2885 63.6748 38.0286C62.05 19.7302 57.2097 10.5295 58.9031 0.0605469C58.9031 0.0605469 61.1793 15.9937 66.1087 25.8593C66.2526 26.1473 66.3829 26.4352 66.52 26.7232C67.4113 17.7557 69.2624 8.1848 72.9372 0.828406C72.8343 1.27404 68.7893 18.7909 70.6679 29.6575C70.8392 30.6653 70.9764 31.6937 71.0861 32.729C73.6845 25.921 77.5512 22.1571 77.7089 22.0063C77.6266 22.1914 75.0282 28.1012 73.8901 36.2872C81.6167 21.7595 91.5921 19.1131 91.9006 19.0377C83.0565 24.8584 77.0713 34.2578 74.0272 45.9952V46.002Z" fill="url(#paint1_linear_776_11622)"/>
<path d="M91.214 59.7355C89.9185 58.192 87.9753 57.0597 85.881 56.4827C85.3557 56.3384 80.2818 55.5667 80.2098 56.3023C80.4258 53.9366 80.6417 51.5277 80.0227 49.2197C78.6769 44.2286 71.8182 40.8965 67.1402 45.2456C66.9099 41.3508 66.2838 37.4922 62.4406 34.8596C58.6622 32.2703 54.2577 32.768 50.321 34.5783C49.5077 31.4769 49.7524 28.4116 47.5645 25.5988C45.4702 22.9085 41.2672 21.1991 37.8343 22.5118C34.3222 23.8533 33.0411 27.51 32.1559 30.7412C28.9245 29.544 25.0885 29.6305 21.9434 30.9865C15.5166 33.7561 11.3064 41.6826 13.3719 47.5536C13.5374 48.0152 13.7318 48.4912 13.9549 48.9672C10.4643 47.8277 6.45564 50.2871 5.3617 53.3741C4.26057 56.4754 5.54883 59.2667 6.53481 62.2094C4.70679 62.9451 2.88597 63.4139 1.57613 64.9574C0.770073 65.9094 0.259094 67.0273 0 68.1885H92.3799C93.5314 65.4622 93.042 61.9209 91.2212 59.7427L91.214 59.7355Z" fill="url(#paint2_linear_776_11622)"/>
<path d="M71.7038 53.6334C71.3719 53.6668 71.039 53.769 70.7436 53.9835C70.692 54.021 70.6424 54.0625 70.5958 54.106C70.5533 53.9127 70.4835 53.7265 70.3803 53.5555C70.1921 53.2429 69.926 53.0182 69.6336 52.8573C68.392 52.1753 66.8651 52.7298 66.3491 54.0493C66.2276 54.3599 66.1669 54.703 66.2236 55.0632C66.2539 55.2605 66.3197 55.4477 66.4118 55.6238C66.348 55.6207 66.2843 55.6207 66.2206 55.6248C65.8563 55.6501 65.5355 55.7846 65.2593 55.9718C64.0875 56.7672 63.8852 58.3791 64.8252 59.4385C65.0468 59.6884 65.324 59.8979 65.6711 60.0122C65.9382 60.1002 66.2195 60.1185 66.4988 60.0851C66.427 60.2551 66.3774 60.4331 66.3592 60.6183C66.3228 60.9816 66.4017 61.3205 66.5403 61.6241C67.1282 62.9132 68.6834 63.3817 69.8855 62.6329C70.1688 62.4559 70.4218 62.2171 70.5928 61.8953C70.7051 61.6828 70.7689 61.4511 70.7942 61.2123C70.9662 61.3792 71.1635 61.5158 71.3861 61.6069C71.7241 61.7455 72.0711 61.7658 72.402 61.7202C73.8045 61.5239 74.6979 60.167 74.3225 58.801C74.2345 58.4792 74.0777 58.1686 73.8166 57.9126C73.6851 57.7841 73.5353 57.6789 73.3734 57.5959C73.6173 57.4401 73.8277 57.2417 73.9795 56.9979C74.1728 56.6882 74.2507 56.3493 74.2608 56.0154C74.3023 54.5998 73.1134 53.4928 71.7048 53.6334H71.7038Z" fill="url(#paint3_radial_776_11622)"/>
<path d="M69.5457 59.0763C70.2851 59.0763 70.8844 58.477 70.8844 57.7376C70.8844 56.9983 70.2851 56.3989 69.5457 56.3989C68.8064 56.3989 68.207 56.9983 68.207 57.7376C68.207 58.477 68.8064 59.0763 69.5457 59.0763Z" fill="#F481B4"/>
<path d="M40.8289 43.6708C40.5134 43.7026 40.197 43.7997 39.9162 44.0036C39.8671 44.0392 39.82 44.0786 39.7758 44.1199C39.7354 43.9363 39.669 43.7593 39.5709 43.5968C39.392 43.2996 39.1391 43.0861 38.8611 42.9332C37.6811 42.2849 36.2298 42.812 35.7393 44.0661C35.6239 44.3613 35.5662 44.6874 35.6201 45.0298C35.6489 45.2173 35.7114 45.3952 35.799 45.5626C35.7384 45.5597 35.6778 45.5597 35.6172 45.5635C35.271 45.5876 34.9661 45.7155 34.7035 45.8934C33.5898 46.6493 33.3975 48.1814 34.291 49.1883C34.5016 49.4259 34.7651 49.625 35.095 49.7336C35.3489 49.8173 35.6162 49.8346 35.8817 49.8029C35.8134 49.9645 35.7663 50.1337 35.749 50.3097C35.7143 50.655 35.7893 50.9772 35.9211 51.2657C36.4799 52.4909 37.9581 52.9362 39.1006 52.2245C39.3699 52.0562 39.6103 51.8293 39.7729 51.5234C39.8796 51.3215 39.9402 51.1012 39.9643 50.8743C40.1278 51.0329 40.3153 51.1628 40.5269 51.2493C40.8481 51.3811 41.178 51.4003 41.4925 51.3571C42.8254 51.1705 43.6747 49.8808 43.3179 48.5824C43.2342 48.2766 43.0851 47.9813 42.837 47.738C42.712 47.6159 42.5696 47.5159 42.4157 47.437C42.6475 47.2889 42.8476 47.1004 42.9918 46.8686C43.1755 46.5743 43.2496 46.2521 43.2592 45.9348C43.2986 44.5893 42.1686 43.5371 40.8298 43.6708H40.8289Z" fill="url(#paint4_radial_776_11622)"/>
<path d="M38.7792 48.8441C39.4819 48.8441 40.0516 48.2744 40.0516 47.5717C40.0516 46.869 39.4819 46.2993 38.7792 46.2993C38.0765 46.2993 37.5068 46.869 37.5068 47.5717C37.5068 48.2744 38.0765 48.8441 38.7792 48.8441Z" fill="#FDEB79"/>
<path d="M56.9419 67.2195C59.135 64.2566 61.42 63.5516 61.528 63.5198C61.4074 63.6087 57.4846 66.4319 56.9641 72.8308C56.8911 73.5771 56.9007 74.3139 56.9387 74.9395H49.928C48.9124 68.6453 44.1391 64.1518 43.9741 63.9962C44.1232 64.0375 47.3541 65.0473 49.8201 69.706C48.4744 61.7573 45.0246 57.8799 45.0246 57.8799C45.0246 57.8799 48.8013 60.2426 51.1213 67.4386C50.0391 60.5792 47.0494 55.098 42.2158 51.916C42.2158 51.916 48.5061 53.4562 52.1496 63.5262C51.3974 55.0504 49.1568 50.7887 49.9407 45.9395C49.9407 45.9395 50.9944 53.3197 53.2763 57.8894C53.3429 58.0228 53.4032 58.1562 53.4667 58.2895C53.8793 54.1358 54.7362 49.7026 56.4373 46.2951C56.3897 46.5015 54.5172 54.6153 55.3868 59.6487C55.4661 60.1155 55.5296 60.5919 55.5804 61.0714C56.7832 57.918 58.5732 56.1746 58.6462 56.1047C58.6081 56.1904 57.4053 58.9278 56.8784 62.7196C60.4552 55.9904 65.073 54.7646 65.2158 54.7296C61.1217 57.4258 58.351 61.7796 56.9419 67.2163V67.2195Z" fill="url(#paint5_linear_776_11622)"/>
<path d="M23.4238 61.0898C26.2843 57.3096 29.2648 56.4101 29.4056 56.3696C29.2482 56.483 24.1316 60.085 23.4527 68.2491C23.3575 69.2013 23.37 70.1413 23.4196 70.9395H14.2752C12.9505 62.909 6.72444 57.1759 6.50918 56.9773C6.70374 57.03 10.9179 58.3184 14.1344 64.2623C12.3792 54.1209 7.87941 49.1738 7.87941 49.1738C7.87941 49.1738 12.8056 52.1883 15.8317 61.3694C14.42 52.6177 10.5205 45.6245 4.21582 41.5647C4.21582 41.5647 12.4206 43.5298 17.1729 56.3777C16.1918 45.5637 13.2692 40.1264 14.2917 33.9395C14.2917 33.9395 15.6661 43.3556 18.6425 49.1859C18.7294 49.3561 18.8081 49.5263 18.8909 49.6965C19.429 44.3969 20.5467 38.7407 22.7656 34.3932C22.7035 34.6566 20.2611 45.0087 21.3953 51.4306C21.4988 52.0262 21.5816 52.6339 21.6479 53.2457C23.2168 49.2224 25.5515 46.998 25.6468 46.9089C25.5971 47.0183 24.0282 50.5108 23.341 55.3486C28.0064 46.763 34.0295 45.1991 34.2158 45.1545C28.8757 48.5944 25.2618 54.1493 23.4238 61.0857V61.0898Z" fill="url(#paint6_linear_776_11622)"/>
<defs>
<linearGradient id="paint0_linear_776_11622" x1="30.0582" y1="0" x2="30.0582" y2="62.6082" gradientUnits="userSpaceOnUse">
<stop stop-color="#FDEB79"/>
<stop offset="0.75" stop-color="#40C3A3"/>
<stop offset="1" stop-color="#209975"/>
</linearGradient>
<linearGradient id="paint1_linear_776_11622" x1="67.0582" y1="0.0605469" x2="67.0582" y2="62.6687" gradientUnits="userSpaceOnUse">
<stop stop-color="#FAFAE6"/>
<stop offset="1" stop-color="#FFD285"/>
</linearGradient>
<linearGradient id="paint2_linear_776_11622" x1="46.624" y1="10.5285" x2="60.14" y2="68.1885" gradientUnits="userSpaceOnUse">
<stop stop-color="#FDEB79"/>
<stop offset="0.75" stop-color="#40C3A3"/>
<stop offset="1" stop-color="#209975"/>
</linearGradient>
<radialGradient id="paint3_radial_776_11622" cx="0" cy="0" r="1" gradientUnits="userSpaceOnUse" gradientTransform="translate(70.5426 56.9207) rotate(-19.94) scale(5.10856)">
<stop offset="0.03" stop-color="#FCFF9C"/>
<stop offset="0.41" stop-color="#F5E69D"/>
<stop offset="0.97" stop-color="#F4C081"/>
</radialGradient>
<radialGradient id="paint4_radial_776_11622" cx="0" cy="0" r="1" gradientUnits="userSpaceOnUse" gradientTransform="translate(39.7252 46.7952) rotate(-19.94) scale(4.85553)">
<stop offset="0.03" stop-color="#F6ACD2"/>
<stop offset="0.41" stop-color="#F59DC7"/>
<stop offset="0.97" stop-color="#F481B4"/>
</radialGradient>
<linearGradient id="paint5_linear_776_11622" x1="53.7158" y1="45.9395" x2="53.7158" y2="74.9395" gradientUnits="userSpaceOnUse">
<stop stop-color="#FDEB79"/>
<stop offset="0.75" stop-color="#40C3A3"/>
<stop offset="1" stop-color="#209975"/>
</linearGradient>
<linearGradient id="paint6_linear_776_11622" x1="19.2158" y1="33.9395" x2="19.2158" y2="70.9395" gradientUnits="userSpaceOnUse">
<stop stop-color="#FAFAE6"/>
<stop offset="1" stop-color="#FFD285"/>
</linearGradient>
</defs>
</svg>
