<svg width="78" height="78" viewBox="0 0 78 78" fill="none" xmlns="http://www.w3.org/2000/svg">
<path d="M30.6413 44.6783C29.4821 44.7949 28.3195 45.1519 27.2875 45.9011C27.1073 46.0318 26.9341 46.1767 26.7716 46.3287C26.6231 45.6537 26.3793 45.0034 26.0188 44.4062C25.3615 43.3142 24.4321 42.5296 23.4107 41.9677C19.0745 39.5858 13.7417 41.5224 11.9394 46.1308C11.5153 47.2157 11.3033 48.4137 11.5012 49.6718C11.6072 50.361 11.8369 51.0148 12.1585 51.6297C11.9358 51.6191 11.7132 51.6191 11.4906 51.6332C10.2183 51.7216 9.09805 52.1916 8.13327 52.8454C4.04089 55.6231 3.3341 61.2528 6.61718 64.9529C7.39113 65.8258 8.35944 66.5573 9.5716 66.9566C10.5046 67.2641 11.487 67.3277 12.4624 67.2111C12.2115 67.8048 12.0383 68.4268 11.9747 69.0735C11.8475 70.3422 12.1231 71.5261 12.6073 72.5863C14.6606 77.0886 20.0923 78.7248 24.2907 76.1097C25.2802 75.4912 26.1637 74.6572 26.761 73.5334C27.1532 72.7913 27.3759 71.982 27.4642 71.148C28.065 71.7311 28.7541 72.2082 29.5316 72.5262C30.712 73.0104 31.9241 73.0811 33.0798 72.922C37.9779 72.2364 41.0984 67.4973 39.7873 62.7264C39.4798 61.6026 38.9321 60.5177 38.0203 59.6236C37.5609 59.1748 37.0378 58.8072 36.4724 58.5174C37.3241 57.9732 38.0592 57.2805 38.5893 56.4289C39.2643 55.3475 39.5364 54.1636 39.5717 52.9973C39.7166 48.0533 35.5642 44.1871 30.6448 44.6783H30.6413Z" fill="#FDEB79"/>
<path d="M23.1071 63.6879C25.6893 63.6879 27.7826 61.5946 27.7826 59.0124C27.7826 56.4302 25.6893 54.3369 23.1071 54.3369C20.5249 54.3369 18.4316 56.4302 18.4316 59.0124C18.4316 61.5946 20.5249 63.6879 23.1071 63.6879Z" fill="url(#paint0_radial_776_11589)"/>
<path d="M65.8527 36.3206C64.3824 36.4685 62.9076 36.9213 61.5987 37.8716C61.3701 38.0374 61.1504 38.2212 60.9442 38.414C60.756 37.5578 60.4467 36.733 59.9894 35.9754C59.1557 34.5903 57.9767 33.5952 56.6813 32.8824C51.1811 29.8612 44.4169 32.3176 42.1307 38.163C41.5928 39.5391 41.3239 41.0587 41.5749 42.6545C41.7094 43.5286 42.0007 44.3579 42.4087 45.1379C42.1263 45.1244 41.8438 45.1244 41.5614 45.1424C39.9477 45.2544 38.5267 45.8506 37.303 46.6799C32.1121 50.2032 31.2156 57.344 35.3799 62.0373C36.3616 63.1445 37.5899 64.0724 39.1274 64.5789C40.3108 64.9689 41.557 65.0496 42.7942 64.9017C42.4759 65.6548 42.2562 66.4437 42.1756 67.264C42.0142 68.8733 42.3638 70.375 42.9779 71.7197C45.5823 77.4306 52.4721 79.506 57.7974 76.1889C59.0526 75.4044 60.1732 74.3465 60.9308 72.9211C61.4284 71.9797 61.7108 70.9532 61.8228 69.8953C62.5849 70.6349 63.459 71.2401 64.4451 71.6435C65.9423 72.2576 67.4799 72.3473 68.9457 72.1456C75.1586 71.276 79.1167 65.2648 77.4537 59.2133C77.0637 57.7878 76.3689 56.4116 75.2124 55.2775C74.6296 54.7082 73.9662 54.2421 73.249 53.8745C74.3293 53.1842 75.2617 52.3056 75.9341 51.2253C76.7902 49.8536 77.1354 48.3519 77.1802 46.8726C77.364 40.6015 72.097 35.6975 65.8572 36.3206H65.8527Z" fill="url(#paint1_linear_776_11589)"/>
<path d="M56.2957 60.4327C59.571 60.4327 62.2262 57.7776 62.2262 54.5023C62.2262 51.2269 59.571 48.5718 56.2957 48.5718C53.0204 48.5718 50.3652 51.2269 50.3652 54.5023C50.3652 57.7776 53.0204 60.4327 56.2957 60.4327Z" fill="url(#paint2_linear_776_11589)"/>
<path d="M66.0154 6.87531C64.8122 6.99636 63.6053 7.36685 62.5342 8.14452C62.3471 8.28024 62.1674 8.43064 61.9986 8.58838C61.8446 7.88774 61.5915 7.21279 61.2173 6.59285C60.535 5.45937 59.5703 4.64502 58.5101 4.06177C54.0092 1.58937 48.4738 3.59957 46.603 8.38296C46.1628 9.50911 45.9427 10.7526 46.1481 12.0585C46.2582 12.7738 46.4966 13.4525 46.8304 14.0907C46.5993 14.0797 46.3682 14.0797 46.1371 14.0944C44.8166 14.1861 43.6537 14.674 42.6523 15.3526C38.4045 18.2359 37.6708 24.0794 41.0786 27.92C41.882 28.8261 42.8871 29.5854 44.1453 29.9999C45.1137 30.319 46.1335 30.3851 47.1459 30.264C46.8855 30.8803 46.7057 31.5259 46.6397 32.1972C46.5076 33.5141 46.7938 34.7429 47.2963 35.8434C49.4276 40.5168 55.0656 42.2152 59.4235 39.5007C60.4506 38.8587 61.3677 37.993 61.9876 36.8265C62.3948 36.0562 62.6259 35.2161 62.7176 34.3504C63.3412 34.9557 64.0565 35.4509 64.8635 35.7811C66.0887 36.2836 67.3469 36.357 68.5464 36.1919C73.6306 35.4803 76.8697 30.5612 75.5088 25.609C75.1896 24.4425 74.6211 23.3164 73.6746 22.3883C73.1978 21.9224 72.6549 21.5409 72.068 21.2401C72.952 20.6752 73.715 19.9563 74.2652 19.0722C74.9659 17.9497 75.2483 16.7209 75.285 15.5103C75.4354 10.3785 71.1252 6.36542 66.019 6.87531H66.0154Z" fill="url(#paint3_linear_776_11589)"/>
<path d="M58.1959 26.607C60.8761 26.607 63.0489 24.4342 63.0489 21.754C63.0489 19.0737 60.8761 16.9009 58.1959 16.9009C55.5156 16.9009 53.3428 19.0737 53.3428 21.754C53.3428 24.4342 55.5156 26.607 58.1959 26.607Z" fill="url(#paint4_linear_776_11589)"/>
<path d="M33.0988 4.73564C31.6285 4.88357 30.1537 5.33631 28.8448 6.28662C28.6162 6.45248 28.3965 6.63626 28.1903 6.82901C28.0021 5.97284 27.6928 5.14804 27.2355 4.39048C26.4018 3.00536 25.2228 2.01022 23.9274 1.29748C18.4272 -1.72379 11.663 0.732673 9.37683 6.57799C8.83891 7.95415 8.56996 9.47375 8.82098 11.0696C8.95546 11.9437 9.24683 12.7729 9.65475 13.5529C9.37234 13.5395 9.08994 13.5395 8.80754 13.5574C7.1938 13.6695 5.77281 14.2657 4.54906 15.0949C-0.641797 18.6183 -1.53832 25.7591 2.62602 30.4523C3.60771 31.5595 4.83595 32.4874 6.37348 32.994C7.55689 33.384 8.80305 33.4647 10.0403 33.3167C9.72199 34.0698 9.50234 34.8587 9.42165 35.6791C9.26028 37.2883 9.60992 38.79 10.224 40.1348C12.8284 45.8456 19.7182 47.9211 25.0435 44.6039C26.2987 43.8195 27.4193 42.7616 28.1769 41.3361C28.6744 40.3948 28.9569 39.3682 29.0689 38.3103C29.831 39.05 30.7051 39.6551 31.6912 40.0586C33.1884 40.6727 34.726 40.7623 36.1918 40.5606C42.4047 39.691 46.3628 33.6798 44.6998 27.6283C44.3098 26.2028 43.615 24.8267 42.4585 23.6926C41.8757 23.1233 41.2123 22.6571 40.4951 22.2895C41.5754 21.5992 42.5078 20.7206 43.1802 19.6403C44.0363 18.2686 44.3815 16.7669 44.4263 15.2877C44.6101 9.01652 39.343 4.11256 33.1033 4.73564H33.0988Z" fill="url(#paint5_linear_776_11589)"/>
<path d="M23.5418 28.8473C26.8171 28.8473 29.4723 26.1921 29.4723 22.9168C29.4723 19.6415 26.8171 16.9863 23.5418 16.9863C20.2665 16.9863 17.6113 19.6415 17.6113 22.9168C17.6113 26.1921 20.2665 28.8473 23.5418 28.8473Z" fill="#FDEB79"/>
<defs>
<radialGradient id="paint0_radial_776_11589" cx="0" cy="0" r="1" gradientUnits="userSpaceOnUse" gradientTransform="translate(23.1071 59.0124) rotate(90) scale(7.36443 7.36443)">
<stop stop-color="#F6A6CE"/>
<stop offset="0.85" stop-color="#EF71A9"/>
</radialGradient>
<linearGradient id="paint1_linear_776_11589" x1="55.2941" y1="31.585" x2="55.2941" y2="77.7746" gradientUnits="userSpaceOnUse">
<stop stop-color="#FAFAE6"/>
<stop offset="1" stop-color="#ECECD2"/>
</linearGradient>
<linearGradient id="paint2_linear_776_11589" x1="56.2962" y1="48.5703" x2="56.2962" y2="60.4319" gradientUnits="userSpaceOnUse">
<stop stop-color="#5FAACD"/>
<stop offset="1" stop-color="#5A7EAD"/>
</linearGradient>
<linearGradient id="paint3_linear_776_11589" x1="57.375" y1="3" x2="57.375" y2="40.7983" gradientUnits="userSpaceOnUse">
<stop stop-color="#FDEB79"/>
<stop offset="0.75" stop-color="#40C3A3"/>
<stop offset="1" stop-color="#209975"/>
</linearGradient>
<linearGradient id="paint4_linear_776_11589" x1="58.1959" y1="16.9009" x2="58.1959" y2="26.607" gradientUnits="userSpaceOnUse">
<stop stop-color="#FAFAE6"/>
<stop offset="1" stop-color="#FFD285"/>
</linearGradient>
<linearGradient id="paint5_linear_776_11589" x1="22.5402" y1="0" x2="22.5402" y2="46.1897" gradientUnits="userSpaceOnUse">
<stop stop-color="#80A7DA"/>
<stop offset="0.649038" stop-color="#6C74AC"/>
<stop offset="1" stop-color="#985AA9"/>
</linearGradient>
</defs>
</svg>
