<svg width="73" height="72" viewBox="0 0 73 72" fill="none" xmlns="http://www.w3.org/2000/svg">
<path fill-rule="evenodd" clip-rule="evenodd" d="M55.6164 0C58.688 0 61.178 2.49 61.178 5.56159H72.3012V16.6848C69.2296 16.6848 66.7396 19.1748 66.7396 22.2463C66.7396 25.3179 69.2296 27.8079 72.3012 27.8079V38.9311H61.178C61.178 42.0027 58.688 44.4927 55.6164 44.4927C52.5448 44.4927 50.0548 42.0027 50.0548 38.9311H38.9316V27.8079C42.0032 27.8079 44.4932 25.3179 44.4932 22.2463C44.4932 19.1748 42.0032 16.6848 38.9316 16.6848V5.56159H50.0548C50.0548 2.49 52.5448 0 55.6164 0Z" fill="url(#paint0_linear_776_11616)"/>
<path fill-rule="evenodd" clip-rule="evenodd" d="M0 54.5581C0 51.4698 2.50354 48.9662 5.59181 48.9662V37.7826H16.7754C16.7754 40.8709 19.279 43.3744 22.3672 43.3744C25.4555 43.3744 27.9591 40.8709 27.9591 37.7826H39.1427V48.9662C42.231 48.9662 44.7345 51.4698 44.7345 54.5581C44.7345 57.6463 42.231 60.1499 39.1427 60.1499V71.3335H27.9591C27.9591 68.2452 25.4555 65.7417 22.3672 65.7417C19.279 65.7417 16.7754 68.2452 16.7754 71.3335H5.59181L5.59181 60.1499C2.50354 60.1499 0 57.6463 0 54.5581Z" fill="url(#paint1_linear_776_11616)"/>
<path fill-rule="evenodd" clip-rule="evenodd" d="M39.2467 38.8966V27.7043C42.3374 27.7043 44.8428 25.1989 44.8428 22.1082C44.8428 19.0176 42.3374 16.5121 39.2467 16.5121V5.31982H28.0544C28.0544 8.41048 25.549 10.916 22.4583 10.916C19.3676 10.916 16.8622 8.41048 16.8622 5.31982H5.66992V38.8966H16.8622C16.8622 41.9873 19.3676 44.4927 22.4583 44.4927C25.549 44.4927 28.0544 41.9873 28.0544 38.8966H39.2467Z" fill="url(#paint2_linear_776_11616)"/>
<defs>
<linearGradient id="paint0_linear_776_11616" x1="55.6164" y1="0" x2="55.6164" y2="44.4927" gradientUnits="userSpaceOnUse">
<stop stop-color="#FDEB79"/>
<stop offset="0.75" stop-color="#40C3A3"/>
<stop offset="1" stop-color="#209975"/>
</linearGradient>
<linearGradient id="paint1_linear_776_11616" x1="0" y1="54.5581" x2="44.7345" y2="54.5581" gradientUnits="userSpaceOnUse">
<stop stop-color="#80A7DA"/>
<stop offset="0.649038" stop-color="#6C74AC"/>
<stop offset="1" stop-color="#985AA9"/>
</linearGradient>
<linearGradient id="paint2_linear_776_11616" x1="25.2564" y1="5.31982" x2="25.2564" y2="44.4927" gradientUnits="userSpaceOnUse">
<stop stop-color="#FAFAE6"/>
<stop offset="1" stop-color="#FFD285"/>
</linearGradient>
</defs>
</svg>
