<svg width="159" height="122" viewBox="0 0 159 122" fill="none" xmlns="http://www.w3.org/2000/svg">
<path d="M39.0003 52.938L63.496 6.31934H110.803L127.871 22.7351L154.599 62.3411L39.0003 52.938Z" fill="url(#paint0_linear_776_12845)"/>
<path d="M63.4973 6.31971C63.4973 6.31971 96.0201 -7.89964 110.804 6.31971L125.588 20.5391C125.588 20.5391 118.24 27.9928 112.85 19.7187C107.461 11.4447 98.0578 19.7187 98.0578 19.7187C98.0578 19.7187 96.0466 8.51612 86.6082 13.941C77.1698 19.3659 71.8507 22.9384 71.8507 22.9384L65.3144 17.2841L54.5 23.6352L63.4885 6.32853L63.4973 6.31971Z" fill="url(#paint1_linear_776_12845)"/>
<g filter="url(#filter0_d_776_12845)">
<path d="M52.7516 58.5132C52.7516 58.5132 -23.2396 59.082 7.19156 85.5524C37.6227 112.023 -6.2309 130.329 80.7272 118.155C167.685 105.974 170.46 44.5012 52.7516 58.5202V58.5132Z" fill="url(#paint2_linear_776_12845)"/>
</g>
<path opacity="0.66" d="M39.0732 76.7916C39.0732 76.7916 51.1916 86.0659 56.075 79.4206C62.9146 70.1324 68.5263 85.9827 74.4919 81.1755C79.0007 77.5407 83.7662 73.1568 93.1654 81.4253" stroke="white" stroke-width="4" stroke-miterlimit="10" stroke-linecap="round"/>
<path opacity="0.66" d="M118.878 93.3912C118.878 93.3912 106.76 102.666 101.876 96.0202C95.0369 86.732 89.4252 102.582 83.4596 97.7752C78.9508 94.1403 74.1853 89.7564 64.7861 98.0249" stroke="white" stroke-width="4" stroke-miterlimit="10" stroke-linecap="round"/>
<path d="M126.482 48.8161C128.332 46.2927 130.26 45.6922 130.351 45.6652C130.249 45.7409 126.94 48.1453 126.5 53.5951C126.439 54.2307 126.447 54.8582 126.479 55.391H120.564C119.707 50.0304 115.679 46.2034 115.54 46.0709C115.666 46.106 118.392 46.9661 120.473 50.9338C119.337 44.1641 116.427 40.8618 116.427 40.8618C116.427 40.8618 119.613 42.874 121.571 49.0027C120.657 43.1607 118.135 38.4925 114.057 35.7825C114.057 35.7825 119.364 37.0942 122.438 45.6706C121.804 38.4519 119.913 34.8223 120.574 30.6924C120.574 30.6924 121.463 36.9779 123.389 40.8699C123.445 40.9835 123.496 41.0971 123.549 41.2107C123.898 37.673 124.621 33.8974 126.056 30.9953C126.016 31.1711 124.436 38.0814 125.17 42.3682C125.236 42.7658 125.29 43.1715 125.333 43.5799C126.348 40.8942 127.858 39.4094 127.92 39.3499C127.888 39.4229 126.873 41.7543 126.428 44.9836C129.446 39.2525 133.342 38.2085 133.463 38.1788C130.008 40.475 127.671 44.183 126.482 48.8134V48.8161Z" fill="url(#paint3_linear_776_12845)"/>
<path d="M53.8072 50.6104C53.8072 50.6104 51.327 53.2497 51.1416 58.2182H37.1237C37.0838 51.5426 31.837 49.1009 31.7549 49.065C31.8347 49.074 36.1686 49.5637 38.5879 53.0363C38.5879 53.0363 37.1237 48.5978 35.6594 45.3273C35.6594 45.3273 39.564 47.6634 41.0282 53.2699C41.0282 53.2699 41.7603 46.0259 42.9805 43.6899C42.9805 43.6899 42.4924 48.8292 43.7126 50.698C43.7126 50.698 45.6649 49.0628 46.153 43.2227C46.153 43.2227 47.3731 46.7267 46.8851 51.866C46.8851 51.866 48.3469 47.4298 49.8135 45.7945C49.7642 45.8866 47.6359 49.7995 49.0814 52.8027C49.0814 52.8027 49.8135 48.1306 53.474 46.0259C53.474 46.0259 51.7095 48.335 51.1768 53.0183C52.2961 51.2281 53.8025 50.6104 53.8025 50.6104H53.8072Z" fill="url(#paint4_linear_776_12845)"/>
<path d="M123.76 51.3374C123.76 51.3374 121.875 53.3557 121.734 57.1552H111.08C111.05 52.0503 107.062 50.1832 107 50.1557C107.061 50.1625 110.354 50.537 112.193 53.1925C112.193 53.1925 111.08 49.7984 109.967 47.2975C109.967 47.2975 112.935 49.0838 114.048 53.3712C114.048 53.3712 114.604 47.8317 115.531 46.0453C115.531 46.0453 115.161 49.9753 116.088 51.4044C116.088 51.4044 117.572 50.154 117.943 45.688C117.943 45.688 118.87 48.3676 118.499 52.2976C118.499 52.2976 119.61 48.9052 120.725 47.6547C120.687 47.7252 119.07 50.7174 120.168 53.0139C120.168 53.0139 120.725 49.4411 123.507 47.8316C123.507 47.8316 122.165 49.5974 121.761 53.1788C122.611 51.8098 123.756 51.3374 123.756 51.3374H123.76Z" fill="url(#paint5_linear_776_12845)"/>
<path d="M136.307 51.4233C133.897 49.907 130.859 49.6907 128.218 50.7834C122.916 52.9821 114.63 57.3861 125.714 59.955C138.747 62.9766 143.443 55.9099 136.307 51.4211V51.4233Z" fill="url(#paint6_linear_776_12845)"/>
<defs>
<filter id="filter0_d_776_12845" x="0" y="51.4541" width="158.781" height="70.5479" filterUnits="userSpaceOnUse" color-interpolation-filters="sRGB">
<feFlood flood-opacity="0" result="BackgroundImageFix"/>
<feColorMatrix in="SourceAlpha" type="matrix" values="0 0 0 0 0 0 0 0 0 0 0 0 0 0 0 0 0 0 127 0" result="hardAlpha"/>
<feOffset dx="15" dy="-5"/>
<feColorMatrix type="matrix" values="0 0 0 0 0.356863 0 0 0 0 0.517647 0 0 0 0 0.756863 0 0 0 1 0"/>
<feBlend mode="normal" in2="BackgroundImageFix" result="effect1_dropShadow_776_12845"/>
<feBlend mode="normal" in="SourceGraphic" in2="effect1_dropShadow_776_12845" result="shape"/>
</filter>
<linearGradient id="paint0_linear_776_12845" x1="96.7995" y1="6.31934" x2="96.7995" y2="62.3411" gradientUnits="userSpaceOnUse">
<stop stop-color="#FDEB79"/>
<stop offset="1" stop-color="#40C3A3"/>
</linearGradient>
<linearGradient id="paint1_linear_776_12845" x1="101.974" y1="0.559639" x2="80.1248" y2="38.4103" gradientUnits="userSpaceOnUse">
<stop offset="0.08" stop-color="#FAFAE6"/>
<stop offset="0.58" stop-color="#FCF9D5"/>
<stop offset="0.97" stop-color="#FDF9CE"/>
</linearGradient>
<linearGradient id="paint2_linear_776_12845" x1="71.8968" y1="56.4461" x2="71.8968" y2="121.998" gradientUnits="userSpaceOnUse">
<stop stop-color="#5FAACD"/>
<stop offset="1" stop-color="#5A7EAD"/>
</linearGradient>
<linearGradient id="paint3_linear_776_12845" x1="123.76" y1="30.6924" x2="123.76" y2="55.391" gradientUnits="userSpaceOnUse">
<stop stop-color="#FAFAE6"/>
<stop offset="1" stop-color="#FFD285"/>
</linearGradient>
<linearGradient id="paint4_linear_776_12845" x1="42.7811" y1="43.2227" x2="42.7811" y2="58.2182" gradientUnits="userSpaceOnUse">
<stop stop-color="#FAFAE6"/>
<stop offset="1" stop-color="#FFD285"/>
</linearGradient>
<linearGradient id="paint5_linear_776_12845" x1="115.38" y1="45.688" x2="115.38" y2="57.1552" gradientUnits="userSpaceOnUse">
<stop stop-color="#FDEB79"/>
<stop offset="0.75" stop-color="#40C3A3"/>
<stop offset="1" stop-color="#209975"/>
</linearGradient>
<linearGradient id="paint6_linear_776_12845" x1="129.933" y1="60.6842" x2="129.933" y2="50.0988" gradientUnits="userSpaceOnUse">
<stop offset="0.19" stop-color="#666666"/>
<stop offset="0.35" stop-color="#6A6A6A"/>
<stop offset="0.54" stop-color="#787878"/>
<stop offset="0.74" stop-color="#8F8F8F"/>
<stop offset="0.94" stop-color="#AEAEAE"/>
<stop offset="0.97" stop-color="#B3B3B3"/>
</linearGradient>
</defs>
</svg>
