<svg width="350" height="299" viewBox="0 0 350 299" fill="none" xmlns="http://www.w3.org/2000/svg">
<path d="M145.555 12.501C111.555 16.334 90.0549 33.9022 111.555 46.9984C138.555 63.4448 232.737 31.6662 287.555 31.6662C330.055 31.6662 356.37 64.5789 318.055 90.1202C283.555 113.118 234.554 116.313 162.055 106.411C86.7166 96.1209 21.0528 102.897 13.5539 136.436C6.055 169.975 39.3341 189.298 88.0542 193.612C138.554 198.084 187.892 183.932 204.054 201.279C216.554 214.694 192.554 231.304 154.054 240.567C129.999 246.355 128.319 264.479 145.555 275.065C169.999 290.077 220.499 287.522 300.999 281.773" stroke="url(#paint0_radial_776_11727)" stroke-width="25" stroke-linecap="round"/>
<path d="M145.555 12.501C111.555 16.334 90.0549 33.9022 111.555 46.9984C138.555 63.4448 232.737 31.6662 287.555 31.6662C330.055 31.6662 356.37 64.5789 318.055 90.1202C283.555 113.118 234.554 116.313 162.055 106.411C86.7166 96.1209 21.0528 102.897 13.5539 136.436C6.055 169.975 39.3341 189.298 88.0542 193.612C138.554 198.084 187.892 183.932 204.054 201.279C216.554 214.694 192.554 231.304 154.054 240.567C129.999 246.355 128.319 264.479 145.555 275.065C169.999 290.078 220.499 287.522 300.999 281.773" stroke="#FAFAE6" stroke-width="3" stroke-linecap="round" stroke-dasharray="15 15"/>
<defs>
<radialGradient id="paint0_radial_776_11727" cx="0" cy="0" r="1" gradientUnits="userSpaceOnUse" gradientTransform="translate(174.563 149.393) rotate(90) scale(215.62 255.269)">
<stop stop-color="#F6A6CE"/>
<stop offset="0.85" stop-color="#EF71A9"/>
</radialGradient>
</defs>
</svg>
