<svg width="34" height="40" viewBox="0 0 34 40" fill="none" xmlns="http://www.w3.org/2000/svg">
<path d="M28.3333 14.04V11.6667C28.3333 8.57247 27.1042 5.60501 24.9162 3.41709C22.7283 1.22916 19.7609 0 16.6667 0C13.5725 0 10.605 1.22916 8.41709 3.41709C6.22916 5.60501 5 8.57247 5 11.6667V14.04C3.5156 14.6878 2.25215 15.7542 1.36417 17.1087C0.476176 18.4632 0.00213063 20.0471 0 21.6667V31.6667C0.00264643 33.876 0.88147 35.9941 2.4437 37.5563C4.00593 39.1185 6.12401 39.9974 8.33333 40H25C27.2093 39.9974 29.3274 39.1185 30.8896 37.5563C32.4519 35.9941 33.3307 33.876 33.3333 31.6667V21.6667C33.3312 20.0471 32.8572 18.4632 31.9692 17.1087C31.0812 15.7542 29.8177 14.6878 28.3333 14.04V14.04ZM8.33333 11.6667C8.33333 9.45653 9.21131 7.33691 10.7741 5.77411C12.3369 4.21131 14.4565 3.33333 16.6667 3.33333C18.8768 3.33333 20.9964 4.21131 22.5592 5.77411C24.122 7.33691 25 9.45653 25 11.6667V13.3333H8.33333V11.6667ZM30 31.6667C30 32.9927 29.4732 34.2645 28.5355 35.2022C27.5979 36.1399 26.3261 36.6667 25 36.6667H8.33333C7.00725 36.6667 5.73548 36.1399 4.7978 35.2022C3.86012 34.2645 3.33333 32.9927 3.33333 31.6667V21.6667C3.33333 20.3406 3.86012 19.0688 4.7978 18.1311C5.73548 17.1934 7.00725 16.6667 8.33333 16.6667H25C26.3261 16.6667 27.5979 17.1934 28.5355 18.1311C29.4732 19.0688 30 20.3406 30 21.6667V31.6667Z" fill="#F481B4"/>
<path d="M16.6667 23.333C16.2246 23.333 15.8007 23.5086 15.4882 23.8212C15.1756 24.1337 15 24.5576 15 24.9997V28.333C15 28.775 15.1756 29.1989 15.4882 29.5115C15.8007 29.8241 16.2246 29.9997 16.6667 29.9997C17.1087 29.9997 17.5326 29.8241 17.8452 29.5115C18.1578 29.1989 18.3334 28.775 18.3334 28.333V24.9997C18.3334 24.5576 18.1578 24.1337 17.8452 23.8212C17.5326 23.5086 17.1087 23.333 16.6667 23.333Z" fill="#F481B4"/>
</svg>
