<svg width="40" height="22" viewBox="0 0 40 22" fill="none" xmlns="http://www.w3.org/2000/svg">
<path d="M19.7456 17.5505C19.7456 17.5505 21.9384 17.3755 21.9384 19.7436L24.1312 17.5505C24.1312 17.5505 21.9384 17.7567 21.9384 15.3573L19.7456 17.5505Z" fill="white"/>
<path d="M0.00244141 8.2087L0.00244141 0.592712C0.00244141 0.279405 0.255655 0.0261478 0.56891 0.0261478H3.82154C4.1348 0.0261478 4.38801 0.279405 4.38801 0.592712L4.38801 8.16171C4.38801 8.50112 4.11391 8.77527 3.77455 8.77527H0.56891C0.255655 8.77527 0.00244141 8.52201 0.00244141 8.2087Z" fill="white"/>
<path d="M13.1621 4.37853V0.0261664H17.5477V4.41248H13.196C13.1778 4.41248 13.1621 4.39681 13.1621 4.37853Z" fill="white"/>
<path d="M8.77393 4.37597V0.519672C8.77393 0.245528 8.99582 0.0236011 9.26991 0.0236011H13.1595V4.40991H8.80786C8.78959 4.40991 8.77393 4.39425 8.77393 4.37597Z" fill="white"/>
<path d="M21.9355 0.642295V3.8302C21.9355 4.15134 21.6745 4.41243 21.3534 4.41243H17.55V0.026123L21.3195 0.026123C21.6588 0.026123 21.9355 0.302878 21.9355 0.642295Z" fill="white"/>
<path d="M0.00244141 17.5506L0.00244141 21.9369H4.38801V17.5506H0.00244141Z" fill="white"/>
<path d="M26.2666 3.78319V0.574392C26.2666 0.255862 26.525 -4.76837e-06 26.8409 -4.76837e-06H28.5925C29.7307 -4.76837e-06 30.6548 0.924252 30.6548 2.0626V4.38892H26.8722C26.5381 4.38892 26.2692 4.11738 26.2692 3.7858L26.2666 3.78319Z" fill="white"/>
<path d="M26.2663 21.9368V17.5505H30.6519V19.8116C30.6519 20.9865 29.699 21.9395 28.5243 21.9395H26.2637L26.2663 21.9368Z" fill="white"/>
<path d="M21.8779 8.16954V4.99207C21.8779 4.65788 22.1494 4.38634 22.4836 4.38634H25.6605C25.9946 4.38634 26.2661 4.65788 26.2661 4.99207V8.12254C26.2661 8.48285 25.9737 8.77527 25.6135 8.77527H22.4836C22.1494 8.77527 21.8779 8.50373 21.8779 8.16954Z" fill="white"/>
<path d="M8.77361 8.20609V4.38635H13.1592V8.72566C13.1592 8.75177 13.1383 8.77527 13.1096 8.77527H9.34008C9.02682 8.77527 8.771 8.52201 8.771 8.20609H8.77361Z" fill="white"/>
<path d="M13.1621 21.9028V17.5165H16.9656C17.2866 17.5165 17.5477 17.7776 17.5477 18.0988V21.2997C17.5477 21.6339 17.2762 21.9028 16.9447 21.9028H13.1621Z" fill="white"/>
<path d="M9.39244 17.5243H13.1619V21.9106H9.44204C9.07396 21.9106 8.77637 21.613 8.77637 21.2448V18.1405C8.77637 17.801 9.05308 17.5243 9.39244 17.5243Z" fill="white"/>
<path d="M21.938 21.2215V17.6498C21.938 17.595 21.9824 17.548 22.0398 17.548H26.2244C26.2792 17.548 26.3262 17.5924 26.3262 17.6498V21.8351C26.3262 21.8899 26.2818 21.9369 26.2244 21.9369H22.6533C22.2591 21.9369 21.938 21.6158 21.938 21.2215Z" fill="white"/>
<path d="M28.4595 0V4.38631C32.0932 4.38631 35.0404 7.33402 35.0404 10.9684C35.0404 14.6028 32.0932 17.5505 28.4595 17.5505V21.9368C34.5157 21.9368 39.426 17.0257 39.426 10.9684C39.426 4.9111 34.5157 0 28.4595 0Z" fill="white"/>
<path d="M0.00260902 17.5374L0.00260902 13.7803C0.00260902 13.4383 0.281929 13.1589 0.623899 13.1589H3.71468C4.08537 13.1589 4.38818 13.4618 4.38818 13.8325V17.5374C4.38818 17.5374 4.38296 17.5479 4.37774 17.5479H0.0104401C0.0104401 17.5479 0 17.5426 0 17.5374H0.00260902Z" fill="white"/>
<path d="M4.38818 9.34188V12.5951C4.38818 12.908 4.6418 13.1616 4.95465 13.1616H8.20729C8.52014 13.1616 8.77376 12.908 8.77376 12.5951V9.34188C8.77376 9.02897 8.52014 8.77531 8.20729 8.77531H4.95465C4.6418 8.77531 4.38818 9.02897 4.38818 9.34188Z" fill="white"/>
<path d="M4.3881 10.9684C4.3881 10.9684 4.563 13.1615 2.19531 13.1615L4.3881 15.3547C4.3881 15.3547 4.18187 13.1615 6.58088 13.1615L4.3881 10.9684Z" fill="white"/>
<path d="M13.1645 2.21924C13.1645 2.21924 13.3394 4.41239 10.9717 4.41239L13.1645 6.60555C13.1645 6.60555 12.9582 4.41239 15.3572 4.41239L13.1645 2.21924Z" fill="white"/>
<path d="M17.5502 15.3547C17.5502 15.3547 17.7251 17.5479 15.3574 17.5479L17.5502 19.741C17.5502 19.741 17.344 17.5479 19.743 17.5479L17.5502 15.3547Z" fill="white"/>
<path d="M26.2665 2.21924C26.2665 2.21924 26.4414 4.41239 24.0737 4.41239L26.2665 6.60555C26.2665 6.60555 26.0603 4.41239 28.4593 4.41239L26.2665 2.21924Z" fill="white"/>
<path d="M21.9384 2.21924C21.9384 2.21924 21.7635 4.41239 24.1312 4.41239L21.9384 6.60555C21.9384 6.60555 22.1446 4.41239 19.7456 4.41239L21.9384 2.21924Z" fill="white"/>
<path d="M13.162 6.58215C13.162 6.58215 12.9871 8.77531 15.3548 8.77531L13.162 10.9685C13.162 10.9685 13.3683 8.77531 10.9692 8.77531L13.162 6.58215Z" fill="white"/>
<path d="M4.3881 6.58215C4.3881 6.58215 4.2132 8.77531 6.58088 8.77531L4.3881 10.9685C4.3881 10.9685 4.59432 8.77531 2.19531 8.77531L4.3881 6.58215Z" fill="white"/>
<path d="M17.5474 16.7228V14.8769C17.5474 13.9291 18.3148 13.1615 19.2624 13.1615H21.9329V17.5479H18.3723C17.9154 17.5479 17.5474 17.1771 17.5474 16.7228Z" fill="white"/>
<path d="M13.1621 9.36276V12.5742C13.1621 12.8986 13.4251 13.1616 13.7495 13.1616H16.9603C17.2847 13.1616 17.5477 12.8986 17.5477 12.5742V9.36276C17.5477 9.03832 17.2847 8.77531 16.9603 8.77531H13.7495C13.4251 8.77531 13.1621 9.03832 13.1621 9.36276Z" fill="white"/>
<path d="M17.5473 10.9684C17.5473 10.9684 17.3724 13.1615 19.7401 13.1615L17.5473 15.3547C17.5473 15.3547 17.7535 13.1615 15.3545 13.1615L17.5473 10.9684Z" fill="white"/>
<path d="M21.938 17.5479V13.1615H26.2714C26.3001 13.1615 26.3236 13.185 26.3236 13.2138V17.5479H21.938Z" fill="#0090FF"/>
<path d="M26.3262 9.38626V12.5507C26.3262 12.8881 26.5997 13.1616 26.937 13.1616H30.1009C30.4383 13.1616 30.7117 12.8881 30.7117 12.5507V9.38626C30.7117 9.04884 30.4383 8.77531 30.1009 8.77531H26.937C26.5997 8.77531 26.3262 9.04884 26.3262 9.38626Z" fill="#0090FF"/>
<path d="M26.3236 10.9684C26.3236 10.9684 26.4985 13.1615 24.1309 13.1615L26.3236 15.3547C26.3236 15.3547 26.1174 13.1615 28.5164 13.1615L26.3236 10.9684Z" fill="#0090FF"/>
<path d="M0 4.41248L0 0.597953C0 0.282034 0.255824 0.0235538 0.5743 0.0235538H3.81388C4.12975 0.0235538 4.38818 0.279423 4.38818 0.597953V4.41248H0.00261102H0Z" fill="#D83273"/>
</svg>
