<svg width="40" height="40" viewBox="0 0 40 40" fill="none" xmlns="http://www.w3.org/2000/svg">
<path d="M28.6275 14.4392C31.1998 16.2844 34.3509 17.3702 37.7543 17.3702V10.7977C37.1102 10.7979 36.4677 10.7305 35.8376 10.5965V15.7699C32.4345 15.7699 29.2838 14.6842 26.7108 12.839V26.2515C26.7108 32.9611 21.291 38.3999 14.6056 38.3999C12.1112 38.3999 9.79268 37.6431 7.8667 36.3451C10.0649 38.6007 13.1304 40 16.5219 40C23.2077 40 28.6278 34.5612 28.6278 27.8513V14.4392H28.6275ZM30.992 7.80836C29.6774 6.36708 28.8143 4.5045 28.6275 2.44533V1.59998H26.8112C27.2684 4.21718 28.8278 6.45316 30.992 7.80836ZM12.0952 31.1964C11.3607 30.2299 10.9638 29.0477 10.9656 27.8321C10.9656 24.7634 13.4446 22.2752 16.503 22.2752C17.073 22.2751 17.6396 22.3627 18.1828 22.5357V15.8163C17.548 15.729 16.9073 15.692 16.2669 15.7055V20.9356C15.7233 20.7626 15.1565 20.6747 14.5864 20.6753C11.5279 20.6753 9.04906 23.1632 9.04906 26.2323C9.04906 28.4024 10.2882 30.2811 12.0952 31.1964Z" fill="#FF004F"/>
<path d="M26.7108 12.8389C29.2837 14.6841 32.4344 15.7698 35.8375 15.7698V10.5963C33.9379 10.1903 32.2563 9.19405 30.9919 7.80836C28.8276 6.45302 27.2683 4.21704 26.8111 1.59998H22.0401V27.8511C22.0293 30.9114 19.5546 33.3894 16.5027 33.3894C14.7043 33.3894 13.1066 32.5291 12.0947 31.1964C10.2878 30.2811 9.04872 28.4022 9.04872 26.2324C9.04872 23.1636 11.5276 20.6754 14.586 20.6754C15.172 20.6754 15.7368 20.767 16.2666 20.9357V15.7057C9.69869 15.8419 4.4165 21.2275 4.4165 27.8512C4.4165 31.1577 5.73189 34.1551 7.86677 36.3453C9.79275 37.6431 12.1112 38.4 14.6057 38.4C21.2912 38.4 26.7109 32.9609 26.7109 26.2515V12.8389H26.7108Z" fill="black"/>
<path d="M35.8376 10.5963V9.19747C34.1246 9.20008 32.4453 8.71865 30.9919 7.80822C32.2785 9.22177 33.9726 10.1964 35.8376 10.5963ZM26.8112 1.59997C26.7676 1.34985 26.7341 1.09808 26.7108 0.845357V0H20.1234V26.2514C20.1128 29.3113 17.6382 31.7893 14.5861 31.7893C13.69 31.7893 12.844 31.5758 12.0947 31.1965C13.1066 32.5291 14.7043 33.3893 16.5027 33.3893C19.5543 33.3893 22.0295 30.9115 22.0402 27.8512V1.59997H26.8112ZM16.2669 15.7057V14.2165C15.7165 14.141 15.1615 14.1031 14.6059 14.1034C7.91986 14.1032 2.5 19.5423 2.5 26.2514C2.5 30.4575 4.6301 34.1645 7.86695 36.345C5.73206 34.155 4.41668 31.1574 4.41668 27.8511C4.41668 21.2275 9.69873 15.8419 16.2669 15.7057Z" fill="#00F2EA"/>
</svg>
