<svg width="56" height="77" viewBox="0 0 56 77" fill="none" xmlns="http://www.w3.org/2000/svg">
<path d="M13.4026 13.6342C12.2344 14.9197 11.2931 16.4814 10.8727 18.3581C10.7992 18.6858 10.7471 19.0225 10.7135 19.3566C9.90149 18.7383 9.00789 18.243 8.03639 17.9239C6.26202 17.3386 4.48233 17.373 2.81491 17.7514C-4.26077 19.3622 -8.29085 26.865 -5.85687 33.8874C-5.28357 35.5404 -4.36752 37.1109 -2.94106 38.3416C-2.16235 39.0182 -1.28096 39.5315 -0.335421 39.9094C-0.59148 40.1189 -0.837358 40.3404 -1.06967 40.5779C-2.38987 41.9438 -3.17582 43.5916 -3.6136 45.2933C-5.46624 52.5165 -0.841807 59.608 6.3364 60.5407C8.0292 60.7613 9.80093 60.6281 11.523 59.8754C12.8486 59.2962 13.9946 58.391 14.9599 57.2883C15.2528 58.2117 15.6587 59.0897 16.2094 59.8869C17.2869 61.4532 18.728 62.5224 20.2806 63.2438C26.8708 66.3103 34.4405 62.7634 36.5663 55.6192C37.0653 53.933 37.2403 52.1076 36.8209 50.2382C36.5416 49.0058 36.0105 47.866 35.3073 46.8317C36.5306 46.8957 37.7497 46.7515 38.9137 46.339C40.6821 45.7142 42.0887 44.5885 43.2122 43.2584C47.9634 37.6077 46.8596 29.1256 40.8311 25.016C39.4126 24.0466 37.766 23.3604 35.9007 23.2528C34.9624 23.2006 34.0319 23.3038 33.1292 23.5375C33.5473 22.0726 33.6941 20.5554 33.4618 19.0615C33.169 17.1629 32.3329 15.5487 31.2522 14.1902C26.6654 8.4357 18.3677 8.1794 13.4065 13.6307L13.4026 13.6342Z" fill="url(#paint0_linear_486_6700)"/>
<path d="M23.3304 42.7022C26.182 40.1335 26.4841 35.6758 24.005 32.7457C21.5259 29.8155 17.2045 29.5226 14.3528 32.0913C11.5012 34.6601 11.1992 39.1178 13.6782 42.0479C16.1573 44.978 20.4788 45.271 23.3304 42.7022Z" fill="#FDEB79"/>
<defs>
<linearGradient id="paint0_linear_486_6700" x1="0.62509" y1="17.6785" x2="36.8354" y2="57.8767" gradientUnits="userSpaceOnUse">
<stop stop-color="#80A7DA"/>
<stop offset="0.649038" stop-color="#6C74AC"/>
<stop offset="1" stop-color="#985AA9"/>
</linearGradient>
</defs>
</svg>
