<svg width="43" height="55" viewBox="0 0 43 55" fill="none" xmlns="http://www.w3.org/2000/svg">
<path d="M38.1792 5.63482C36.4832 5.81083 34.7821 6.34954 33.2723 7.48029C33.0086 7.67764 32.7552 7.89632 32.5173 8.12567C32.3002 7.10693 31.9434 6.12552 31.416 5.22412C30.4543 3.57599 29.0944 2.3919 27.6 1.54384C21.2557 -2.0511 13.4531 0.871789 10.8161 7.82698C10.1956 9.46444 9.88539 11.2726 10.1749 13.1714C10.3301 14.2115 10.6662 15.1982 11.1367 16.1263C10.8109 16.1103 10.4852 16.1103 10.1594 16.1316C8.298 16.265 6.6589 16.9743 5.24731 17.9611C-0.740308 22.1534 -1.77444 30.65 3.0291 36.2345C4.16147 37.5519 5.57823 38.656 7.35177 39.2587C8.71682 39.7227 10.1543 39.8187 11.5814 39.6427C11.2142 40.5388 10.9609 41.4775 10.8678 42.4536C10.6817 44.3684 11.085 46.1552 11.7934 47.7553C14.7975 54.5505 22.7448 57.02 28.8875 53.0731C30.3353 52.1397 31.628 50.8809 32.5018 49.1848C33.0758 48.0647 33.4015 46.8433 33.5308 45.5845C34.4098 46.4646 35.4181 47.1846 36.5556 47.6647C38.2826 48.3954 40.0562 48.5021 41.747 48.262C48.9135 47.2273 53.4792 40.0748 51.5609 32.8742C51.111 31.1781 50.3096 29.5406 48.9755 28.1912C48.3033 27.5138 47.5381 26.9591 46.7108 26.5217C47.9569 25.7003 49.0324 24.6549 49.808 23.3695C50.7956 21.7374 51.1937 19.9506 51.2454 18.1904C51.4574 10.7285 45.3819 4.89343 38.1844 5.63482H38.1792Z" fill="url(#paint0_linear_486_6704)"/>
<path d="M27.1552 34.325C30.9333 34.325 33.996 31.1657 33.996 27.2684C33.996 23.3712 30.9333 20.2119 27.1552 20.2119C23.3772 20.2119 20.3145 23.3712 20.3145 27.2684C20.3145 31.1657 23.3772 34.325 27.1552 34.325Z" fill="#5A7EAD"/>
<defs>
<linearGradient id="paint0_linear_486_6704" x1="26" y1="0" x2="26" y2="54.9599" gradientUnits="userSpaceOnUse">
<stop stop-color="#FAFAE6"/>
<stop offset="1" stop-color="#FFD285"/>
</linearGradient>
</defs>
</svg>
