<svg width="49" height="35" viewBox="0 0 49 35" fill="none" xmlns="http://www.w3.org/2000/svg">
<path d="M48.667 17.2431C48.667 17.2431 43.1934 23.4032 42.7843 35H11.8483C11.7602 19.4188 0.181246 13.72 0 13.6362C0.176067 13.6571 9.74065 14.8 15.0796 22.9052C15.0796 22.9052 11.8483 12.5457 8.61693 4.91237C8.61693 4.91237 17.2339 10.3647 20.4652 23.4504C20.4652 23.4504 22.0809 6.54284 24.7737 1.09047C24.7737 1.09047 23.6966 13.0857 26.3893 17.4476C26.3893 17.4476 30.6978 13.6309 31.7749 0C31.7749 0 34.4677 8.17855 33.3906 20.1738C33.3906 20.1738 36.6168 9.8195 39.8533 6.00284C39.7446 6.21779 35.0477 15.3505 38.2376 22.36C38.2376 22.36 39.8533 11.4552 47.9317 6.54284C47.9317 6.54284 44.0375 11.9323 42.862 22.8632C45.3321 18.6848 48.6567 17.2431 48.6567 17.2431H48.667Z" fill="url(#paint0_linear_1063_20004)"/>
<defs>
<linearGradient id="paint0_linear_1063_20004" x1="24.3335" y1="0" x2="24.3335" y2="35" gradientUnits="userSpaceOnUse">
<stop stop-color="#FDEB79"/>
<stop offset="0.75" stop-color="#40C3A3"/>
<stop offset="1" stop-color="#209975"/>
</linearGradient>
</defs>
</svg>
