<svg width="20" height="28" viewBox="0 0 20 28" fill="none" xmlns="http://www.w3.org/2000/svg">
<path d="M7.1947 20.5462C5.28771 17.6855 3.30067 17.0048 3.20684 16.9741C3.31171 17.06 6.72278 19.7858 7.17538 25.9641C7.23886 26.6846 7.23058 27.396 7.19746 28H13.2938C14.1769 21.9229 18.3276 17.5843 18.4711 17.4341C18.3414 17.4739 15.5319 18.449 13.3876 22.947C14.5578 15.2724 17.5576 11.5287 17.5576 11.5287C17.5576 11.5287 14.2735 13.8099 12.2561 20.7578C13.1972 14.1349 15.7969 8.84275 20 5.77048C20 5.77048 14.5301 7.25756 11.3619 16.9803C12.016 8.79676 13.9644 4.682 13.2827 0C13.2827 0 12.3665 7.12571 10.3822 11.5379C10.3243 11.6667 10.2718 11.7954 10.2166 11.9242C9.85787 7.91371 9.11274 3.63338 7.6335 0.343406C7.6749 0.542705 9.30316 8.3767 8.54698 13.2365C8.47799 13.6873 8.4228 14.1472 8.37864 14.6102C7.33269 11.5655 5.77618 9.88217 5.71271 9.81471C5.74582 9.8975 6.79178 12.5405 7.2499 16.2015C4.13964 9.70433 0.124189 8.5208 0 8.48707C3.56009 11.0902 5.96937 15.2939 7.1947 20.5431V20.5462Z" fill="url(#paint0_linear_1063_20455)"/>
<defs>
<linearGradient id="paint0_linear_1063_20455" x1="10" y1="0" x2="10" y2="28" gradientUnits="userSpaceOnUse">
<stop stop-color="#FDEB79"/>
<stop offset="0.75" stop-color="#40C3A3"/>
<stop offset="1" stop-color="#209975"/>
</linearGradient>
</defs>
</svg>
