<svg width="27" height="37" viewBox="0 0 27 37" fill="none" xmlns="http://www.w3.org/2000/svg">
<path d="M17.2872 27.1504C19.8616 23.3701 22.5441 22.4706 22.6708 22.4301C22.5292 22.5436 17.9242 26.1455 17.3132 34.3097C17.2275 35.2618 17.2387 36.2018 17.2834 37H9.0534C7.86119 28.9696 2.25776 23.2364 2.06402 23.0379C2.23913 23.0906 6.03187 24.379 8.92673 30.3228C7.34704 20.1814 3.29723 15.2343 3.29723 15.2343C3.29723 15.2343 7.73078 18.2488 10.4543 27.4299C9.1838 18.6783 5.67421 11.6851 0 7.62528C0 7.62528 7.3843 9.59034 11.6614 22.4382C10.7784 11.6243 8.14806 6.18692 9.0683 0C9.0683 0 10.3052 9.41612 12.984 15.2465C13.0622 15.4167 13.133 15.5868 13.2075 15.757C13.6919 10.4574 14.6978 4.80125 16.6948 0.453787C16.6389 0.717146 14.4407 11.0692 15.4616 17.4911C15.5547 18.0867 15.6292 18.6945 15.6888 19.3063C17.1009 15.283 19.2022 13.0586 19.2878 12.9694C19.2431 13.0788 17.8311 16.5714 17.2126 21.4091C21.4115 12.8236 26.8323 11.2596 27 11.2151C22.1939 14.6549 18.9414 20.2098 17.2872 27.1463V27.1504Z" fill="url(#paint0_linear_1063_20457)"/>
<defs>
<linearGradient id="paint0_linear_1063_20457" x1="13.5" y1="0" x2="13.5" y2="37" gradientUnits="userSpaceOnUse">
<stop stop-color="#FAFAE6"/>
<stop offset="1" stop-color="#FFD285"/>
</linearGradient>
</defs>
</svg>
