<svg width="34" height="25" viewBox="0 0 34 25" fill="none" xmlns="http://www.w3.org/2000/svg">
<path d="M0 12.3165C0 12.3165 3.82401 16.7166 4.10981 25H25.7225C25.784 13.8706 33.8734 9.80003 34 9.74011C33.877 9.75509 27.1949 10.5714 23.465 16.3608C23.465 16.3608 25.7225 8.9612 27.98 3.50884C27.98 3.50884 21.96 7.40338 19.7025 16.7503C19.7025 16.7503 18.5737 4.67346 16.6925 0.77891C16.6925 0.77891 17.445 9.34692 15.5637 12.4626C15.5637 12.4626 12.5537 9.73637 11.8012 0C11.8012 0 9.91998 5.84182 10.6725 14.4098C10.6725 14.4098 8.4186 7.01393 6.15748 4.28775C6.23345 4.44128 9.51479 10.9647 7.28623 15.9714C7.28623 15.9714 6.15748 8.18229 0.513725 4.67346C0.513725 4.67346 3.2343 8.52307 4.05554 16.3309C2.32985 13.3463 0.00723267 12.3165 0.00723267 12.3165H0Z" fill="url(#paint0_linear_1063_20454)"/>
<defs>
<linearGradient id="paint0_linear_1063_20454" x1="17" y1="0" x2="17" y2="25" gradientUnits="userSpaceOnUse">
<stop stop-color="#FAFAE6"/>
<stop offset="1" stop-color="#FFD285"/>
</linearGradient>
</defs>
</svg>
