<svg width="33" height="34" viewBox="0 0 33 34" fill="none" xmlns="http://www.w3.org/2000/svg">
<path d="M23.5092 3.38662C22.4649 3.49241 21.4174 3.81618 20.4877 4.49578C20.3254 4.61439 20.1693 4.74582 20.0229 4.88367C19.8892 4.27138 19.6695 3.68154 19.3447 3.13979C18.7525 2.14923 17.9152 1.43758 16.995 0.927875C13.0884 -1.23274 8.28391 0.52396 6.66013 4.70415C6.27806 5.68829 6.08703 6.77501 6.26532 7.91623C6.36084 8.54133 6.56779 9.13438 6.85753 9.69217C6.65694 9.68255 6.45636 9.68255 6.25577 9.69538C5.10957 9.77552 4.10028 10.2019 3.23108 10.7949C-0.455852 13.3146 -1.09263 18.4212 1.8652 21.7775C2.56247 22.5693 3.43485 23.2329 4.52692 23.5951C5.36747 23.874 6.25259 23.9317 7.13134 23.826C6.90528 24.3645 6.74927 24.9287 6.69196 25.5153C6.57734 26.6662 6.82569 27.7401 7.26188 28.7018C9.11172 32.7858 14.0053 34.27 17.7878 31.8978C18.6793 31.3368 19.4753 30.5803 20.0133 29.5609C20.3667 28.8877 20.5673 28.1536 20.6469 27.3971C21.1882 27.926 21.809 28.3588 22.5095 28.6473C23.5729 29.0865 24.665 29.1506 25.7061 29.0063C30.119 28.3844 32.9303 24.0856 31.7491 19.758C31.4721 18.7386 30.9786 17.7544 30.1572 16.9434C29.7433 16.5363 29.2721 16.2029 28.7626 15.94C29.53 15.4463 30.1922 14.818 30.6698 14.0455C31.2779 13.0645 31.5231 11.9906 31.5549 10.9328C31.6854 6.44803 27.9444 2.94103 23.5124 3.38662H23.5092Z" fill="url(#paint0_radial_1063_19963)"/>
<path d="M16.7211 20.6292C19.0474 20.6292 20.9333 18.7304 20.9333 16.3881C20.9333 14.0458 19.0474 12.147 16.7211 12.147C14.3947 12.147 12.5088 14.0458 12.5088 16.3881C12.5088 18.7304 14.3947 20.6292 16.7211 20.6292Z" fill="#FDEB79"/>
<defs>
<radialGradient id="paint0_radial_1063_19963" cx="0" cy="0" r="1" gradientTransform="matrix(15.1107 -5.51946 5.48195 15.2141 19.8553 13.8009)" gradientUnits="userSpaceOnUse">
<stop offset="0.03" stop-color="#F6ACD2"/>
<stop offset="0.41" stop-color="#F59DC7"/>
<stop offset="0.97" stop-color="#F481B4"/>
</radialGradient>
</defs>
</svg>
