<svg width="47" height="49" viewBox="0 0 47 49" fill="none" xmlns="http://www.w3.org/2000/svg">
<path d="M34.2572 4.93492C32.7354 5.08907 31.209 5.56086 29.8543 6.55116C29.6177 6.724 29.3904 6.91552 29.1769 7.11638C28.9821 6.22418 28.662 5.36467 28.1887 4.57523C27.3258 3.13182 26.1056 2.09481 24.7648 1.35208C19.0721 -1.79633 12.0711 0.763505 9.705 6.85479C9.14826 8.28886 8.86989 9.87241 9.12971 11.5354C9.26889 12.4463 9.57046 13.3104 9.99265 14.1232C9.70036 14.1092 9.40807 14.1092 9.11579 14.1279C7.44557 14.2447 5.97485 14.866 4.70827 15.7301C-0.664259 19.4017 -1.59216 26.843 2.71793 31.7338C3.73398 32.8876 5.0052 33.8545 6.59654 34.3824C7.82137 34.7888 9.11115 34.8729 10.3916 34.7187C10.0622 35.5035 9.83491 36.3256 9.7514 37.1805C9.58437 38.8574 9.94626 40.4223 10.5819 41.8237C13.2774 47.7748 20.4083 49.9376 25.92 46.4809C27.2191 45.6634 28.379 44.561 29.163 43.0755C29.678 42.0946 29.9703 41.0249 30.0863 39.9225C30.875 40.6932 31.7797 41.3238 32.8004 41.7442C34.35 42.3842 35.9413 42.4776 37.4584 42.2674C43.8888 41.3612 47.9854 35.0971 46.2642 28.7909C45.8605 27.3055 45.1414 25.8714 43.9444 24.6896C43.3413 24.0963 42.6547 23.6105 41.9123 23.2275C43.0305 22.5081 43.9955 21.5925 44.6914 20.4668C45.5775 19.0374 45.9348 17.4725 45.9812 15.931C46.1714 9.39594 40.72 4.28561 34.2618 4.93492H34.2572Z" fill="url(#paint0_linear_1063_19941)"/>
<path d="M24.3646 30.0608C27.7546 30.0608 30.5027 27.2939 30.5027 23.8807C30.5027 20.4676 27.7546 17.7007 24.3646 17.7007C20.9747 17.7007 18.2266 20.4676 18.2266 23.8807C18.2266 27.2939 20.9747 30.0608 24.3646 30.0608Z" fill="#FDEB79"/>
<defs>
<linearGradient id="paint0_linear_1063_19941" x1="23.3291" y1="0" x2="23.3291" y2="48.1334" gradientUnits="userSpaceOnUse">
<stop stop-color="#80A7DA"/>
<stop offset="0.649038" stop-color="#6C74AC"/>
<stop offset="1" stop-color="#985AA9"/>
</linearGradient>
</defs>
</svg>
