<svg width="130" height="64" viewBox="0 0 130 64" fill="none" xmlns="http://www.w3.org/2000/svg">
<path d="M2.48168 52.2356C4.28168 50.0956 6.98167 48.5256 9.89167 47.7256C10.6217 47.5256 17.6717 46.4556 17.7717 47.4756C17.4717 44.1956 17.1717 40.8557 18.0317 37.6557C19.9017 30.7357 29.4317 26.1156 35.9317 32.1456C36.2517 26.7456 37.1217 21.3957 42.4617 17.7457C47.7117 14.1557 53.8317 14.8456 59.3017 17.3556C60.4317 13.0556 60.0917 8.80566 63.1317 4.90566C66.0417 1.17566 71.8817 -1.19434 76.6517 0.62566C81.5317 2.48566 83.3117 7.55563 84.5417 12.0356C89.0317 10.3756 94.3617 10.4957 98.7317 12.3757C107.662 16.2157 113.512 27.2057 110.642 35.3457C110.412 35.9857 110.142 36.6457 109.832 37.3057C114.682 35.7257 120.252 39.1356 121.772 43.4156C123.302 47.7156 121.512 51.5856 120.142 55.6656C122.682 56.6856 125.212 57.3357 127.032 59.4757C128.152 60.7957 128.862 62.3456 129.222 63.9556H0.861668C-0.738332 60.1756 -0.058331 55.2657 2.47167 52.2457L2.48168 52.2356Z" fill="url(#paint0_linear_772_7232)"/>
<defs>
<linearGradient id="paint0_linear_772_7232" x1="64.6108" y1="0" x2="64.6108" y2="63.9556" gradientUnits="userSpaceOnUse">
<stop stop-color="#FDEB79"/>
<stop offset="0.75" stop-color="#40C3A3"/>
<stop offset="1" stop-color="#209975"/>
</linearGradient>
</defs>
</svg>
