<svg width="176" height="51" viewBox="0 0 176 51" fill="none" xmlns="http://www.w3.org/2000/svg">
<path d="M80.166 2.65039C81.7357 0.635414 84.886 -0.645133 87.459 0.337891C90.0913 1.3427 91.0514 4.08176 91.7148 6.50195C94.1367 5.60522 97.012 5.67006 99.3691 6.68555C104.186 8.76002 107.342 14.6973 105.794 19.0947C105.793 19.0964 105.793 19.098 105.792 19.0996C108.552 17.3942 111.719 17.7878 114.561 19.0938C115.17 16.7709 114.986 14.4749 116.626 12.3682C118.196 10.3532 121.346 9.07264 123.919 10.0557C126.551 11.0605 127.511 13.7995 128.175 16.2197C130.597 15.323 133.472 15.3878 135.829 16.4033C140.646 18.4778 143.802 24.4151 142.254 28.8125C142.13 29.1581 141.985 29.5147 141.817 29.8711C144.433 29.0179 147.438 30.8599 148.258 33.1719C149.083 35.4949 148.117 37.5859 147.378 39.79C148.748 40.341 150.113 40.6918 151.095 41.8477C151.272 42.0565 151.428 42.278 151.567 42.5059C151.66 41.2018 151.921 39.9267 153.233 39.0439C154.584 38.1349 156.158 38.3088 157.565 38.9443C157.856 37.8556 157.769 36.7795 158.551 35.792C159.299 34.8475 160.802 34.2471 162.029 34.708C163.285 35.1791 163.742 36.4633 164.059 37.5977C165.214 37.1773 166.585 37.2076 167.709 37.6836C170.006 38.6559 171.511 41.4387 170.773 43.5C170.714 43.6621 170.644 43.8299 170.564 43.9971C171.812 43.597 173.246 44.4601 173.637 45.5439C174.03 46.6328 173.569 47.6133 173.217 48.6465C173.87 48.9048 174.521 49.0694 174.989 49.6113C175.277 49.9455 175.46 50.3376 175.553 50.7451H0.464844C-0.398186 48.7031 -0.0315834 46.0504 1.33301 44.4189L1.33887 44.4131C2.30981 43.2572 3.76639 42.4087 5.33594 41.9766C5.73148 41.8683 9.53118 41.2912 9.58594 41.8418C9.42412 40.07 9.26273 38.2657 9.72656 36.5371C10.7353 32.7987 15.8756 30.303 19.3818 33.5605C19.5544 30.6434 20.024 27.7531 22.9043 25.7812C25.7362 23.8418 29.0377 24.2143 31.9883 25.5703C32.5978 23.2475 32.4142 20.9515 34.0537 18.8447C35.6233 16.8297 38.7737 15.5492 41.3467 16.5322C43.979 17.537 44.9391 20.2761 45.6025 22.6963C48.0244 21.7996 50.8997 21.8644 53.2568 22.8799C54.0876 23.2377 54.8677 23.7126 55.584 24.2725C55.4948 22.9504 55.4946 21.6257 55.8389 20.3428C56.8476 16.6044 61.988 14.1086 65.4941 17.3662C65.6668 14.449 66.1363 11.5587 69.0166 9.58691C71.8485 7.6475 75.15 8.02001 78.1006 9.37598C78.7101 7.05313 78.5265 4.75718 80.166 2.65039Z" fill="url(#paint0_linear_1063_20299)"/>
<defs>
<linearGradient id="paint0_linear_1063_20299" x1="87.7764" y1="0" x2="87.7764" y2="50.7451" gradientUnits="userSpaceOnUse">
<stop stop-color="#FDEB79"/>
<stop offset="0.75" stop-color="#40C3A3"/>
<stop offset="1" stop-color="#209975"/>
</linearGradient>
</defs>
</svg>
