<svg width="204" height="65" viewBox="0 0 204 65" fill="none" xmlns="http://www.w3.org/2000/svg">
<path fill-rule="evenodd" clip-rule="evenodd" d="M94.0494 3.01641C92.2253 0.72301 88.5641 -0.73427 85.5739 0.384573C82.5147 1.5282 81.3986 4.64563 80.6276 7.4002C77.8129 6.37955 74.4715 6.45337 71.7321 7.60918C66.1339 9.97029 62.4662 16.7281 64.2653 21.7332C64.4094 22.1267 64.5788 22.5325 64.7731 22.9383C61.7327 21.9669 58.2406 24.0635 57.2877 26.6951C56.5706 28.6719 57.0182 30.5008 57.6481 32.3465C57.4658 32.1337 57.248 31.934 56.986 31.7518C55.6931 30.8525 54.1856 31.0254 52.8385 31.6541C52.5603 30.5771 52.6437 29.5128 51.8952 28.5359C51.1785 27.6016 49.7408 27.008 48.5661 27.4637C47.3642 27.9296 46.9256 29.1998 46.6227 30.3221C45.5169 29.9062 44.2038 29.9361 43.1276 30.407C40.9284 31.3691 39.4882 34.1219 40.195 36.1609C40.2516 36.3212 40.3179 36.4869 40.3942 36.6521C39.4997 36.3558 38.5059 36.7603 37.9059 37.4324C37.5546 35.4878 37.4479 33.5816 36.067 31.8074C34.4789 29.7688 31.2912 28.4738 28.6881 29.4686C26.0253 30.4853 25.0537 33.2565 24.3825 35.7049C21.9323 34.7977 19.024 34.8631 16.6393 35.8904C11.7659 37.9892 8.57306 43.9962 10.1393 48.4451C10.2648 48.7948 10.4126 49.1558 10.5817 49.5164C7.93491 48.6529 4.89459 50.516 4.06508 52.8553C3.23012 55.2054 4.20708 57.3207 4.95473 59.5506C3.56873 60.108 2.18814 60.4633 1.19496 61.6326C0.58374 62.3541 0.196106 63.2019 -0.000351119 64.0818H156.843C156.844 64.0805 156.845 64.0793 156.845 64.0779H203.25C203.912 62.5285 203.63 60.5161 202.583 59.2781L202.579 59.2732C201.833 58.3961 200.715 57.7525 199.509 57.4246C199.207 57.3427 196.289 56.9046 196.246 57.3221C196.37 55.9777 196.494 54.6083 196.137 53.2967C195.362 50.4603 191.415 48.5672 188.723 51.0389C188.591 48.8254 188.231 46.6317 186.019 45.1355C183.845 43.6639 181.309 43.9465 179.044 44.9754C178.576 43.2129 178.717 41.4704 177.458 39.8719C176.252 38.343 173.833 37.3719 171.857 38.118C169.836 38.8805 169.099 40.9585 168.589 42.7947C166.73 42.1143 164.522 42.1637 162.712 42.9344C160.405 43.9162 158.595 46.0382 157.847 48.3055C157.018 48.2555 156.32 48.287 156.297 48.5223C156.46 46.7296 156.624 44.904 156.155 43.1551C155.134 39.373 149.934 36.8479 146.386 40.1434C146.212 37.1921 145.737 34.2681 142.823 32.2732C139.958 30.3111 136.618 30.6885 133.632 32.0604C133.016 29.7103 133.201 27.3871 131.543 25.2557C129.955 23.217 126.767 21.9211 124.164 22.9158C123.515 23.1635 122.968 23.5164 122.5 23.9422C122.452 23.678 122.394 23.4146 122.322 23.1531C121.149 18.8984 115.175 16.0579 111.1 19.7654C110.9 16.4452 110.355 13.1552 107.007 10.9109C103.716 8.70354 99.8789 9.12835 96.4498 10.6717C95.7415 8.02777 95.9551 5.41438 94.0494 3.01641Z" fill="url(#paint0_linear_1063_20395)"/>
<defs>
<linearGradient id="paint0_linear_1063_20395" x1="101.803" y1="0" x2="101.803" y2="64.0819" gradientUnits="userSpaceOnUse">
<stop stop-color="#FDEB79"/>
<stop offset="0.75" stop-color="#40C3A3"/>
<stop offset="1" stop-color="#209975"/>
</linearGradient>
</defs>
</svg>
