<svg width="232" height="68" viewBox="0 0 232 68" fill="none" xmlns="http://www.w3.org/2000/svg">
<path fill-rule="evenodd" clip-rule="evenodd" d="M144.66 3.05257C146.469 0.73117 150.098 -0.743238 153.063 0.389481C156.095 1.5472 157.202 4.70279 157.966 7.49104C160.756 6.45789 164.068 6.53191 166.784 7.70198C168.3 8.35465 169.671 9.34142 170.829 10.5311C171.106 9.53171 171.522 8.55362 172.257 7.60921C174.065 5.28781 177.695 3.8134 180.659 4.94612C183.692 6.10384 184.798 9.25943 185.563 12.0477C188.353 11.0145 191.665 11.0886 194.381 12.2586C199.931 14.6486 203.566 21.4892 201.782 26.5555C201.639 26.9537 201.472 27.3645 201.279 27.7752C204.293 26.7921 207.755 28.9142 208.699 31.578C209.117 32.7528 209.135 33.8759 208.954 34.9813C210.327 35.0603 211.681 35.3629 212.912 35.8934C218.462 38.2834 222.097 45.124 220.314 50.1903C220.171 50.5885 220.003 50.9993 219.811 51.41C222.825 50.4268 226.286 52.549 227.231 55.2127C228.181 57.8889 227.069 60.2975 226.218 62.8367C227.796 63.4715 229.368 63.8769 230.499 65.2088C231.195 66.0304 231.637 66.9949 231.86 67.9969H53.251C53.2506 67.996 53.2505 67.9949 53.2501 67.994H0.406315C-0.348363 66.2295 -0.0272533 63.9369 1.16608 62.5272L1.17096 62.5233C2.01998 61.5243 3.29352 60.7912 4.66608 60.4178C5.01236 60.3242 8.33421 59.8252 8.38288 60.3006C8.24139 58.7696 8.09934 57.2103 8.50495 55.7166C9.38721 52.4866 13.8825 50.3306 16.9483 53.1453C17.0992 50.6246 17.5096 48.1265 20.0284 46.4227C22.5045 44.7472 25.3909 45.0695 27.9708 46.241C28.5037 44.2339 28.3437 42.25 29.7774 40.4295C31.1499 38.6884 33.9045 37.582 36.1544 38.4315C38.4561 39.2997 39.2959 41.6664 39.876 43.7576C41.9939 42.9828 44.5082 43.0392 46.5694 43.9168C49.1959 45.0348 51.2569 47.4504 52.1085 50.0321C53.0535 49.9751 53.8488 50.0112 53.8751 50.2791C53.6886 48.2377 53.5027 46.1585 54.0372 44.1668C55.1994 39.8599 61.1218 36.9842 65.1612 40.7371C65.3601 37.3764 65.9006 34.0469 69.2188 31.7752C72.4815 29.5408 76.2853 29.9699 79.6846 31.5321C80.3868 28.8559 80.1753 26.2103 82.0645 23.783C83.873 21.4616 87.5026 19.9872 90.4669 21.1199C93.4994 22.2777 94.6058 25.4333 95.3702 28.2215C98.1605 27.1884 101.473 27.2624 104.189 28.4324C105.719 29.0915 107.102 30.0905 108.268 31.2957C109.228 30.578 110.372 30.0348 111.574 29.7039C112.029 29.5793 116.409 28.9139 116.471 29.5487C116.284 27.5072 116.098 25.428 116.633 23.4364C117.795 19.1295 123.717 16.2538 127.757 20.0067C127.956 16.646 128.496 13.3164 131.815 11.0448C135.077 8.81036 138.881 9.23938 142.28 10.8016C142.982 8.12538 142.771 5.47983 144.66 3.05257Z" fill="url(#paint0_linear_1063_20014)"/>
<defs>
<linearGradient id="paint0_linear_1063_20014" x1="115.93" y1="0" x2="115.93" y2="67.9968" gradientUnits="userSpaceOnUse">
<stop stop-color="#FDEB79"/>
<stop offset="0.75" stop-color="#40C3A3"/>
<stop offset="1" stop-color="#209975"/>
</linearGradient>
</defs>
</svg>
