<svg width="51" height="66" viewBox="0 0 51 66" fill="none" xmlns="http://www.w3.org/2000/svg">
<path d="M17.7219 2.73923C20.8987 -0.984969 27.8318 -1.10426 30.1385 3.57429C30.6384 6.94806 33.008 10.0609 32.6489 13.4887C32.1675 15.9324 29.7238 16.7749 27.9355 17.9622C29.6923 20.3649 32.3471 22.7526 29.1036 25.3771C27.7689 26.4377 26.534 27.625 25.2418 28.7415C24.8308 28.4452 24.418 28.1506 24.007 27.8636C24.3865 31.9662 24.3939 36.1489 23.6775 40.2124C21.3115 38.4994 19.338 36.2402 17.6404 33.832C19.1548 32.9149 20.3748 31.476 20.7672 29.6642C20.5636 29.5393 20.1489 29.2895 19.9434 29.1609C18.3124 32.8982 14.5895 34.7118 11.3145 36.5068C13.5176 36.6895 15.3485 35.3083 17.122 34.1712C19.3603 37.3064 23.7423 39.9365 23.2813 44.3038C21.0949 43.629 19.0492 45.7371 16.7888 44.9505C12.8696 44.3559 10.7499 40.0614 11.2516 36.2402C5.17377 37.1182 -0.391225 31.3455 0.021614 25.0993C0.0808555 20.4655 3.51316 16.2231 7.97108 15.5763C5.41629 9.12703 10.8628 1.18655 17.7219 2.73923Z" fill="url(#paint0_linear_1063_19926)"/>
<path d="M30.1386 3.57613C33.9856 0.899476 39.4377 1.30768 42.8533 4.56403C47.2206 8.29755 47.4131 15.5353 44.1159 20.0741C48.3776 21.7945 51.5378 26.46 50.7158 31.297C50.1289 36.7491 44.2363 41.4332 39.1174 38.8516C37.0588 43.629 31.4938 44.382 27.3025 42.4155C25.2716 37.7594 30.3719 36.1377 31.9659 32.639C30.0072 33.6922 28.6224 35.504 27.0488 37.0473C26.1528 32.8963 25.2882 28.1413 29.1075 25.3789C32.3509 22.7544 29.6943 20.3667 27.9393 17.9641C29.7277 16.7767 32.1714 15.9342 32.6527 13.4906C33.0119 10.0646 30.6422 6.95177 30.1423 3.57613H30.1386Z" fill="url(#paint1_linear_1063_19926)"/>
<path d="M11.3145 36.5085C14.5894 34.7135 18.3124 32.8998 19.9433 29.1626C20.147 29.2893 20.5617 29.541 20.7672 29.6659C20.3747 31.4776 19.1547 32.9166 17.6403 33.8337C17.5089 33.9194 17.2516 34.0891 17.122 34.1729C15.3503 35.3118 13.5175 36.693 11.3145 36.5085Z" fill="url(#paint2_linear_1063_19926)"/>
<path d="M25.2418 28.7414C26.534 27.6249 27.7688 26.4375 29.1036 25.377C25.2862 28.1412 26.1489 32.8962 27.0449 37.0454C28.6185 35.502 30.0051 33.6902 31.962 32.6371C30.368 36.1358 25.2677 37.7574 27.2985 42.4136C27.8484 50.2776 28.1224 58.1808 29.3479 65.9797C26.7302 66.0281 24.1162 65.9797 21.4984 65.9405C22.4704 58.768 23.2646 51.5526 23.2794 44.3018C23.7422 39.9364 19.3583 37.3063 17.1201 34.1693C17.2497 34.0835 17.507 33.9139 17.6385 33.83C19.3361 36.2383 21.3096 38.4955 23.6756 40.2104C24.392 36.1469 24.3865 31.9642 24.0051 27.8616C24.4161 28.1487 24.8289 28.4432 25.2399 28.7395L25.2418 28.7414Z" fill="#734933"/>
<defs>
<linearGradient id="paint0_linear_1063_19926" x1="-0.000601534" y1="22.5643" x2="32.6859" y2="22.5643" gradientUnits="userSpaceOnUse">
<stop stop-color="#FAFAE6"/>
<stop offset="0.14" stop-color="#F9EAE2"/>
<stop offset="0.49" stop-color="#F7C8D9"/>
<stop offset="0.77" stop-color="#F6B3D3"/>
<stop offset="0.97" stop-color="#F6ACD2"/>
</linearGradient>
<linearGradient id="paint1_linear_1063_19926" x1="26.2787" y1="22.6202" x2="50.8454" y2="22.6202" gradientUnits="userSpaceOnUse">
<stop stop-color="#FAFAE6"/>
<stop offset="0.14" stop-color="#F9EAE2"/>
<stop offset="0.49" stop-color="#F7C8D9"/>
<stop offset="0.77" stop-color="#F6B3D3"/>
<stop offset="0.97" stop-color="#F6ACD2"/>
</linearGradient>
<linearGradient id="paint2_linear_1063_19926" x1="11.3145" y1="32.8439" x2="20.7672" y2="32.8439" gradientUnits="userSpaceOnUse">
<stop offset="0.1" stop-color="#5A7EAD"/>
<stop offset="0.17" stop-color="#607DAD"/>
<stop offset="0.7" stop-color="#9378B2"/>
<stop offset="0.97" stop-color="#A776B4"/>
</linearGradient>
</defs>
</svg>
