<svg width="271" height="183" viewBox="0 0 271 183" fill="none" xmlns="http://www.w3.org/2000/svg">
<g opacity="0.6" filter="url(#filter0_f_881_10874)">
<path d="M140.35 10C124.61 10 111.095 19.5529 105.248 33.1939C104.425 33.1409 103.596 33.1119 102.761 33.1119C85.0014 33.1119 70.0748 45.2716 65.7979 61.7441C60.5302 58.995 54.5441 57.4403 48.1956 57.4403C27.1008 57.4403 10 74.5955 10 95.7575C10 116.919 27.1008 134.075 48.1956 134.075C49.4805 134.075 50.7504 134.009 52.0027 133.885C55.5622 151.348 70.9628 164.485 89.4227 164.485C97.111 164.485 104.267 162.204 110.26 158.283C117.252 167.241 128.13 173 140.35 173C153.066 173 164.328 166.766 171.271 157.179C177.57 161.773 185.32 164.485 193.703 164.485C210.098 164.485 224.08 154.122 229.496 139.569C247.4 136.395 261 120.711 261 101.84C261 80.6776 243.899 63.5224 222.804 63.5224C220.703 63.5224 218.642 63.695 216.633 64.0225C213.193 46.4051 197.721 33.1119 179.152 33.1119C177.918 33.1119 176.698 33.173 175.494 33.2878C169.669 19.5965 156.127 10 140.35 10Z" fill="white"/>
</g>
<defs>
<filter id="filter0_f_881_10874" x="0" y="0" width="271" height="183" filterUnits="userSpaceOnUse" color-interpolation-filters="sRGB">
<feFlood flood-opacity="0" result="BackgroundImageFix"/>
<feBlend mode="normal" in="SourceGraphic" in2="BackgroundImageFix" result="shape"/>
<feGaussianBlur stdDeviation="5" result="effect1_foregroundBlur_881_10874"/>
</filter>
</defs>
</svg>
