<svg width="105" height="87" viewBox="0 0 105 87" fill="none" xmlns="http://www.w3.org/2000/svg">
<g clip-path="url(#clip0_895_15014)">
<path d="M58.7562 73.769C75.2137 69.3592 84.9819 52.4489 80.5741 35.9987C76.1663 19.5484 59.2516 9.78775 42.7941 14.1975C26.3366 18.6073 16.5684 35.5177 20.9762 51.9679C25.384 68.4181 42.2987 78.1788 58.7562 73.769Z" stroke="#B0B0B0" stroke-miterlimit="10"/>
<path d="M58.3242 72.1563C73.8905 67.9853 83.1298 51.9906 78.9606 36.4312C74.7915 20.8717 58.7927 11.6396 43.2264 15.8105C27.66 19.9815 18.4208 35.9762 22.5899 51.5357C26.7591 67.0951 42.7578 76.3273 58.3242 72.1563Z" stroke="#B0B0B0" stroke-miterlimit="10"/>
<path d="M94.138 41.6813L12.0753 63.6699L20.9768 51.968L7.41699 46.2847L89.4796 24.296L80.5782 35.9979L94.138 41.6813Z" fill="#FFF8EF" stroke="#B0B0B0" stroke-miterlimit="10"/>
<path d="M29.1689 53.636C28.628 53.7809 28.1163 53.8187 27.6339 53.7491C27.1494 53.6719 26.7369 53.4926 26.3965 53.2111C26.056 52.9296 25.8237 52.557 25.6994 52.0934L27.1135 51.7145C27.2376 52.0539 27.4495 52.3036 27.7491 52.4635C28.0564 52.6214 28.4303 52.6413 28.8707 52.5233C29.3267 52.4011 29.6531 52.1977 29.8502 51.913C30.0451 51.6205 30.096 51.3005 30.0028 50.9527C29.9304 50.6823 29.7902 50.4838 29.5824 50.3573C29.3823 50.2287 29.15 50.1501 28.8856 50.1216C28.629 50.0909 28.2775 50.0775 27.8312 50.0811C27.2685 50.0828 26.8024 50.0586 26.4328 50.0085C26.0689 49.9487 25.7307 49.7991 25.4181 49.5599C25.1055 49.3206 24.882 48.9499 24.7474 48.4476C24.6232 47.9839 24.6304 47.5472 24.769 47.1373C24.9077 46.7275 25.1608 46.3739 25.5284 46.0767C25.8959 45.7794 26.3541 45.5573 26.9027 45.4103C27.6832 45.2011 28.3735 45.2274 28.9736 45.4889C29.5794 45.7407 30.0005 46.1994 30.2368 46.8649L28.7763 47.2562C28.6745 46.9688 28.4681 46.7549 28.1572 46.6146C27.8463 46.4743 27.4822 46.46 27.0649 46.5719C26.6862 46.6733 26.403 46.8527 26.2152 47.1101C26.0274 47.3675 25.9822 47.6778 26.0795 48.0409C26.1458 48.2882 26.2741 48.4733 26.4644 48.5963C26.6603 48.7094 26.8866 48.7813 27.1433 48.8119C27.4 48.8425 27.7437 48.8581 28.1745 48.8586C28.7471 48.8625 29.2191 48.8934 29.5908 48.9512C29.9701 49.0069 30.3171 49.1583 30.6317 49.4052C30.952 49.6424 31.1805 50.016 31.3172 50.526C31.4269 50.9356 31.4184 51.352 31.2916 51.7752C31.1726 52.1964 30.9306 52.5759 30.5656 52.9139C30.2063 53.2421 29.7407 53.4828 29.1689 53.636ZM32.1905 49.3106C32.0145 48.6537 31.9917 48.0428 32.1219 47.4779C32.2577 46.9031 32.5251 46.4174 32.924 46.0206C33.3229 45.6239 33.8276 45.3437 34.4381 45.1801C35.2108 44.9731 35.898 44.9877 36.4997 45.224C37.107 45.4506 37.5907 45.88 37.9506 46.5124L36.5249 46.8944C36.3241 46.6087 36.0724 46.4111 35.7697 46.3017C35.4671 46.1923 35.1226 46.1893 34.7362 46.2929C34.1953 46.4378 33.8144 46.7469 33.5933 47.2203C33.378 47.6838 33.3624 48.2594 33.5467 48.9472C33.731 49.6349 34.0333 50.1295 34.4537 50.431C34.8817 50.7304 35.3662 50.8076 35.9071 50.6627C36.6722 50.4577 37.0882 49.986 37.1554 49.2474L38.5811 48.8654C38.5695 49.5642 38.3605 50.1751 37.9541 50.6981C37.5455 51.2134 36.9626 51.5725 36.2053 51.7755C35.5948 51.939 35.0177 51.9487 34.4738 51.8046C33.9279 51.6527 33.4535 51.3657 33.0505 50.9436C32.6532 50.5117 32.3665 49.9674 32.1905 49.3106ZM39.1345 47.4251C38.9626 46.7837 38.9418 46.1806 39.072 45.6156C39.21 45.0486 39.4707 44.5688 39.8541 44.1761C40.2432 43.7737 40.7159 43.498 41.2723 43.3489C41.7746 43.2143 42.2381 43.1978 42.6629 43.2993C43.0933 43.391 43.4599 43.5537 43.7626 43.7873L43.5142 42.86L44.8471 42.5028L46.5585 48.8895L45.2255 49.2467L44.9708 48.2962C44.8275 48.6576 44.5895 48.9906 44.257 49.295C43.9244 49.5994 43.5109 49.8179 43.0164 49.9504C42.4677 50.0974 41.9282 50.0929 41.3977 49.9369C40.8652 49.7732 40.3964 49.4764 39.9913 49.0466C39.5919 48.607 39.3063 48.0665 39.1345 47.4251ZM44.3683 46.0475C44.2503 45.6071 44.055 45.2494 43.7826 44.9746C43.5179 44.6976 43.216 44.5135 42.8768 44.4222C42.5376 44.3309 42.198 44.3308 41.858 44.4219C41.518 44.513 41.2239 44.6829 40.9758 44.9315C40.7257 45.1725 40.5513 45.4801 40.4529 45.8543C40.36 46.2188 40.3726 46.6212 40.4906 47.0617C40.6087 47.5022 40.801 47.8647 41.0678 48.1494C41.3423 48.432 41.6502 48.6228 41.9914 48.7218C42.3384 48.8111 42.678 48.8112 43.0102 48.7222C43.3502 48.6311 43.6443 48.4612 43.8924 48.2125C44.1405 47.9638 44.3099 47.6534 44.4007 47.2812C44.4971 46.8992 44.4863 46.488 44.3683 46.0475ZM49.7771 41.07C50.2794 40.9354 50.7555 40.9197 51.2055 41.0227C51.6633 41.1237 52.0591 41.3489 52.3929 41.6984C52.7267 42.0479 52.9713 42.5125 53.1266 43.092L54.136 46.8591L52.8262 47.2101L51.8696 43.64C51.7164 43.0682 51.4564 42.6699 51.0897 42.4452C50.721 42.2127 50.2894 42.1627 49.7948 42.2952C49.3003 42.4277 48.9476 42.6879 48.7368 43.0756C48.5316 43.4536 48.5056 43.9285 48.6588 44.5003L49.6154 48.0704L48.294 48.4245L46.5827 42.0378L47.9041 41.6837L48.0998 42.4139C48.2458 42.0932 48.4652 41.815 48.7581 41.5791C49.0588 41.3412 49.3985 41.1715 49.7771 41.07ZM57.3045 39.0531C57.8068 38.9185 58.283 38.9027 58.733 39.0057C59.1907 39.1067 59.5865 39.332 59.9203 39.6815C60.2541 40.031 60.4987 40.4955 60.654 41.0751L61.6634 44.8422L60.3536 45.1931L59.397 41.6231C59.2438 41.0512 58.9838 40.6529 58.6172 40.4282C58.2484 40.1957 57.8168 40.1457 57.3222 40.2782C56.8277 40.4107 56.475 40.6709 56.2642 41.0587C56.059 41.4366 56.033 41.9115 56.1863 42.4834L57.1429 46.0534L55.8215 46.4075L54.1102 40.0208L55.4316 39.6667L55.6272 40.397C55.7732 40.0763 55.9926 39.798 56.2856 39.5621C56.5862 39.3242 56.9259 39.1545 57.3045 39.0531ZM68.3048 39.4723C68.369 39.7118 68.4115 39.9323 68.4324 40.1338L63.5525 41.4413C63.7278 41.941 64.0269 42.2998 64.4497 42.5178C64.8725 42.7358 65.3312 42.7785 65.8258 42.646C66.5367 42.4555 66.9593 42.0234 67.0935 41.3498L68.5192 40.9677C68.4834 41.6068 68.2612 42.184 67.8526 42.6993C67.4497 43.2048 66.8735 43.5579 66.124 43.7588C65.5135 43.9223 64.9286 43.9341 64.3693 43.7941C63.8157 43.6443 63.3335 43.3594 62.9228 42.9394C62.5178 42.5096 62.2272 41.9662 62.0512 41.3094C61.8752 40.6526 61.8523 40.0417 61.9826 39.4767C62.1184 38.902 62.3897 38.4152 62.7963 38.0164C63.2107 37.6155 63.7308 37.3311 64.3567 37.1634C64.9595 37.0019 65.5317 36.9894 66.0735 37.1258C66.6153 37.2622 67.0817 37.5348 67.4728 37.9435C67.8618 38.3445 68.1392 38.8541 68.3048 39.4723ZM66.8137 39.4246C66.6755 38.9398 66.3971 38.5962 65.9784 38.3936C65.5597 38.1911 65.0992 38.1571 64.5969 38.2917C64.141 38.4139 63.7901 38.6653 63.5443 39.0459C63.2963 39.4187 63.2077 39.8607 63.2784 40.3719L66.8137 39.4246ZM69.1989 39.3693C69.0271 38.728 69.0062 38.1248 69.1365 37.5599C69.2744 36.9928 69.5351 36.513 69.9185 36.1204C70.3076 35.718 70.7842 35.4412 71.3483 35.29C71.7656 35.1782 72.2 35.1612 72.6515 35.239C73.1087 35.307 73.4975 35.4596 73.8178 35.6968L72.9916 32.6135L74.3246 32.2564L76.6229 40.8338L75.2899 41.1909L75.0321 40.2289C74.8986 40.596 74.6656 40.9317 74.333 41.2362C74.0082 41.5385 73.5985 41.756 73.104 41.8885C72.5476 42.0376 72.0003 42.0351 71.4621 41.8812C70.9296 41.7174 70.4608 41.4206 70.0558 40.9908C69.6564 40.5512 69.3708 40.0107 69.1989 39.3693ZM74.4327 37.9918C74.3147 37.5513 74.1195 37.1937 73.8471 36.9188C73.5824 36.6419 73.2804 36.4578 72.9412 36.3664C72.602 36.2751 72.2624 36.275 71.9224 36.3661C71.5824 36.4572 71.2884 36.6271 71.0403 36.8758C70.7901 37.1168 70.6158 37.4244 70.5173 37.7986C70.4245 38.1631 70.4371 38.5655 70.5551 39.006C70.6731 39.4464 70.8655 39.809 71.1323 40.0936C71.4067 40.3762 71.7146 40.567 72.0559 40.6661C72.4028 40.7553 72.7424 40.7555 73.0747 40.6664C73.4147 40.5753 73.7087 40.4054 73.9568 40.1567C74.2049 39.9081 74.3743 39.5976 74.4651 39.2255C74.5615 38.8435 74.5507 38.4323 74.4327 37.9918Z" fill="#B0B0B0"/>
</g>
<defs>
<clipPath id="clip0_895_15014">
<rect width="90.4819" height="64.8587" fill="white" transform="translate(0 23.4185) rotate(-15)"/>
</clipPath>
</defs>
</svg>
