<svg width="262" height="462" viewBox="0 0 262 462" fill="none" xmlns="http://www.w3.org/2000/svg">
<g filter="url(#filter0_d_1807_12457)">
<g clip-path="url(#clip0_1807_12457)">
<rect x="2" y="2" width="256" height="456" rx="12" fill="url(#paint0_linear_1807_12457)"/>
<g opacity="0.8">
<path d="M174.984 158.355C179.474 156.789 181.916 154.095 186.744 149.301C191.458 144.62 198.1 138.556 209.533 137.501C220.801 136.461 228.319 140.927 233.699 144.307C239.077 147.685 241.901 149.546 246.535 149.892C249.228 150.092 252.461 148.986 255.989 146.404C259.471 143.855 262.185 140.615 263.443 138.694L280.961 150.159C278.5 153.919 274.108 159.088 268.355 163.299C262.648 167.476 254.518 171.481 244.979 170.77C234.323 169.976 227.166 164.928 222.562 162.036C217.959 159.144 215.491 157.977 211.457 158.349C207.588 158.706 205.392 160.289 201.496 164.158C197.714 167.913 191.776 174.671 181.88 178.123L174.984 158.355Z" fill="url(#paint1_linear_1807_12457)"/>
<path d="M269.126 148.452C268.682 148.082 268.622 147.422 268.991 146.977C269.944 145.834 270.729 144.765 271.326 143.853L273.078 145C272.433 145.985 271.599 147.118 270.6 148.317C270.23 148.761 269.57 148.822 269.126 148.452Z" fill="url(#paint2_linear_1807_12457)"/>
<path d="M256.478 158.25C256.219 157.733 256.428 157.104 256.945 156.845C259.3 155.664 261.487 154.157 263.44 152.532C263.885 152.163 264.545 152.223 264.914 152.667C265.284 153.112 265.224 153.772 264.779 154.142C262.728 155.847 260.408 157.451 257.882 158.717C257.366 158.975 256.737 158.766 256.478 158.25Z" fill="url(#paint3_linear_1807_12457)"/>
<path d="M240.049 159.31C240.192 158.75 240.762 158.411 241.322 158.554C242.718 158.91 244.213 159.166 245.835 159.287C247.123 159.383 248.392 159.338 249.638 159.173C250.211 159.097 250.738 159.501 250.813 160.074C250.889 160.647 250.486 161.173 249.913 161.248C248.532 161.431 247.118 161.482 245.679 161.374C243.933 161.244 242.317 160.969 240.804 160.583C240.244 160.44 239.906 159.87 240.049 159.31Z" fill="url(#paint4_linear_1807_12457)"/>
<path d="M223.741 151.793C223.231 151.52 223.038 150.886 223.31 150.376C223.582 149.866 224.217 149.673 224.727 149.946C226.147 150.704 227.51 151.543 228.852 152.388C230.202 153.238 231.522 154.088 232.898 154.899C233.396 155.193 233.562 155.834 233.268 156.332C232.975 156.83 232.333 156.996 231.835 156.703C230.424 155.871 229.063 154.994 227.736 154.16C226.402 153.319 225.091 152.514 223.741 151.793Z" fill="url(#paint5_linear_1807_12457)"/>
<path d="M204.753 149.167C204.581 148.615 204.889 148.028 205.44 147.856C206.952 147.383 208.593 147.049 210.399 146.882C212.173 146.718 213.818 146.737 215.361 146.902C215.936 146.963 216.352 147.479 216.291 148.054C216.229 148.629 215.714 149.045 215.139 148.984C213.738 148.833 212.232 148.816 210.591 148.967C208.927 149.121 207.431 149.427 206.065 149.854C205.513 150.027 204.926 149.719 204.753 149.167Z" fill="url(#paint6_linear_1807_12457)"/>
<path d="M189.718 161.084C189.317 160.668 189.33 160.005 189.747 159.604C192.053 157.383 194.307 154.924 196.75 152.844C197.191 152.469 197.851 152.522 198.226 152.962C198.601 153.403 198.548 154.063 198.108 154.438C195.719 156.472 193.645 158.756 191.198 161.112C190.782 161.513 190.119 161.501 189.718 161.084Z" fill="url(#paint7_linear_1807_12457)"/>
<path d="M178.087 167.25C179.635 166.711 181.037 166.065 182.329 165.341C182.833 165.058 183.471 165.238 183.754 165.742C184.036 166.246 183.856 166.884 183.352 167.167C181.959 167.948 180.445 168.645 178.777 169.227L178.087 167.25Z" fill="url(#paint8_linear_1807_12457)"/>
</g>
<g opacity="0.8">
<path d="M92.1871 219.038C87.0144 222.06 84.6454 225.981 79.8355 233.075C75.1389 240.002 68.392 249.106 54.5119 253.174C40.8319 257.184 30.4572 253.48 22.9877 250.602C15.5213 247.725 11.5804 246.107 5.76765 246.8C2.3893 247.203 -1.34115 249.352 -5.07854 253.398C-8.76745 257.391 -11.3403 262.053 -12.4305 264.733L-36.8618 254.792C-34.7282 249.548 -30.5474 242.096 -24.4527 235.499C-18.4065 228.955 -9.32227 222.037 2.64349 220.61C16.0108 219.015 26.0797 223.526 32.4719 225.99C38.861 228.452 42.1955 229.299 47.0929 227.863C51.79 226.486 54.1226 223.998 58.0041 218.273C61.7722 212.715 67.4809 202.924 78.8813 196.263L92.1871 219.038Z" fill="url(#paint9_linear_1807_12457)"/>
<path d="M-21.8167 254.041C-21.178 254.391 -20.9439 255.193 -21.2939 255.832C-22.1948 257.476 -22.908 258.987 -23.4255 260.259L-25.8682 259.265C-25.3091 257.89 -24.5514 256.288 -23.6068 254.564C-23.2567 253.925 -22.4553 253.691 -21.8167 254.041Z" fill="url(#paint10_linear_1807_12457)"/>
<path d="M-8.54684 238.869C-8.10175 239.446 -8.20829 240.274 -8.78463 240.719C-11.4115 242.748 -13.7507 245.141 -15.7732 247.621C-16.2334 248.186 -17.0642 248.271 -17.6287 247.811C-18.1932 247.351 -18.2781 246.52 -17.8181 245.955C-15.6945 243.351 -13.2134 240.807 -10.3967 238.631C-9.82031 238.186 -8.99206 238.293 -8.54684 238.869Z" fill="url(#paint11_linear_1807_12457)"/>
<path d="M11.5094 233.586C11.4681 234.313 10.8451 234.87 10.118 234.829C8.30521 234.726 6.39525 234.771 4.36104 235.014C2.74572 235.207 1.18678 235.569 -0.313911 236.074C-1.00428 236.306 -1.75246 235.935 -1.98464 235.244C-2.21676 234.554 -1.84531 233.806 -1.15504 233.574C0.507639 233.015 2.24356 232.61 4.04861 232.395C6.23928 232.134 8.30382 232.084 10.2677 232.195C10.9948 232.236 11.5506 232.859 11.5094 233.586Z" fill="url(#paint12_linear_1807_12457)"/>
<path d="M33.4902 238.938C34.1864 239.152 34.578 239.889 34.3648 240.585C34.1514 241.282 33.4135 241.673 32.7172 241.46C30.7776 240.866 28.8895 240.158 27.0264 239.438C25.1514 238.713 23.3147 237.982 21.4171 237.311C20.7304 237.069 20.3702 236.315 20.6127 235.629C20.8553 234.942 21.6089 234.582 22.2957 234.824C24.241 235.512 26.1358 236.266 27.9775 236.978C29.8311 237.694 31.6458 238.373 33.4902 238.938Z" fill="url(#paint13_linear_1807_12457)"/>
<path d="M57.6007 237.594C57.9473 238.234 57.7088 239.035 57.0682 239.382C55.3134 240.331 53.3649 241.141 51.1726 241.784C49.0187 242.415 46.9808 242.791 45.0325 242.959C44.307 243.022 43.6676 242.485 43.6047 241.76C43.5419 241.034 44.0789 240.395 44.8044 240.332C46.5727 240.179 48.4389 239.836 50.4308 239.252C52.4511 238.66 54.2271 237.92 55.813 237.061C56.4536 236.715 57.2541 236.953 57.6007 237.594Z" fill="url(#paint14_linear_1807_12457)"/>
<path d="M73.309 219.225C73.9053 219.643 74.0497 220.465 73.6318 221.061C71.3169 224.366 69.1247 227.95 66.6067 231.113C66.1531 231.683 65.3232 231.777 64.7534 231.324C64.1836 230.87 64.0896 230.04 64.5432 229.47C67.0045 226.379 69.0171 223.052 71.4721 219.548C71.8901 218.952 72.7125 218.807 73.309 219.225Z" fill="url(#paint15_linear_1807_12457)"/>
<path d="M86.1987 208.789C84.416 209.83 82.8383 210.968 81.4163 212.176C80.8611 212.647 80.0288 212.579 79.5575 212.024C79.0861 211.469 79.1545 210.637 79.7096 210.165C81.2437 208.863 82.9464 207.634 84.8682 206.511L86.1987 208.789Z" fill="url(#paint16_linear_1807_12457)"/>
</g>
<rect x="62.5" y="130.644" width="136" height="136" rx="68" fill="url(#paint17_linear_1807_12457)"/>
<rect x="20.5" y="308.644" width="96" height="96" rx="48" fill="url(#paint18_linear_1807_12457)"/>
<rect x="144.5" y="308.644" width="96" height="96" rx="48" fill="url(#paint19_linear_1807_12457)"/>
<path d="M235.179 387.824C235.179 387.824 231.496 392.048 231.221 400H210.406C210.347 389.316 202.557 385.408 202.435 385.351C202.553 385.365 208.988 386.149 212.58 391.706C212.58 391.706 210.406 384.603 208.232 379.368C208.232 379.368 214.03 383.107 216.204 392.08C216.204 392.08 217.291 380.487 219.103 376.748C219.103 376.748 218.378 384.973 220.19 387.964C220.19 387.964 223.089 385.347 223.813 376C223.813 376 225.625 381.608 224.9 389.833C224.9 389.833 227.071 382.733 229.249 380.116C229.176 380.264 226.015 386.526 228.162 391.333C228.162 391.333 229.249 383.855 234.684 380.487C234.684 380.487 232.064 384.182 231.273 391.678C232.935 388.812 235.172 387.824 235.172 387.824H235.179Z" fill="url(#paint20_linear_1807_12457)"/>
<path d="M17.7604 393.968C18.3962 393.232 19.3498 392.692 20.3777 392.417C20.6356 392.348 23.1257 391.98 23.1611 392.331C23.0551 391.203 22.9491 390.054 23.2529 388.953C23.9134 386.573 27.2796 384.983 29.5755 387.058C29.6885 385.2 29.9958 383.36 31.882 382.104C33.7364 380.869 35.8981 381.107 37.8302 381.97C38.2293 380.491 38.1092 379.029 39.183 377.687C40.2109 376.404 42.2737 375.589 43.9585 376.215C45.6822 376.855 46.311 378.599 46.7454 380.14C48.3314 379.569 50.214 379.61 51.7576 380.257C54.9118 381.578 56.9781 385.358 55.9644 388.158C55.8832 388.379 55.7878 388.606 55.6783 388.833C57.3914 388.289 59.3588 389.462 59.8957 390.934C60.4362 392.414 59.8039 393.745 59.32 395.148C60.2172 395.499 61.1108 395.723 61.7537 396.459C62.1493 396.913 62.4 397.446 62.5272 398H17.1881C16.623 396.7 16.8632 395.011 17.7568 393.972L17.7604 393.968Z" fill="url(#paint21_linear_1807_12457)"/>
<path d="M113.61 316.786C113.059 316.842 112.508 317.012 112.018 317.371C111.932 317.433 111.85 317.503 111.773 317.575C111.702 317.252 111.587 316.941 111.416 316.656C111.104 316.133 110.662 315.758 110.178 315.489C108.12 314.35 105.589 315.276 104.733 317.481C104.532 318 104.431 318.573 104.525 319.174C104.576 319.504 104.685 319.817 104.837 320.111C104.732 320.106 104.626 320.106 104.52 320.113C103.916 320.155 103.385 320.38 102.927 320.692C100.984 322.021 100.649 324.714 102.207 326.484C102.575 326.901 103.034 327.251 103.609 327.442C104.052 327.589 104.519 327.62 104.981 327.564C104.862 327.848 104.78 328.145 104.75 328.455C104.69 329.062 104.82 329.628 105.05 330.135C106.025 332.289 108.603 333.071 110.595 331.82C111.065 331.524 111.484 331.126 111.768 330.588C111.954 330.233 112.06 329.846 112.102 329.447C112.387 329.726 112.714 329.954 113.083 330.106C113.643 330.338 114.218 330.372 114.767 330.296C117.092 329.968 118.573 327.701 117.95 325.419C117.804 324.881 117.544 324.362 117.112 323.935C116.894 323.72 116.645 323.544 116.377 323.405C116.781 323.145 117.13 322.814 117.382 322.406C117.702 321.889 117.831 321.323 117.848 320.765C117.917 318.4 115.946 316.551 113.611 316.786H113.61Z" fill="url(#paint22_radial_1807_12457)"/>
<path d="M110.034 325.879C111.259 325.879 112.253 324.877 112.253 323.642C112.253 322.407 111.259 321.406 110.034 321.406C108.808 321.406 107.814 322.407 107.814 323.642C107.814 324.877 108.808 325.879 110.034 325.879Z" fill="#FDEB79"/>
<path d="M145.941 349.571C145.656 349.343 145.318 349.168 144.924 349.111C144.855 349.101 144.784 349.095 144.715 349.094C144.829 348.909 144.915 348.709 144.965 348.495C145.055 348.104 145.018 347.723 144.911 347.372C144.458 345.882 142.841 345.149 141.434 345.794C141.102 345.946 140.794 346.17 140.564 346.497C140.438 346.676 140.347 346.874 140.285 347.084C140.238 347.032 140.188 346.983 140.135 346.938C139.831 346.678 139.477 346.539 139.119 346.475C137.597 346.204 136.212 347.32 136.142 348.876C136.126 349.243 136.184 349.621 136.368 349.977C136.51 350.251 136.717 350.481 136.961 350.669C136.775 350.748 136.601 350.85 136.446 350.982C136.141 351.241 135.945 351.569 135.823 351.914C135.303 353.382 136.164 354.944 137.674 355.275C138.03 355.352 138.41 355.358 138.789 355.235C139.038 355.154 139.264 355.02 139.466 354.851C139.473 355.114 139.524 355.373 139.629 355.616C139.788 355.984 140.044 356.266 140.338 356.484C141.585 357.404 143.316 357.019 144.061 355.654C144.237 355.333 144.35 354.967 144.341 354.565C144.336 354.363 144.298 354.165 144.235 353.976C144.544 354.04 144.86 354.045 145.164 353.969C145.551 353.873 145.87 353.665 146.131 353.41C147.24 352.325 147.152 350.541 145.942 349.572L145.941 349.571Z" fill="url(#paint23_radial_1807_12457)"/>
<path d="M140.114 352.21C140.693 352.777 141.618 352.764 142.18 352.181C142.742 351.598 142.729 350.665 142.15 350.099C141.572 349.532 140.647 349.545 140.084 350.128C139.522 350.711 139.535 351.643 140.114 352.21Z" fill="#FDEB79"/>
<path d="M242.68 410.975C244.026 409.245 246.728 408.145 248.935 408.989C251.194 409.852 252.018 412.204 252.587 414.283C254.664 413.513 257.131 413.568 259.153 414.44C260.281 414.926 261.302 415.661 262.165 416.547C262.371 415.802 262.681 415.073 263.228 414.37C264.575 412.64 267.277 411.54 269.484 412.384C271.742 413.247 272.566 415.599 273.136 417.677C275.213 416.907 277.68 416.963 279.702 417.835C283.834 419.617 286.541 424.715 285.214 428.491C285.107 428.788 284.982 429.095 284.839 429.401C287.083 428.668 289.661 430.249 290.364 432.235C290.675 433.11 290.689 433.947 290.555 434.771C291.576 434.83 292.585 435.056 293.502 435.452C297.634 437.233 300.342 442.332 299.014 446.108C298.907 446.405 298.782 446.711 298.639 447.017C300.883 446.284 303.461 447.866 304.164 449.852C304.872 451.847 304.044 453.642 303.41 455.535C304.585 456.008 305.756 456.31 306.599 457.302C307.117 457.914 307.445 458.634 307.611 459.38H174.613L174.612 459.378H135.264C134.702 458.063 134.94 456.355 135.829 455.304L135.833 455.3C136.465 454.556 137.414 454.009 138.435 453.731C138.694 453.661 141.167 453.29 141.203 453.644C141.098 452.503 140.992 451.341 141.294 450.228C141.951 447.82 145.298 446.212 147.581 448.31C147.693 446.431 147.999 444.57 149.874 443.3C151.718 442.051 153.868 442.291 155.789 443.164C156.186 441.668 156.066 440.189 157.134 438.832C158.156 437.535 160.207 436.711 161.883 437.344C163.597 437.991 164.222 439.755 164.654 441.314C166.231 440.736 168.103 440.778 169.638 441.432C171.594 442.265 173.129 444.066 173.763 445.991C174.466 445.948 175.058 445.975 175.078 446.174C174.939 444.653 174.8 443.104 175.198 441.62C176.063 438.409 180.473 436.266 183.481 439.063C183.629 436.558 184.032 434.076 186.503 432.383C188.932 430.718 191.765 431.037 194.296 432.202C194.819 430.207 194.662 428.235 196.068 426.426C197.415 424.696 200.118 423.597 202.325 424.441C204.583 425.304 205.407 427.656 205.976 429.734C208.054 428.964 210.521 429.02 212.543 429.892C213.682 430.383 214.712 431.128 215.58 432.026C216.295 431.491 217.147 431.086 218.042 430.839C218.38 430.746 221.642 430.25 221.688 430.723C221.55 429.201 221.411 427.652 221.809 426.167C222.675 422.957 227.085 420.814 230.093 423.612C230.241 421.107 230.643 418.624 233.114 416.931C235.544 415.266 238.376 415.586 240.907 416.75C241.43 414.756 241.273 412.784 242.68 410.975Z" fill="url(#paint24_linear_1807_12457)"/>
<path d="M254.999 425.982C254.726 426.01 254.453 426.095 254.21 426.272C254.167 426.303 254.126 426.338 254.088 426.374C254.053 426.214 253.996 426.059 253.911 425.918C253.756 425.659 253.537 425.472 253.297 425.339C252.276 424.774 251.02 425.233 250.595 426.327C250.495 426.584 250.446 426.869 250.492 427.167C250.517 427.331 250.571 427.486 250.647 427.632C250.594 427.629 250.542 427.629 250.49 427.633C250.19 427.654 249.926 427.765 249.699 427.921C248.735 428.58 248.569 429.916 249.342 430.794C249.524 431.001 249.752 431.175 250.038 431.269C250.257 431.342 250.489 431.358 250.718 431.33C250.659 431.471 250.619 431.618 250.604 431.772C250.574 432.073 250.639 432.354 250.753 432.606C251.236 433.674 252.515 434.062 253.504 433.442C253.737 433.295 253.945 433.097 254.086 432.83C254.178 432.654 254.23 432.462 254.251 432.264C254.393 432.403 254.555 432.516 254.738 432.591C255.016 432.706 255.301 432.723 255.574 432.685C256.727 432.523 257.462 431.398 257.153 430.266C257.081 429.999 256.952 429.741 256.737 429.529C256.629 429.423 256.506 429.335 256.373 429.267C256.573 429.137 256.746 428.973 256.871 428.771C257.03 428.514 257.094 428.233 257.102 427.957C257.137 426.783 256.159 425.866 255 425.982H254.999Z" fill="url(#paint25_radial_1807_12457)"/>
<path d="M253.225 430.493C253.833 430.493 254.326 429.996 254.326 429.384C254.326 428.771 253.833 428.274 253.225 428.274C252.617 428.274 252.124 428.771 252.124 429.384C252.124 429.996 252.617 430.493 253.225 430.493Z" fill="#F481B4"/>
<path d="M189.842 443.957C189.635 443.978 189.428 444.043 189.243 444.177C189.211 444.201 189.18 444.227 189.151 444.254C189.125 444.133 189.081 444.016 189.017 443.908C188.9 443.712 188.734 443.571 188.551 443.47C187.777 443.041 186.825 443.39 186.503 444.219C186.428 444.414 186.39 444.629 186.425 444.856C186.444 444.98 186.485 445.097 186.542 445.208C186.503 445.206 186.463 445.206 186.423 445.209C186.196 445.225 185.996 445.309 185.824 445.427C185.093 445.927 184.967 446.939 185.553 447.605C185.691 447.762 185.864 447.894 186.081 447.966C186.247 448.021 186.423 448.032 186.597 448.011C186.552 448.118 186.521 448.23 186.51 448.347C186.487 448.575 186.536 448.788 186.623 448.979C186.989 449.789 187.959 450.083 188.708 449.613C188.885 449.501 189.043 449.351 189.149 449.149C189.219 449.015 189.259 448.87 189.275 448.72C189.382 448.825 189.505 448.911 189.644 448.968C189.855 449.055 190.071 449.068 190.277 449.039C191.152 448.916 191.709 448.063 191.475 447.205C191.42 447.002 191.322 446.807 191.159 446.646C191.077 446.566 190.984 446.499 190.883 446.447C191.035 446.349 191.166 446.225 191.261 446.072C191.382 445.877 191.43 445.664 191.436 445.454C191.462 444.565 190.721 443.869 189.843 443.957H189.842Z" fill="url(#paint26_radial_1807_12457)"/>
<path d="M188.498 447.378C188.959 447.378 189.332 447.002 189.332 446.537C189.332 446.072 188.959 445.696 188.498 445.696C188.037 445.696 187.663 446.072 187.663 446.537C187.663 447.002 188.037 447.378 188.498 447.378Z" fill="#F481B4"/>
<path d="M234.205 428.773C233.998 428.794 233.791 428.858 233.607 428.993C233.574 429.016 233.544 429.042 233.515 429.07C233.488 428.948 233.445 428.831 233.38 428.724C233.263 428.527 233.097 428.386 232.915 428.285C232.14 427.857 231.188 428.205 230.867 429.034C230.791 429.229 230.753 429.445 230.788 429.671C230.807 429.795 230.848 429.913 230.906 430.023C230.866 430.022 230.826 430.022 230.786 430.024C230.559 430.04 230.359 430.125 230.187 430.242C229.457 430.742 229.33 431.755 229.916 432.421C230.055 432.578 230.228 432.709 230.444 432.781C230.61 432.836 230.786 432.848 230.96 432.827C230.915 432.934 230.884 433.046 230.873 433.162C230.85 433.39 230.899 433.603 230.986 433.794C231.352 434.604 232.322 434.898 233.072 434.428C233.248 434.317 233.406 434.167 233.513 433.964C233.583 433.831 233.622 433.685 233.638 433.535C233.745 433.64 233.868 433.726 234.007 433.783C234.218 433.87 234.434 433.883 234.641 433.854C235.515 433.731 236.072 432.878 235.838 432.02C235.783 431.818 235.685 431.623 235.523 431.462C235.441 431.381 235.347 431.315 235.246 431.263C235.398 431.165 235.53 431.04 235.624 430.887C235.745 430.692 235.793 430.479 235.8 430.27C235.826 429.38 235.084 428.684 234.206 428.773H234.205Z" fill="url(#paint27_radial_1807_12457)"/>
<path d="M232.861 432.194C233.322 432.194 233.696 431.817 233.696 431.352C233.696 430.888 233.322 430.511 232.861 430.511C232.4 430.511 232.026 430.888 232.026 431.352C232.026 431.817 232.4 432.194 232.861 432.194Z" fill="#F481B4"/>
<path d="M164.486 450.223C164.261 450.246 164.036 450.315 163.837 450.462C163.802 450.487 163.768 450.515 163.737 450.545C163.708 450.413 163.661 450.286 163.591 450.17C163.464 449.957 163.284 449.804 163.086 449.694C162.247 449.23 161.214 449.607 160.866 450.506C160.783 450.718 160.742 450.952 160.781 451.197C160.801 451.332 160.846 451.459 160.908 451.579C160.865 451.577 160.822 451.577 160.779 451.58C160.532 451.597 160.316 451.689 160.129 451.816C159.337 452.358 159.2 453.456 159.835 454.178C159.985 454.349 160.173 454.491 160.407 454.569C160.588 454.629 160.778 454.642 160.967 454.619C160.918 454.735 160.885 454.856 160.872 454.982C160.848 455.23 160.901 455.461 160.995 455.667C161.392 456.546 162.444 456.865 163.256 456.355C163.448 456.234 163.619 456.071 163.735 455.852C163.811 455.707 163.854 455.55 163.871 455.387C163.987 455.501 164.12 455.594 164.271 455.656C164.499 455.75 164.734 455.764 164.958 455.733C165.906 455.599 166.51 454.675 166.256 453.744C166.197 453.525 166.091 453.313 165.914 453.139C165.825 453.051 165.724 452.979 165.615 452.923C165.779 452.817 165.922 452.682 166.024 452.515C166.155 452.304 166.208 452.073 166.214 451.846C166.243 450.881 165.439 450.127 164.486 450.223H164.486Z" fill="url(#paint28_radial_1807_12457)"/>
<path d="M163.025 453.932C163.525 453.932 163.93 453.523 163.93 453.02C163.93 452.516 163.525 452.107 163.025 452.107C162.525 452.107 162.12 452.516 162.12 453.02C162.12 453.523 162.525 453.932 163.025 453.932Z" fill="#FDEB79"/>
<path d="M213.671 440.639C213.447 440.662 213.222 440.732 213.022 440.878C212.987 440.904 212.954 440.932 212.922 440.961C212.894 440.83 212.846 440.703 212.777 440.586C212.649 440.373 212.469 440.22 212.272 440.111C211.432 439.646 210.4 440.024 210.051 440.923C209.969 441.135 209.928 441.368 209.966 441.614C209.987 441.748 210.031 441.876 210.094 441.996C210.05 441.994 210.007 441.994 209.964 441.996C209.718 442.014 209.501 442.105 209.314 442.233C208.522 442.775 208.385 443.873 209.021 444.595C209.171 444.765 209.358 444.908 209.593 444.986C209.773 445.046 209.964 445.058 210.152 445.035C210.104 445.151 210.07 445.273 210.058 445.399C210.033 445.646 210.087 445.877 210.18 446.084C210.578 446.962 211.629 447.282 212.442 446.771C212.634 446.651 212.805 446.488 212.92 446.269C212.996 446.124 213.039 445.966 213.056 445.803C213.173 445.917 213.306 446.01 213.457 446.072C213.685 446.167 213.92 446.18 214.143 446.149C215.092 446.016 215.696 445.091 215.442 444.16C215.382 443.941 215.276 443.73 215.1 443.555C215.011 443.468 214.91 443.396 214.8 443.339C214.965 443.233 215.107 443.098 215.21 442.932C215.341 442.721 215.393 442.49 215.4 442.262C215.428 441.298 214.624 440.544 213.672 440.639H213.671Z" fill="url(#paint29_radial_1807_12457)"/>
<path d="M212.212 444.348C212.712 444.348 213.117 443.94 213.117 443.436C213.117 442.932 212.712 442.524 212.212 442.524C211.712 442.524 211.307 442.932 211.307 443.436C211.307 443.94 211.712 444.348 212.212 444.348Z" fill="#FDEB79"/>
<path d="M237.507 445.185C237.288 445.207 237.069 445.275 236.874 445.417C236.84 445.442 236.808 445.47 236.777 445.499C236.749 445.37 236.703 445.247 236.635 445.133C236.511 444.926 236.336 444.776 236.143 444.67C235.325 444.217 234.319 444.585 233.979 445.461C233.899 445.667 233.859 445.895 233.896 446.134C233.916 446.265 233.959 446.39 234.02 446.507C233.978 446.505 233.936 446.505 233.894 446.507C233.654 446.524 233.443 446.614 233.261 446.738C232.489 447.266 232.355 448.336 232.975 449.04C233.121 449.206 233.303 449.345 233.532 449.421C233.708 449.479 233.893 449.492 234.077 449.469C234.03 449.582 233.997 449.701 233.985 449.824C233.961 450.065 234.013 450.29 234.105 450.491C234.492 451.348 235.517 451.659 236.309 451.161C236.496 451.044 236.662 450.885 236.775 450.672C236.849 450.53 236.891 450.377 236.908 450.218C237.021 450.329 237.151 450.42 237.298 450.48C237.52 450.572 237.749 450.586 237.967 450.555C238.891 450.425 239.48 449.524 239.233 448.617C239.175 448.403 239.071 448.197 238.899 448.027C238.813 447.941 238.714 447.871 238.607 447.816C238.768 447.713 238.907 447.581 239.007 447.419C239.134 447.214 239.185 446.989 239.192 446.767C239.219 445.827 238.436 445.092 237.508 445.185H237.507Z" fill="url(#paint30_radial_1807_12457)"/>
<path d="M236.086 448.799C236.573 448.799 236.968 448.401 236.968 447.91C236.968 447.419 236.573 447.021 236.086 447.021C235.599 447.021 235.204 447.419 235.204 447.91C235.204 448.401 235.599 448.799 236.086 448.799Z" fill="#FDEB79"/>
<path d="M175.65 254.215C178.015 250.844 180.48 250.041 180.596 250.005C180.466 250.106 176.235 253.319 175.674 260.601C175.595 261.45 175.606 262.288 175.647 263H168.085C166.99 255.838 161.842 250.724 161.664 250.547C161.825 250.594 165.309 251.743 167.969 257.045C166.518 248 162.797 243.587 162.797 243.587C162.797 243.587 166.87 246.276 169.372 254.465C168.205 246.659 164.981 240.422 159.768 236.801C159.768 236.801 166.552 238.554 170.481 250.012C169.67 240.368 167.254 235.518 168.099 230C168.099 230 169.235 238.398 171.697 243.598C171.768 243.75 171.834 243.902 171.902 244.054C172.347 239.327 173.271 234.282 175.106 230.405C175.055 230.64 173.035 239.873 173.973 245.6C174.058 246.131 174.127 246.673 174.182 247.219C175.479 243.631 177.41 241.647 177.488 241.567C177.447 241.665 176.15 244.78 175.582 249.095C179.439 241.437 184.42 240.042 184.574 240.003C180.158 243.071 177.17 248.025 175.65 254.212V254.215Z" fill="url(#paint31_linear_1807_12457)"/>
<path d="M184.964 252.777C188.436 248.914 191.645 248.285 191.797 248.258C191.618 248.365 185.832 251.744 184.032 260.783C183.805 261.835 183.692 262.888 183.636 263.786L174.16 262.629C173.866 253.486 168.185 246.29 167.988 246.041C168.183 246.124 172.377 248.097 174.911 255.148C174.455 243.59 170.457 237.492 170.457 237.492C170.457 237.492 175.156 241.484 177.059 252.129C176.772 242.168 173.67 233.859 167.683 228.523C167.683 228.523 175.921 231.758 179.119 246.719C179.555 234.508 177.257 228.061 179.148 221.275C179.148 221.275 179.307 231.973 181.608 238.867C181.676 239.068 181.734 239.268 181.797 239.469C183.067 233.613 184.985 227.433 187.868 222.854C187.769 223.141 183.847 234.402 184.159 241.724C184.187 242.403 184.191 243.093 184.177 243.785C186.344 239.486 189.062 237.295 189.173 237.208C189.106 237.324 187.011 241.029 185.649 246.349C191.637 237.343 198.089 236.357 198.288 236.331C192.292 239.5 187.801 245.252 184.964 252.773L184.964 252.777Z" fill="url(#paint32_linear_1807_12457)"/>
</g>
</g>
<defs>
<filter id="filter0_d_1807_12457" x="0" y="0" width="262" height="462" filterUnits="userSpaceOnUse" color-interpolation-filters="sRGB">
<feFlood flood-opacity="0" result="BackgroundImageFix"/>
<feColorMatrix in="SourceAlpha" type="matrix" values="0 0 0 0 0 0 0 0 0 0 0 0 0 0 0 0 0 0 127 0" result="hardAlpha"/>
<feOffset dx="1" dy="1"/>
<feGaussianBlur stdDeviation="1.5"/>
<feColorMatrix type="matrix" values="0 0 0 0 0 0 0 0 0 0 0 0 0 0 0 0 0 0 0.3 0"/>
<feBlend mode="normal" in2="BackgroundImageFix" result="effect1_dropShadow_1807_12457"/>
<feBlend mode="normal" in="SourceGraphic" in2="effect1_dropShadow_1807_12457" result="shape"/>
</filter>
<linearGradient id="paint0_linear_1807_12457" x1="130" y1="-133" x2="130" y2="75" gradientUnits="userSpaceOnUse">
<stop stop-color="#F594C1"/>
<stop offset="1" stop-color="white"/>
</linearGradient>
<linearGradient id="paint1_linear_1807_12457" x1="222.933" y1="184.88" x2="231.401" y2="133.421" gradientUnits="userSpaceOnUse">
<stop stop-color="#F6ACD2"/>
<stop offset="1" stop-color="#F481B4"/>
</linearGradient>
<linearGradient id="paint2_linear_1807_12457" x1="222.249" y1="176.382" x2="228.755" y2="136.847" gradientUnits="userSpaceOnUse">
<stop stop-color="#FAFAE6"/>
<stop offset="1" stop-color="#FFD285"/>
</linearGradient>
<linearGradient id="paint3_linear_1807_12457" x1="222.249" y1="176.382" x2="228.755" y2="136.847" gradientUnits="userSpaceOnUse">
<stop stop-color="#FAFAE6"/>
<stop offset="1" stop-color="#FFD285"/>
</linearGradient>
<linearGradient id="paint4_linear_1807_12457" x1="222.249" y1="176.382" x2="228.755" y2="136.847" gradientUnits="userSpaceOnUse">
<stop stop-color="#FAFAE6"/>
<stop offset="1" stop-color="#FFD285"/>
</linearGradient>
<linearGradient id="paint5_linear_1807_12457" x1="222.249" y1="176.382" x2="228.755" y2="136.847" gradientUnits="userSpaceOnUse">
<stop stop-color="#FAFAE6"/>
<stop offset="1" stop-color="#FFD285"/>
</linearGradient>
<linearGradient id="paint6_linear_1807_12457" x1="222.249" y1="176.382" x2="228.755" y2="136.847" gradientUnits="userSpaceOnUse">
<stop stop-color="#FAFAE6"/>
<stop offset="1" stop-color="#FFD285"/>
</linearGradient>
<linearGradient id="paint7_linear_1807_12457" x1="222.249" y1="176.382" x2="228.755" y2="136.847" gradientUnits="userSpaceOnUse">
<stop stop-color="#FAFAE6"/>
<stop offset="1" stop-color="#FFD285"/>
</linearGradient>
<linearGradient id="paint8_linear_1807_12457" x1="222.249" y1="176.382" x2="228.755" y2="136.847" gradientUnits="userSpaceOnUse">
<stop stop-color="#FAFAE6"/>
<stop offset="1" stop-color="#FFD285"/>
</linearGradient>
<linearGradient id="paint9_linear_1807_12457" x1="26.4905" y1="197.835" x2="28.4603" y2="263.506" gradientUnits="userSpaceOnUse">
<stop stop-color="#F6ACD2"/>
<stop offset="1" stop-color="#F481B4"/>
</linearGradient>
<linearGradient id="paint10_linear_1807_12457" x1="29.3898" y1="208.176" x2="30.9032" y2="258.629" gradientUnits="userSpaceOnUse">
<stop stop-color="#FAFAE6"/>
<stop offset="1" stop-color="#FFD285"/>
</linearGradient>
<linearGradient id="paint11_linear_1807_12457" x1="29.3898" y1="208.176" x2="30.9032" y2="258.629" gradientUnits="userSpaceOnUse">
<stop stop-color="#FAFAE6"/>
<stop offset="1" stop-color="#FFD285"/>
</linearGradient>
<linearGradient id="paint12_linear_1807_12457" x1="29.3898" y1="208.176" x2="30.9032" y2="258.629" gradientUnits="userSpaceOnUse">
<stop stop-color="#FAFAE6"/>
<stop offset="1" stop-color="#FFD285"/>
</linearGradient>
<linearGradient id="paint13_linear_1807_12457" x1="29.3898" y1="208.176" x2="30.9032" y2="258.629" gradientUnits="userSpaceOnUse">
<stop stop-color="#FAFAE6"/>
<stop offset="1" stop-color="#FFD285"/>
</linearGradient>
<linearGradient id="paint14_linear_1807_12457" x1="29.3898" y1="208.176" x2="30.9032" y2="258.629" gradientUnits="userSpaceOnUse">
<stop stop-color="#FAFAE6"/>
<stop offset="1" stop-color="#FFD285"/>
</linearGradient>
<linearGradient id="paint15_linear_1807_12457" x1="29.3898" y1="208.176" x2="30.9032" y2="258.629" gradientUnits="userSpaceOnUse">
<stop stop-color="#FAFAE6"/>
<stop offset="1" stop-color="#FFD285"/>
</linearGradient>
<linearGradient id="paint16_linear_1807_12457" x1="29.3898" y1="208.176" x2="30.9032" y2="258.629" gradientUnits="userSpaceOnUse">
<stop stop-color="#FAFAE6"/>
<stop offset="1" stop-color="#FFD285"/>
</linearGradient>
<linearGradient id="paint17_linear_1807_12457" x1="130.5" y1="130.644" x2="130.5" y2="266.644" gradientUnits="userSpaceOnUse">
<stop stop-color="#F6ACD2"/>
<stop offset="1" stop-color="#F481B4"/>
</linearGradient>
<linearGradient id="paint18_linear_1807_12457" x1="68.5" y1="308.644" x2="68.5" y2="404.644" gradientUnits="userSpaceOnUse">
<stop stop-color="#FAFAE6"/>
<stop offset="1" stop-color="#ECECD2"/>
</linearGradient>
<linearGradient id="paint19_linear_1807_12457" x1="192.5" y1="308.644" x2="192.5" y2="404.644" gradientUnits="userSpaceOnUse">
<stop stop-color="#FAFAE6"/>
<stop offset="1" stop-color="#ECECD2"/>
</linearGradient>
<linearGradient id="paint20_linear_1807_12457" x1="218.807" y1="376" x2="218.807" y2="400" gradientUnits="userSpaceOnUse">
<stop stop-color="#FDEB79"/>
<stop offset="0.75" stop-color="#40C3A3"/>
<stop offset="1" stop-color="#209975"/>
</linearGradient>
<linearGradient id="paint21_linear_1807_12457" x1="39.7055" y1="376" x2="39.7055" y2="398" gradientUnits="userSpaceOnUse">
<stop stop-color="#FDEB79"/>
<stop offset="0.75" stop-color="#40C3A3"/>
<stop offset="1" stop-color="#209975"/>
</linearGradient>
<radialGradient id="paint22_radial_1807_12457" cx="0" cy="0" r="1" gradientTransform="matrix(7.9605 -2.91051 2.88795 8.02269 111.685 322.277)" gradientUnits="userSpaceOnUse">
<stop offset="0.03" stop-color="#F6ACD2"/>
<stop offset="0.41" stop-color="#F59DC7"/>
<stop offset="0.97" stop-color="#F481B4"/>
</radialGradient>
<radialGradient id="paint23_radial_1807_12457" cx="0" cy="0" r="1" gradientTransform="matrix(5.45754 1.44451 -1.4321 5.49984 141.411 351)" gradientUnits="userSpaceOnUse">
<stop offset="0.03" stop-color="#FFEC9F"/>
<stop offset="0.432692" stop-color="#FF9E88"/>
<stop offset="0.97" stop-color="#FF66AA"/>
</radialGradient>
<linearGradient id="paint24_linear_1807_12457" x1="221.286" y1="408.699" x2="221.286" y2="459.38" gradientUnits="userSpaceOnUse">
<stop stop-color="#FDEB79"/>
<stop offset="0.75" stop-color="#40C3A3"/>
<stop offset="1" stop-color="#209975"/>
</linearGradient>
<radialGradient id="paint25_radial_1807_12457" cx="0" cy="0" r="1" gradientTransform="matrix(3.94968 -1.44408 1.43289 3.98054 254.044 428.707)" gradientUnits="userSpaceOnUse">
<stop offset="0.03" stop-color="#FCFF9C"/>
<stop offset="0.41" stop-color="#F5E69D"/>
<stop offset="0.97" stop-color="#F4C081"/>
</radialGradient>
<radialGradient id="paint26_radial_1807_12457" cx="0" cy="0" r="1" gradientTransform="matrix(2.9943 -1.09477 1.08629 3.01769 189.118 446.023)" gradientUnits="userSpaceOnUse">
<stop offset="0.03" stop-color="#FCFF9C"/>
<stop offset="0.41" stop-color="#F5E69D"/>
<stop offset="0.97" stop-color="#F4C081"/>
</radialGradient>
<radialGradient id="paint27_radial_1807_12457" cx="0" cy="0" r="1" gradientTransform="matrix(2.9943 -1.09477 1.08629 3.01769 233.481 430.838)" gradientUnits="userSpaceOnUse">
<stop offset="0.03" stop-color="#FCFF9C"/>
<stop offset="0.41" stop-color="#F5E69D"/>
<stop offset="0.97" stop-color="#F4C081"/>
</radialGradient>
<radialGradient id="paint28_radial_1807_12457" cx="0" cy="0" r="1" gradientTransform="matrix(3.24672 -1.18706 1.17786 3.27208 163.701 452.463)" gradientUnits="userSpaceOnUse">
<stop offset="0.03" stop-color="#F6ACD2"/>
<stop offset="0.41" stop-color="#F59DC7"/>
<stop offset="0.97" stop-color="#F481B4"/>
</radialGradient>
<radialGradient id="paint29_radial_1807_12457" cx="0" cy="0" r="1" gradientTransform="matrix(3.24672 -1.18706 1.17786 3.27208 212.886 442.879)" gradientUnits="userSpaceOnUse">
<stop offset="0.03" stop-color="#F6ACD2"/>
<stop offset="0.41" stop-color="#F59DC7"/>
<stop offset="0.97" stop-color="#F481B4"/>
</radialGradient>
<radialGradient id="paint30_radial_1807_12457" cx="0" cy="0" r="1" gradientTransform="matrix(3.1644 -1.15696 1.148 3.18912 236.742 447.368)" gradientUnits="userSpaceOnUse">
<stop offset="0.03" stop-color="#F6ACD2"/>
<stop offset="0.41" stop-color="#F59DC7"/>
<stop offset="0.97" stop-color="#F481B4"/>
</radialGradient>
<linearGradient id="paint31_linear_1807_12457" x1="172.171" y1="230" x2="172.171" y2="263" gradientUnits="userSpaceOnUse">
<stop stop-color="#FAFAE6"/>
<stop offset="1" stop-color="#FFD285"/>
</linearGradient>
<linearGradient id="paint32_linear_1807_12457" x1="184.251" y1="221.898" x2="179.203" y2="263.245" gradientUnits="userSpaceOnUse">
<stop stop-color="#FAFAE6"/>
<stop offset="1" stop-color="#FDEB79"/>
</linearGradient>
<clipPath id="clip0_1807_12457">
<rect x="2" y="2" width="256" height="456" rx="12" fill="white"/>
</clipPath>
</defs>
</svg>
