<svg width="264" height="462" viewBox="0 0 264 462" fill="none" xmlns="http://www.w3.org/2000/svg">
<g filter="url(#filter0_d_1483_12087)">
<g clip-path="url(#clip0_1483_12087)">
<rect x="2" y="2" width="258" height="456" rx="12" fill="url(#paint0_linear_1483_12087)"/>
<g opacity="0.8">
<path d="M174.984 158.355C179.474 156.789 181.916 154.095 186.744 149.301C191.458 144.62 198.1 138.556 209.533 137.501C220.801 136.461 228.319 140.927 233.699 144.307C239.077 147.685 241.901 149.546 246.535 149.892C249.228 150.092 252.461 148.986 255.989 146.404C259.471 143.855 262.185 140.615 263.443 138.694L280.961 150.159C278.5 153.919 274.108 159.088 268.355 163.299C262.648 167.476 254.518 171.481 244.979 170.77C234.323 169.976 227.166 164.928 222.562 162.036C217.959 159.144 215.491 157.977 211.457 158.349C207.588 158.706 205.392 160.289 201.496 164.158C197.714 167.913 191.776 174.671 181.88 178.123L174.984 158.355Z" fill="url(#paint1_linear_1483_12087)"/>
<path d="M269.126 148.452C268.682 148.082 268.622 147.422 268.991 146.977C269.944 145.834 270.729 144.765 271.326 143.853L273.078 145C272.433 145.985 271.599 147.118 270.6 148.317C270.23 148.761 269.57 148.822 269.126 148.452Z" fill="url(#paint2_linear_1483_12087)"/>
<path d="M256.478 158.25C256.219 157.733 256.428 157.104 256.945 156.845C259.3 155.664 261.487 154.157 263.44 152.532C263.885 152.163 264.545 152.223 264.914 152.667C265.284 153.112 265.224 153.772 264.779 154.142C262.728 155.847 260.408 157.451 257.882 158.717C257.366 158.975 256.737 158.766 256.478 158.25Z" fill="url(#paint3_linear_1483_12087)"/>
<path d="M240.049 159.31C240.192 158.75 240.762 158.411 241.322 158.554C242.718 158.91 244.213 159.166 245.835 159.287C247.123 159.383 248.392 159.338 249.638 159.173C250.211 159.097 250.738 159.501 250.813 160.074C250.889 160.647 250.486 161.173 249.913 161.248C248.532 161.431 247.118 161.482 245.679 161.374C243.933 161.244 242.317 160.969 240.804 160.583C240.244 160.44 239.906 159.87 240.049 159.31Z" fill="url(#paint4_linear_1483_12087)"/>
<path d="M223.741 151.793C223.231 151.52 223.038 150.886 223.31 150.376C223.582 149.866 224.217 149.673 224.727 149.946C226.147 150.704 227.51 151.543 228.852 152.388C230.202 153.238 231.522 154.088 232.898 154.899C233.396 155.193 233.562 155.834 233.268 156.332C232.975 156.83 232.333 156.996 231.835 156.703C230.424 155.871 229.063 154.994 227.736 154.16C226.402 153.319 225.091 152.514 223.741 151.793Z" fill="url(#paint5_linear_1483_12087)"/>
<path d="M204.753 149.167C204.581 148.615 204.889 148.028 205.44 147.856C206.952 147.383 208.593 147.049 210.399 146.882C212.173 146.718 213.818 146.737 215.361 146.902C215.936 146.963 216.352 147.479 216.291 148.054C216.229 148.629 215.714 149.045 215.139 148.984C213.738 148.833 212.232 148.816 210.591 148.967C208.927 149.121 207.431 149.427 206.065 149.854C205.513 150.027 204.926 149.719 204.753 149.167Z" fill="url(#paint6_linear_1483_12087)"/>
<path d="M189.718 161.084C189.317 160.668 189.33 160.005 189.747 159.604C192.053 157.383 194.307 154.924 196.75 152.844C197.191 152.469 197.851 152.522 198.226 152.962C198.601 153.403 198.548 154.063 198.108 154.438C195.719 156.472 193.645 158.756 191.198 161.112C190.782 161.513 190.119 161.501 189.718 161.084Z" fill="url(#paint7_linear_1483_12087)"/>
<path d="M178.087 167.25C179.635 166.711 181.037 166.065 182.329 165.341C182.833 165.058 183.471 165.238 183.754 165.742C184.036 166.246 183.856 166.884 183.352 167.167C181.959 167.948 180.445 168.645 178.777 169.227L178.087 167.25Z" fill="url(#paint8_linear_1483_12087)"/>
</g>
<g opacity="0.8">
<path d="M86.7867 227.247C82.0278 230.886 80.1624 235.07 76.2674 242.705C72.4642 250.16 66.8959 260.029 53.6261 265.784C40.5475 271.456 29.7941 269.064 22.0258 267.133C14.2607 265.202 10.1499 264.084 4.46763 265.491C1.16515 266.309 -2.27064 268.904 -5.47862 273.381C-8.64499 277.799 -10.6211 282.744 -11.3712 285.538L-36.845 278.698C-35.3768 273.23 -32.1504 265.318 -26.919 258.017C-21.7293 250.775 -13.571 242.786 -1.87391 239.889C11.1933 236.652 21.7431 239.883 28.391 241.536C35.0357 243.188 38.4494 243.616 43.1315 241.585C47.6221 239.638 49.6288 236.879 52.7718 230.718C55.8232 224.737 60.2763 214.315 70.7647 206.294L86.7867 227.247Z" fill="url(#paint9_linear_1483_12087)"/>
<path d="M-22.0077 276.09C-21.3306 276.359 -20.9991 277.125 -21.2673 277.803C-21.9578 279.546 -22.4785 281.133 -22.8346 282.459L-25.3816 281.775C-24.9968 280.342 -24.4433 278.658 -23.7193 276.831C-23.451 276.154 -22.6848 275.822 -22.0077 276.09Z" fill="url(#paint10_linear_1483_12087)"/>
<path d="M-10.7176 259.393C-10.2046 259.91 -10.2078 260.745 -10.7246 261.258C-13.0801 263.597 -15.1052 266.26 -16.8052 268.972C-17.1919 269.589 -18.0059 269.776 -18.623 269.39C-19.24 269.003 -19.4271 268.189 -19.0406 267.572C-17.2557 264.724 -15.1084 261.894 -12.5826 259.386C-12.0658 258.873 -11.2307 258.876 -10.7176 259.393Z" fill="url(#paint11_linear_1483_12087)"/>
<path d="M8.53071 251.669C8.57968 252.395 8.03031 253.024 7.30373 253.073C5.49211 253.196 3.60248 253.477 1.61394 253.97C0.0348851 254.361 -1.46718 254.914 -2.89387 255.6C-3.55019 255.916 -4.33859 255.64 -4.65443 254.984C-4.9702 254.328 -4.69414 253.54 -4.03792 253.224C-2.45723 252.463 -0.784738 251.847 0.979789 251.41C3.12127 250.879 5.16373 250.574 7.12636 250.442C7.85294 250.393 8.48158 250.942 8.53071 251.669Z" fill="url(#paint12_linear_1483_12087)"/>
<path d="M31.0049 254.259C31.7221 254.385 32.2019 255.068 32.0765 255.785C31.9509 256.502 31.2673 256.983 30.5499 256.857C28.5516 256.507 26.5904 256.038 24.6525 255.555C22.7024 255.068 20.7892 254.569 18.8232 254.139C18.1117 253.983 17.6611 253.28 17.8167 252.569C17.9725 251.857 18.6757 251.406 19.3872 251.562C21.4027 252.003 23.3762 252.517 25.2918 252.996C27.2199 253.477 29.1047 253.926 31.0049 254.259Z" fill="url(#paint13_linear_1483_12087)"/>
<path d="M54.7636 249.941C55.1868 250.534 55.0492 251.358 54.4565 251.781C52.8327 252.94 50.9994 253.985 48.9035 254.894C46.8443 255.787 44.8685 256.412 42.9561 256.82C42.2439 256.973 41.543 256.519 41.3907 255.807C41.2386 255.095 41.6924 254.394 42.4045 254.241C44.1402 253.871 45.9497 253.3 47.854 252.474C49.7856 251.636 51.4562 250.682 52.9237 249.634C53.5165 249.211 54.3404 249.348 54.7636 249.941Z" fill="url(#paint14_linear_1483_12087)"/>
<path d="M68.0777 229.769C68.7212 230.11 68.9662 230.908 68.6254 231.552C66.7372 235.117 65.0055 238.945 62.8983 242.396C62.5187 243.017 61.7068 243.213 61.0853 242.834C60.4637 242.454 60.2677 241.642 60.6474 241.02C62.7071 237.648 64.2926 234.098 66.295 230.317C66.6359 229.674 67.4341 229.428 68.0777 229.769Z" fill="url(#paint15_linear_1483_12087)"/>
<path d="M79.5768 217.818C77.9367 219.072 76.5119 220.397 75.2503 221.771C74.7577 222.307 73.9234 222.343 73.387 221.85C72.8505 221.358 72.8154 220.523 73.3079 219.987C74.669 218.504 76.2066 217.075 77.9746 215.723L79.5768 217.818Z" fill="url(#paint16_linear_1483_12087)"/>
</g>
<path d="M16.1893 454.411C16.1893 454.411 14.6497 456.147 14.5346 459.416H5.83274C5.80798 455.024 2.55098 453.418 2.5 453.394C2.54953 453.4 5.2399 453.722 6.74167 456.007C6.74167 456.007 5.83274 453.086 4.92381 450.935C4.92381 450.935 7.34763 452.472 8.25656 456.161C8.25656 456.161 8.71102 451.394 9.46846 449.857C9.46846 449.857 9.16548 453.239 9.92293 454.468C9.92293 454.468 11.1348 453.392 11.4378 449.55C11.4378 449.55 12.1952 451.855 11.8923 455.237C11.8923 455.237 12.7997 452.318 13.7101 451.242C13.6795 451.303 12.3584 453.877 13.2557 455.853C13.2557 455.853 13.7101 452.779 15.9825 451.394C15.9825 451.394 14.8871 452.914 14.5564 455.995C15.2512 454.817 16.1864 454.411 16.1864 454.411H16.1893Z" fill="url(#paint17_linear_1483_12087)"/>
<path d="M6.96988 445.818C6.96988 455.268 10.726 450.64 15.3575 450.64C19.989 450.64 23.7451 455.936 23.7451 446.485C23.7451 437.035 19.989 416.425 15.3575 416.425C10.726 416.425 6.96988 436.371 6.96988 445.818Z" fill="url(#paint18_linear_1483_12087)"/>
<path d="M13.6677 459.448H16.5156L15.665 446.954L14.9376 446.938L13.6677 459.448Z" fill="url(#paint19_linear_1483_12087)"/>
<path d="M17.3513 438.035C17.3513 449.016 21.7159 443.638 27.0975 443.638C32.4792 443.638 36.8438 449.792 36.8438 438.81C36.8438 427.829 32.4792 403.881 27.0975 403.881C21.7159 403.881 17.3513 427.058 17.3513 438.035Z" fill="url(#paint20_linear_1483_12087)"/>
<path d="M25.1341 453.873H28.4434L27.4549 439.355L26.6097 439.336L25.1341 453.873Z" fill="url(#paint21_linear_1483_12087)"/>
<path d="M33.2369 438.68C33.2369 446.172 36.2145 442.503 39.886 442.503C43.5575 442.503 46.5352 446.701 46.5352 439.209C46.5352 431.718 43.5575 415.38 39.886 415.38C36.2145 415.38 33.2369 431.192 33.2369 438.68Z" fill="url(#paint22_linear_1483_12087)"/>
<path d="M38.547 449.485H40.8047L40.1303 439.581L39.5537 439.567L38.547 449.485Z" fill="url(#paint23_linear_1483_12087)"/>
<path d="M15.2418 457.761C14.5826 457.397 13.7517 457.346 13.0292 457.607C11.5792 458.134 9.31266 459.19 12.3443 459.806C15.9091 460.53 17.1937 458.836 15.2418 457.76V457.761Z" fill="url(#paint24_linear_1483_12087)"/>
<path d="M47.6705 443.221C47.1247 442.519 46.0288 442.074 45.1343 442.417C44.2194 442.767 43.8855 443.721 43.6548 444.564C42.8128 444.252 41.8132 444.274 40.9937 444.628C39.319 445.35 38.2221 447.42 38.7603 448.952C38.761 448.954 38.7625 448.956 38.7632 448.958C37.8028 448.361 36.7009 448.496 35.7115 448.952C35.4996 448.143 35.5636 447.342 34.9937 446.608C34.448 445.906 33.3521 445.46 32.4576 445.802C31.5426 446.153 31.2087 447.107 30.9781 447.95C30.136 447.637 29.1365 447.661 28.3169 448.014C26.6423 448.737 25.5455 450.805 26.0835 452.338C26.1267 452.458 26.1768 452.583 26.2349 452.707C25.3254 452.41 24.2807 453.052 23.9957 453.857C23.7089 454.666 24.0444 455.395 24.3013 456.163C23.8251 456.355 23.3506 456.477 23.0093 456.88C22.9476 456.953 22.895 457.031 22.8462 457.111C22.8141 456.656 22.7229 456.211 22.2662 455.903C21.7967 455.586 21.2495 455.647 20.7603 455.869C20.6592 455.489 20.6894 455.114 20.4175 454.77C20.1573 454.441 19.6352 454.232 19.2085 454.392C18.7721 454.556 18.6125 455.004 18.5025 455.399C18.101 455.253 17.6247 455.264 17.2339 455.429C16.4353 455.768 15.9119 456.738 16.1685 457.456C16.189 457.512 16.2131 457.57 16.2408 457.629C15.8071 457.489 15.3084 457.79 15.1724 458.168C15.0356 458.547 15.1964 458.889 15.3189 459.249C15.0919 459.339 14.8654 459.396 14.7027 459.585C14.6025 459.701 14.5386 459.838 14.5064 459.98H75.3804C75.6804 459.269 75.5529 458.345 75.0787 457.776L75.0767 457.774C74.7392 457.371 74.2328 457.075 73.6871 456.925C73.5502 456.887 72.2293 456.686 72.2095 456.878C72.2658 456.26 72.322 455.631 72.1607 455.029C71.8099 453.727 70.0222 452.857 68.8033 453.992C68.7432 452.976 68.5799 451.969 67.5787 451.282C66.5941 450.606 65.4463 450.735 64.4205 451.208C64.2087 450.399 64.2724 449.599 63.7027 448.865C63.1569 448.163 62.0611 447.717 61.1666 448.059C60.2515 448.409 59.9177 449.364 59.6871 450.207C58.845 449.894 57.8455 449.917 57.0259 450.271C56.7369 450.396 56.4656 450.561 56.2164 450.757C56.2474 450.296 56.2482 449.834 56.1285 449.386C55.7777 448.084 53.99 447.214 52.771 448.349C52.711 447.333 52.5479 446.325 51.5464 445.638C50.5619 444.963 49.414 445.093 48.3882 445.565C48.1764 444.756 48.2405 443.955 47.6705 443.221Z" fill="url(#paint25_linear_1483_12087)"/>
<path d="M28.0772 454.328C28.1609 454.337 28.2448 454.363 28.3192 454.417C28.3322 454.427 28.3447 454.438 28.3564 454.449C28.3672 454.399 28.3847 454.352 28.4108 454.309C28.4582 454.229 28.5252 454.172 28.5989 454.131C28.9118 453.958 29.2966 454.099 29.4266 454.434C29.4572 454.513 29.4725 454.6 29.4582 454.692C29.4506 454.742 29.434 454.79 29.4108 454.835C29.4268 454.834 29.4429 454.834 29.459 454.835C29.5508 454.841 29.6316 454.875 29.7012 454.923C29.9965 455.125 30.0475 455.535 29.8106 455.805C29.7547 455.868 29.6849 455.921 29.5974 455.95C29.5301 455.973 29.4592 455.977 29.3889 455.969C29.407 456.012 29.4195 456.057 29.424 456.105C29.4332 456.197 29.4133 456.283 29.3784 456.36C29.2303 456.688 28.8384 456.807 28.5354 456.617C28.464 456.572 28.4003 456.511 28.3572 456.429C28.3289 456.375 28.3128 456.316 28.3065 456.256C28.2631 456.298 28.2134 456.333 28.1573 456.356C28.0721 456.391 27.9847 456.396 27.9013 456.385C27.5479 456.335 27.3228 455.99 27.4174 455.642C27.4395 455.561 27.4791 455.482 27.5448 455.417C27.578 455.384 27.6157 455.357 27.6565 455.336C27.5951 455.296 27.542 455.246 27.5038 455.184C27.4551 455.105 27.4355 455.019 27.4329 454.934C27.4225 454.574 27.7221 454.293 28.077 454.328H28.0772Z" fill="url(#paint26_radial_1483_12087)"/>
<path d="M28.6207 455.712C28.4344 455.712 28.2833 455.56 28.2833 455.372C28.2833 455.184 28.4344 455.031 28.6207 455.031C28.807 455.031 28.958 455.184 28.958 455.372C28.958 455.56 28.807 455.712 28.6207 455.712Z" fill="#F481B4"/>
<path d="M48.4513 448.405C48.5349 448.413 48.6188 448.439 48.6932 448.494C48.7062 448.503 48.7187 448.514 48.7305 448.525C48.7412 448.476 48.7588 448.428 48.7848 448.385C48.8322 448.305 48.8993 448.248 48.973 448.207C49.2858 448.034 49.6706 448.175 49.8006 448.51C49.8312 448.589 49.8465 448.677 49.8322 448.768C49.8246 448.818 49.808 448.866 49.7848 448.911C49.8009 448.91 49.8169 448.91 49.833 448.911C49.9248 448.917 50.0056 448.952 50.0752 448.999C50.3705 449.201 50.4215 449.611 50.1846 449.881C50.1288 449.944 50.0589 449.997 49.9714 450.027C49.9041 450.049 49.8333 450.054 49.7629 450.045C49.781 450.088 49.7935 450.134 49.7981 450.181C49.8072 450.273 49.7874 450.359 49.7524 450.436C49.6043 450.764 49.2124 450.883 48.9095 450.693C48.8381 450.648 48.7743 450.587 48.7312 450.505C48.7029 450.451 48.6869 450.392 48.6805 450.332C48.6371 450.374 48.5874 450.409 48.5313 450.432C48.4462 450.467 48.3587 450.472 48.2753 450.461C47.9219 450.411 47.6968 450.066 47.7914 449.719C47.8136 449.637 47.8531 449.558 47.9189 449.493C47.952 449.46 47.9898 449.433 48.0306 449.412C47.9691 449.373 47.9161 449.322 47.8778 449.26C47.8291 449.181 47.8095 449.095 47.8069 449.01C47.7965 448.65 48.0961 448.369 48.451 448.405H48.4513Z" fill="url(#paint27_radial_1483_12087)"/>
<path d="M48.9947 449.789C48.8084 449.789 48.6574 449.636 48.6574 449.448C48.6574 449.26 48.8084 449.108 48.9947 449.108C49.181 449.108 49.332 449.26 49.332 449.448C49.332 449.636 49.181 449.789 48.9947 449.789Z" fill="#F481B4"/>
<path d="M39.566 455.36C39.6455 455.368 39.7252 455.393 39.796 455.445C39.8084 455.454 39.8202 455.464 39.8314 455.475C39.8416 455.428 39.8583 455.383 39.883 455.342C39.9281 455.266 39.9918 455.212 40.0619 455.173C40.3592 455.008 40.7249 455.142 40.8485 455.461C40.8776 455.536 40.8921 455.619 40.8786 455.706C40.8713 455.754 40.8555 455.799 40.8335 455.841C40.8488 455.841 40.864 455.841 40.8793 455.842C40.9665 455.848 41.0434 455.88 41.1095 455.926C41.3902 456.118 41.4386 456.507 41.2135 456.763C41.1604 456.824 41.094 456.874 41.0109 456.902C40.9469 456.923 40.8795 456.928 40.8126 456.92C40.8299 456.961 40.8417 457.004 40.8461 457.048C40.8548 457.136 40.8359 457.218 40.8027 457.292C40.6619 457.603 40.2894 457.716 40.0015 457.535C39.9337 457.493 39.8731 457.435 39.8321 457.357C39.8052 457.306 39.7899 457.25 39.7839 457.192C39.7427 457.232 39.6954 457.265 39.6421 457.287C39.5612 457.321 39.478 457.326 39.3988 457.315C39.0629 457.267 38.8489 456.939 38.9388 456.609C38.9599 456.532 38.9975 456.456 39.06 456.395C39.0915 456.364 39.1274 456.338 39.1661 456.318C39.1077 456.28 39.0573 456.232 39.021 456.174C38.9747 456.099 38.956 456.017 38.9536 455.936C38.9437 455.594 39.2284 455.326 39.5658 455.36H39.566Z" fill="url(#paint28_radial_1483_12087)"/>
<path d="M40.0827 456.676C39.9056 456.676 39.7621 456.531 39.7621 456.352C39.7621 456.174 39.9056 456.029 40.0827 456.029C40.2598 456.029 40.4033 456.174 40.4033 456.352C40.4033 456.531 40.2598 456.676 40.0827 456.676Z" fill="#FDEB79"/>
<path d="M37.4817 95.988C36.9272 96.0438 36.3711 96.2145 35.8775 96.5729C35.7913 96.6354 35.7084 96.7047 35.6307 96.7774C35.5597 96.4545 35.443 96.1435 35.2706 95.8578C34.9562 95.3355 34.5116 94.9602 34.0231 94.6914C31.949 93.5521 29.3981 94.4784 28.536 96.6827C28.3332 97.2017 28.2318 97.7747 28.3264 98.3765C28.3771 98.7061 28.487 99.0189 28.6408 99.313C28.5343 99.3079 28.4278 99.3079 28.3214 99.3147C27.7128 99.357 27.1769 99.5818 26.7155 99.8945C24.758 101.223 24.4199 103.916 25.9903 105.686C26.3605 106.103 26.8237 106.453 27.4035 106.644C27.8497 106.791 28.3197 106.822 28.7862 106.766C28.6662 107.05 28.5834 107.348 28.5529 107.657C28.4921 108.264 28.6239 108.83 28.8555 109.337C29.8376 111.491 32.4358 112.273 34.444 111.022C34.9173 110.727 35.3399 110.328 35.6256 109.79C35.8132 109.435 35.9197 109.048 35.962 108.649C36.2494 108.928 36.579 109.156 36.9509 109.308C37.5155 109.54 38.0953 109.574 38.648 109.498C40.9909 109.17 42.4836 106.903 41.8564 104.621C41.7094 104.083 41.4474 103.564 41.0112 103.137C40.7915 102.922 40.5413 102.746 40.2708 102.608C40.6782 102.347 41.0298 102.016 41.2834 101.609C41.6063 101.091 41.7364 100.525 41.7533 99.9672C41.8226 97.6023 39.8364 95.753 37.4834 95.988H37.4817Z" fill="url(#paint29_radial_1483_12087)"/>
<path d="M33.878 105.081C35.1131 105.081 36.1144 104.079 36.1144 102.844C36.1144 101.609 35.1131 100.608 33.878 100.608C32.6429 100.608 31.6416 101.609 31.6416 102.844C31.6416 104.079 32.6429 105.081 33.878 105.081Z" fill="#FDEB79"/>
<path d="M217.066 103.779C216.779 103.551 216.438 103.377 216.04 103.319C215.971 103.309 215.9 103.304 215.83 103.303C215.944 103.118 216.032 102.917 216.082 102.703C216.173 102.312 216.135 101.931 216.028 101.58C215.571 100.091 213.942 99.3575 212.524 100.003C212.19 100.155 211.879 100.379 211.647 100.706C211.52 100.885 211.428 101.083 211.366 101.293C211.318 101.241 211.268 101.193 211.215 101.147C210.908 100.888 210.552 100.748 210.19 100.684C208.656 100.413 207.261 101.529 207.191 103.085C207.174 103.452 207.232 103.83 207.418 104.186C207.561 104.461 207.769 104.691 208.015 104.878C207.828 104.957 207.652 105.06 207.496 105.192C207.189 105.45 206.991 105.778 206.868 106.124C206.344 107.591 207.211 109.153 208.733 109.484C209.092 109.562 209.475 109.567 209.857 109.444C210.108 109.363 210.336 109.229 210.539 109.06C210.547 109.324 210.598 109.583 210.703 109.825C210.864 110.193 211.122 110.475 211.418 110.693C212.674 111.613 214.419 111.228 215.17 109.863C215.348 109.541 215.462 109.176 215.452 108.774C215.447 108.572 215.41 108.374 215.345 108.185C215.657 108.249 215.975 108.253 216.282 108.177C216.672 108.081 216.993 107.874 217.257 107.618C218.375 106.533 218.286 104.749 217.067 103.78L217.066 103.779Z" fill="url(#paint30_radial_1483_12087)"/>
<path d="M211.192 106.419C211.775 106.986 212.707 106.973 213.274 106.389C213.841 105.806 213.828 104.874 213.244 104.307C212.661 103.741 211.729 103.754 211.162 104.337C210.596 104.92 210.609 105.853 211.192 106.419Z" fill="#FDEB79"/>
<path d="M225.56 410.975C226.917 409.244 229.641 408.145 231.865 408.989C234.141 409.852 234.971 412.204 235.545 414.282C237.639 413.512 240.125 413.568 242.163 414.441C243.3 414.927 244.328 415.662 245.197 416.548C245.405 415.803 245.718 415.074 246.27 414.37C247.627 412.64 250.35 411.541 252.574 412.385C254.85 413.248 255.68 415.6 256.254 417.678C258.348 416.908 260.834 416.964 262.872 417.836C267.037 419.617 269.765 424.715 268.427 428.491C268.32 428.788 268.193 429.094 268.049 429.401C270.311 428.668 272.908 430.25 273.617 432.236C273.93 433.111 273.945 433.948 273.809 434.772C274.839 434.83 275.855 435.057 276.779 435.452C280.944 437.234 283.673 442.332 282.334 446.109C282.227 446.405 282.101 446.712 281.956 447.018C284.218 446.285 286.817 447.866 287.525 449.852C288.239 451.846 287.404 453.642 286.765 455.534C287.949 456.007 289.129 456.309 289.978 457.302C290.5 457.914 290.831 458.633 290.999 459.38H156.962L156.961 459.378H117.305C116.739 458.063 116.98 456.355 117.875 455.304L117.878 455.301C118.515 454.556 119.471 454.01 120.501 453.732C120.759 453.662 123.255 453.29 123.29 453.645C123.184 452.503 123.078 451.341 123.383 450.228C124.045 447.82 127.418 446.213 129.719 448.311C129.832 446.432 130.14 444.571 132.03 443.301C133.889 442.052 136.055 442.292 137.991 443.165C138.391 441.669 138.271 440.19 139.347 438.833C140.377 437.536 142.444 436.711 144.132 437.344C145.859 437.991 146.489 439.755 146.925 441.314C148.514 440.736 150.401 440.779 151.947 441.433C153.918 442.266 155.465 444.066 156.105 445.99C156.814 445.948 157.411 445.975 157.431 446.175C157.291 444.653 157.151 443.104 157.552 441.619C158.424 438.409 162.868 436.266 165.899 439.064C166.049 436.559 166.455 434.076 168.945 432.383C171.394 430.718 174.248 431.038 176.799 432.202C177.326 430.208 177.167 428.236 178.585 426.427C179.942 424.697 182.666 423.597 184.891 424.442C187.166 425.305 187.997 427.656 188.57 429.735C190.664 428.965 193.15 429.02 195.188 429.892C196.336 430.383 197.374 431.127 198.249 432.026C198.97 431.491 199.829 431.086 200.731 430.839C201.072 430.746 204.356 430.251 204.405 430.723C204.265 429.202 204.126 427.652 204.526 426.168C205.399 422.958 209.844 420.814 212.875 423.611C213.024 421.107 213.43 418.625 215.92 416.932C218.368 415.267 221.223 415.586 223.774 416.75C224.3 414.756 224.142 412.784 225.56 410.975Z" fill="url(#paint31_linear_1483_12087)"/>
<path d="M237.976 425.983C237.701 426.01 237.425 426.095 237.18 426.273C237.137 426.304 237.096 426.338 237.058 426.374C237.022 426.214 236.965 426.06 236.879 425.918C236.723 425.659 236.502 425.473 236.26 425.339C235.231 424.774 233.965 425.234 233.538 426.327C233.437 426.585 233.387 426.869 233.434 427.168C233.459 427.331 233.513 427.487 233.59 427.632C233.537 427.63 233.484 427.63 233.431 427.633C233.129 427.654 232.863 427.766 232.634 427.921C231.663 428.58 231.495 429.916 232.275 430.794C232.458 431.002 232.688 431.175 232.976 431.27C233.197 431.343 233.43 431.358 233.662 431.33C233.602 431.471 233.561 431.619 233.546 431.772C233.516 432.073 233.581 432.354 233.696 432.606C234.183 433.675 235.473 434.063 236.469 433.442C236.704 433.295 236.913 433.098 237.055 432.831C237.148 432.655 237.201 432.463 237.222 432.265C237.365 432.403 237.528 432.516 237.713 432.592C237.993 432.707 238.281 432.723 238.555 432.686C239.717 432.523 240.458 431.398 240.147 430.266C240.074 429.999 239.944 429.742 239.727 429.53C239.618 429.423 239.494 429.336 239.36 429.267C239.562 429.138 239.737 428.974 239.862 428.771C240.023 428.515 240.087 428.234 240.096 427.957C240.13 426.784 239.144 425.866 237.977 425.983H237.976Z" fill="url(#paint32_radial_1483_12087)"/>
<path d="M236.188 430.494C236.801 430.494 237.297 429.997 237.297 429.384C237.297 428.771 236.801 428.274 236.188 428.274C235.575 428.274 235.078 428.771 235.078 429.384C235.078 429.997 235.575 430.494 236.188 430.494Z" fill="#F481B4"/>
<path d="M172.31 443.957C172.102 443.978 171.892 444.043 171.707 444.177C171.674 444.201 171.643 444.227 171.614 444.254C171.587 444.133 171.543 444.016 171.478 443.908C171.36 443.712 171.193 443.571 171.009 443.47C170.229 443.041 169.27 443.39 168.945 444.219C168.869 444.414 168.831 444.629 168.866 444.856C168.886 444.98 168.927 445.097 168.985 445.208C168.945 445.206 168.905 445.206 168.865 445.209C168.636 445.225 168.434 445.309 168.26 445.427C167.524 445.927 167.397 446.939 167.988 447.605C168.127 447.762 168.301 447.894 168.519 447.966C168.687 448.021 168.864 448.032 169.039 448.011C168.994 448.118 168.963 448.23 168.952 448.347C168.929 448.575 168.978 448.788 169.065 448.979C169.435 449.789 170.412 450.083 171.168 449.613C171.346 449.501 171.505 449.351 171.612 449.149C171.683 449.015 171.723 448.87 171.739 448.72C171.847 448.825 171.971 448.911 172.11 448.968C172.323 449.055 172.541 449.068 172.749 449.039C173.63 448.916 174.192 448.063 173.956 447.205C173.9 447.002 173.802 446.807 173.638 446.646C173.555 446.566 173.461 446.499 173.359 446.447C173.513 446.349 173.645 446.225 173.74 446.072C173.862 445.877 173.911 445.664 173.917 445.454C173.943 444.565 173.196 443.869 172.311 443.957H172.31Z" fill="url(#paint33_radial_1483_12087)"/>
<path d="M170.954 447.378C171.419 447.378 171.796 447.002 171.796 446.537C171.796 446.072 171.419 445.696 170.954 445.696C170.49 445.696 170.113 446.072 170.113 446.537C170.113 447.002 170.49 447.378 170.954 447.378Z" fill="#F481B4"/>
<path d="M217.019 428.773C216.811 428.794 216.601 428.858 216.416 428.993C216.383 429.017 216.352 429.043 216.323 429.07C216.296 428.949 216.252 428.832 216.187 428.724C216.069 428.528 215.902 428.387 215.718 428.286C214.938 427.857 213.979 428.205 213.654 429.035C213.578 429.23 213.54 429.445 213.575 429.672C213.595 429.796 213.636 429.913 213.694 430.024C213.654 430.022 213.614 430.022 213.574 430.025C213.345 430.041 213.143 430.125 212.969 430.243C212.233 430.742 212.106 431.755 212.697 432.421C212.836 432.578 213.01 432.71 213.228 432.782C213.396 432.837 213.573 432.848 213.748 432.827C213.703 432.934 213.672 433.046 213.661 433.162C213.638 433.391 213.687 433.604 213.774 433.794C214.144 434.605 215.121 434.899 215.877 434.428C216.055 434.317 216.214 434.167 216.321 433.965C216.392 433.831 216.432 433.686 216.448 433.536C216.556 433.641 216.68 433.726 216.819 433.784C217.032 433.871 217.25 433.884 217.458 433.855C218.339 433.732 218.901 432.879 218.665 432.021C218.609 431.818 218.511 431.623 218.347 431.462C218.264 431.381 218.17 431.315 218.068 431.263C218.221 431.165 218.354 431.041 218.449 430.887C218.571 430.693 218.62 430.48 218.626 430.27C218.652 429.381 217.905 428.685 217.02 428.773H217.019Z" fill="url(#paint34_radial_1483_12087)"/>
<path d="M215.663 432.194C216.128 432.194 216.505 431.818 216.505 431.353C216.505 430.888 216.128 430.512 215.663 430.512C215.199 430.512 214.822 430.888 214.822 431.353C214.822 431.818 215.199 432.194 215.663 432.194Z" fill="#F481B4"/>
<path d="M260.148 442.885C259.947 442.906 259.746 442.967 259.568 443.097C259.536 443.12 259.507 443.145 259.478 443.171C259.453 443.054 259.411 442.942 259.348 442.838C259.235 442.65 259.074 442.514 258.897 442.417C258.147 442.005 257.225 442.34 256.913 443.137C256.84 443.324 256.803 443.531 256.837 443.749C256.856 443.868 256.896 443.981 256.951 444.088C256.913 444.086 256.874 444.086 256.836 444.088C256.616 444.104 256.422 444.185 256.255 444.298C255.547 444.778 255.425 445.752 255.993 446.392C256.127 446.543 256.294 446.669 256.504 446.738C256.665 446.792 256.835 446.803 257.004 446.782C256.96 446.885 256.93 446.993 256.919 447.104C256.897 447.324 256.945 447.529 257.029 447.712C257.384 448.491 258.323 448.774 259.049 448.321C259.22 448.214 259.373 448.07 259.477 447.876C259.544 447.747 259.583 447.607 259.598 447.463C259.702 447.564 259.821 447.647 259.956 447.702C260.16 447.785 260.37 447.798 260.569 447.77C261.416 447.651 261.956 446.832 261.729 446.007C261.676 445.812 261.581 445.625 261.424 445.47C261.344 445.393 261.254 445.329 261.156 445.279C261.303 445.185 261.431 445.065 261.522 444.918C261.639 444.731 261.686 444.526 261.692 444.324C261.717 443.469 260.999 442.8 260.148 442.885H260.148Z" fill="url(#paint35_radial_1483_12087)"/>
<path d="M258.846 446.173C259.292 446.173 259.654 445.811 259.654 445.364C259.654 444.918 259.292 444.556 258.846 444.556C258.399 444.556 258.037 444.918 258.037 445.364C258.037 445.811 258.399 446.173 258.846 446.173Z" fill="#F481B4"/>
<path d="M146.756 450.223C146.53 450.246 146.303 450.316 146.101 450.462C146.066 450.488 146.033 450.516 146.001 450.545C145.972 450.414 145.924 450.287 145.854 450.17C145.726 449.957 145.544 449.804 145.345 449.695C144.499 449.23 143.459 449.608 143.107 450.507C143.024 450.718 142.983 450.952 143.022 451.198C143.042 451.332 143.087 451.46 143.15 451.58C143.107 451.578 143.063 451.578 143.02 451.58C142.771 451.598 142.553 451.689 142.365 451.817C141.566 452.359 141.428 453.457 142.069 454.179C142.22 454.349 142.409 454.492 142.645 454.57C142.827 454.63 143.019 454.642 143.209 454.619C143.16 454.735 143.127 454.856 143.114 454.983C143.089 455.23 143.143 455.461 143.238 455.668C143.638 456.546 144.698 456.866 145.517 456.355C145.71 456.235 145.882 456.072 145.999 455.853C146.075 455.708 146.119 455.55 146.136 455.387C146.253 455.501 146.388 455.594 146.539 455.656C146.77 455.751 147.006 455.764 147.231 455.733C148.187 455.6 148.796 454.675 148.54 453.744C148.48 453.525 148.373 453.314 148.195 453.139C148.106 453.052 148.004 452.98 147.893 452.923C148.059 452.817 148.203 452.682 148.306 452.516C148.438 452.305 148.491 452.074 148.498 451.846C148.526 450.882 147.716 450.128 146.756 450.223H146.756Z" fill="url(#paint36_radial_1483_12087)"/>
<path d="M145.284 453.932C145.788 453.932 146.196 453.524 146.196 453.02C146.196 452.516 145.788 452.108 145.284 452.108C144.78 452.108 144.372 452.516 144.372 453.02C144.372 453.524 144.78 453.932 145.284 453.932Z" fill="#FDEB79"/>
<path d="M196.326 440.64C196.1 440.663 195.873 440.732 195.672 440.879C195.637 440.904 195.603 440.932 195.571 440.962C195.542 440.83 195.495 440.703 195.424 440.587C195.296 440.374 195.115 440.221 194.915 440.111C194.07 439.646 193.029 440.024 192.678 440.923C192.595 441.135 192.553 441.369 192.592 441.614C192.613 441.749 192.658 441.876 192.72 441.996C192.677 441.994 192.633 441.994 192.59 441.997C192.342 442.014 192.123 442.106 191.935 442.233C191.137 442.775 190.999 443.873 191.639 444.595C191.79 444.766 191.979 444.908 192.216 444.986C192.398 445.046 192.589 445.059 192.78 445.036C192.731 445.152 192.697 445.273 192.684 445.399C192.66 445.647 192.713 445.878 192.808 446.084C193.208 446.963 194.268 447.282 195.087 446.772C195.28 446.651 195.453 446.488 195.569 446.269C195.646 446.124 195.689 445.967 195.706 445.804C195.823 445.918 195.958 446.011 196.11 446.073C196.34 446.167 196.576 446.181 196.802 446.15C197.757 446.016 198.366 445.092 198.11 444.161C198.05 443.942 197.943 443.73 197.766 443.556C197.676 443.468 197.574 443.396 197.464 443.34C197.63 443.234 197.773 443.099 197.877 442.932C198.008 442.721 198.061 442.49 198.068 442.263C198.097 441.298 197.286 440.544 196.327 440.64H196.326Z" fill="url(#paint37_radial_1483_12087)"/>
<path d="M194.855 444.349C195.358 444.349 195.767 443.94 195.767 443.437C195.767 442.933 195.358 442.524 194.855 442.524C194.351 442.524 193.942 442.933 193.942 443.437C193.942 443.94 194.351 444.349 194.855 444.349Z" fill="#FDEB79"/>
<path d="M220.347 445.185C220.127 445.208 219.906 445.276 219.71 445.418C219.675 445.443 219.642 445.47 219.612 445.499C219.583 445.371 219.537 445.247 219.468 445.134C219.343 444.926 219.167 444.777 218.973 444.67C218.148 444.217 217.134 444.585 216.791 445.462C216.711 445.668 216.67 445.896 216.708 446.135C216.728 446.266 216.772 446.39 216.833 446.507C216.791 446.505 216.748 446.505 216.706 446.508C216.464 446.525 216.251 446.614 216.068 446.738C215.29 447.267 215.155 448.337 215.779 449.04C215.927 449.206 216.111 449.346 216.341 449.421C216.519 449.48 216.705 449.492 216.891 449.47C216.843 449.583 216.81 449.701 216.798 449.824C216.774 450.065 216.826 450.29 216.918 450.492C217.309 451.348 218.342 451.659 219.14 451.162C219.328 451.044 219.496 450.886 219.61 450.672C219.684 450.531 219.726 450.377 219.743 450.218C219.858 450.329 219.989 450.42 220.136 450.48C220.361 450.573 220.591 450.586 220.811 450.556C221.742 450.425 222.336 449.524 222.086 448.617C222.028 448.403 221.924 448.197 221.75 448.027C221.663 447.942 221.564 447.872 221.456 447.817C221.618 447.713 221.758 447.582 221.859 447.42C221.987 447.214 222.039 446.989 222.045 446.767C222.073 445.827 221.283 445.092 220.348 445.185H220.347Z" fill="url(#paint38_radial_1483_12087)"/>
<path d="M218.915 448.799C219.406 448.799 219.804 448.401 219.804 447.91C219.804 447.42 219.406 447.021 218.915 447.021C218.424 447.021 218.026 447.42 218.026 447.91C218.026 448.401 218.424 448.799 218.915 448.799Z" fill="#FDEB79"/>
<path d="M239.393 366.505C242.893 362.641 246.127 362.013 246.28 361.985C246.1 362.092 240.269 365.471 238.454 374.511C238.226 375.563 238.112 376.615 238.055 377.514L228.505 376.357C228.209 367.213 222.483 360.017 222.285 359.768C222.481 359.852 226.708 361.825 229.262 368.875C228.803 357.318 224.773 351.219 224.773 351.219C224.773 351.219 229.51 355.212 231.427 365.857C231.137 355.896 228.012 347.586 221.977 342.251C221.977 342.251 230.28 345.485 233.503 360.447C233.943 348.236 231.627 341.788 233.533 335.002C233.533 335.002 233.693 345.701 236.012 352.594C236.08 352.796 236.139 352.996 236.202 353.196C237.482 347.341 239.415 341.16 242.321 336.582C242.22 336.868 238.268 348.13 238.583 355.452C238.61 356.13 238.615 356.82 238.601 357.512C240.784 353.214 243.524 351.023 243.635 350.935C243.568 351.051 241.457 354.757 240.084 360.077C246.119 351.071 252.621 350.085 252.822 350.059C246.779 353.228 242.253 358.979 239.394 366.5L239.393 366.505Z" fill="url(#paint39_linear_1483_12087)"/>
<path d="M231.943 366.055C231.943 366.055 229.19 369.644 229.479 375.951L212.374 377.358C211.633 368.914 204.977 366.351 204.873 366.313C204.972 366.317 210.311 366.501 213.623 370.653C213.623 370.653 211.376 365.183 209.25 361.191C209.25 361.191 214.257 363.755 216.625 370.704C216.625 370.704 216.767 361.462 218.014 358.383C218.014 358.383 217.951 364.937 219.634 367.179C219.634 367.179 221.847 364.914 221.837 357.474C221.837 357.474 223.689 361.786 223.626 368.339C223.626 368.339 224.95 362.578 226.57 360.361C226.52 360.482 224.328 365.648 226.404 369.304C226.404 369.304 226.813 363.317 231.061 360.286C231.061 360.286 229.147 363.386 228.983 369.366C230.163 366.988 231.937 366.055 231.937 366.055L231.943 366.055Z" fill="url(#paint40_linear_1483_12087)"/>
</g>
</g>
<defs>
<filter id="filter0_d_1483_12087" x="0" y="0" width="264" height="462" filterUnits="userSpaceOnUse" color-interpolation-filters="sRGB">
<feFlood flood-opacity="0" result="BackgroundImageFix"/>
<feColorMatrix in="SourceAlpha" type="matrix" values="0 0 0 0 0 0 0 0 0 0 0 0 0 0 0 0 0 0 127 0" result="hardAlpha"/>
<feOffset dx="1" dy="1"/>
<feGaussianBlur stdDeviation="1.5"/>
<feColorMatrix type="matrix" values="0 0 0 0 0 0 0 0 0 0 0 0 0 0 0 0 0 0 0.3 0"/>
<feBlend mode="normal" in2="BackgroundImageFix" result="effect1_dropShadow_1483_12087"/>
<feBlend mode="normal" in="SourceGraphic" in2="effect1_dropShadow_1483_12087" result="shape"/>
</filter>
<linearGradient id="paint0_linear_1483_12087" x1="131" y1="-133" x2="131" y2="75" gradientUnits="userSpaceOnUse">
<stop stop-color="#F594C1"/>
<stop offset="1" stop-color="white"/>
</linearGradient>
<linearGradient id="paint1_linear_1483_12087" x1="222.933" y1="184.88" x2="231.401" y2="133.421" gradientUnits="userSpaceOnUse">
<stop stop-color="#F6ACD2"/>
<stop offset="1" stop-color="#F481B4"/>
</linearGradient>
<linearGradient id="paint2_linear_1483_12087" x1="222.249" y1="176.382" x2="228.755" y2="136.847" gradientUnits="userSpaceOnUse">
<stop stop-color="#FAFAE6"/>
<stop offset="1" stop-color="#FFD285"/>
</linearGradient>
<linearGradient id="paint3_linear_1483_12087" x1="222.249" y1="176.382" x2="228.755" y2="136.847" gradientUnits="userSpaceOnUse">
<stop stop-color="#FAFAE6"/>
<stop offset="1" stop-color="#FFD285"/>
</linearGradient>
<linearGradient id="paint4_linear_1483_12087" x1="222.249" y1="176.382" x2="228.755" y2="136.847" gradientUnits="userSpaceOnUse">
<stop stop-color="#FAFAE6"/>
<stop offset="1" stop-color="#FFD285"/>
</linearGradient>
<linearGradient id="paint5_linear_1483_12087" x1="222.249" y1="176.382" x2="228.755" y2="136.847" gradientUnits="userSpaceOnUse">
<stop stop-color="#FAFAE6"/>
<stop offset="1" stop-color="#FFD285"/>
</linearGradient>
<linearGradient id="paint6_linear_1483_12087" x1="222.249" y1="176.382" x2="228.755" y2="136.847" gradientUnits="userSpaceOnUse">
<stop stop-color="#FAFAE6"/>
<stop offset="1" stop-color="#FFD285"/>
</linearGradient>
<linearGradient id="paint7_linear_1483_12087" x1="222.249" y1="176.382" x2="228.755" y2="136.847" gradientUnits="userSpaceOnUse">
<stop stop-color="#FAFAE6"/>
<stop offset="1" stop-color="#FFD285"/>
</linearGradient>
<linearGradient id="paint8_linear_1483_12087" x1="222.249" y1="176.382" x2="228.755" y2="136.847" gradientUnits="userSpaceOnUse">
<stop stop-color="#FAFAE6"/>
<stop offset="1" stop-color="#FFD285"/>
</linearGradient>
<linearGradient id="paint9_linear_1483_12087" x1="18.9711" y1="214.338" x2="29.0533" y2="279.26" gradientUnits="userSpaceOnUse">
<stop stop-color="#F6ACD2"/>
<stop offset="1" stop-color="#F481B4"/>
</linearGradient>
<linearGradient id="paint10_linear_1483_12087" x1="23.1287" y1="224.24" x2="30.8746" y2="274.118" gradientUnits="userSpaceOnUse">
<stop stop-color="#FAFAE6"/>
<stop offset="1" stop-color="#FFD285"/>
</linearGradient>
<linearGradient id="paint11_linear_1483_12087" x1="23.1287" y1="224.24" x2="30.8746" y2="274.118" gradientUnits="userSpaceOnUse">
<stop stop-color="#FAFAE6"/>
<stop offset="1" stop-color="#FFD285"/>
</linearGradient>
<linearGradient id="paint12_linear_1483_12087" x1="23.1287" y1="224.24" x2="30.8746" y2="274.118" gradientUnits="userSpaceOnUse">
<stop stop-color="#FAFAE6"/>
<stop offset="1" stop-color="#FFD285"/>
</linearGradient>
<linearGradient id="paint13_linear_1483_12087" x1="23.1287" y1="224.24" x2="30.8746" y2="274.118" gradientUnits="userSpaceOnUse">
<stop stop-color="#FAFAE6"/>
<stop offset="1" stop-color="#FFD285"/>
</linearGradient>
<linearGradient id="paint14_linear_1483_12087" x1="23.1287" y1="224.24" x2="30.8746" y2="274.118" gradientUnits="userSpaceOnUse">
<stop stop-color="#FAFAE6"/>
<stop offset="1" stop-color="#FFD285"/>
</linearGradient>
<linearGradient id="paint15_linear_1483_12087" x1="23.1287" y1="224.24" x2="30.8746" y2="274.118" gradientUnits="userSpaceOnUse">
<stop stop-color="#FAFAE6"/>
<stop offset="1" stop-color="#FFD285"/>
</linearGradient>
<linearGradient id="paint16_linear_1483_12087" x1="23.1287" y1="224.24" x2="30.8746" y2="274.118" gradientUnits="userSpaceOnUse">
<stop stop-color="#FAFAE6"/>
<stop offset="1" stop-color="#FFD285"/>
</linearGradient>
<linearGradient id="paint17_linear_1483_12087" x1="9.34465" y1="449.55" x2="9.34465" y2="459.416" gradientUnits="userSpaceOnUse">
<stop stop-color="#FDEB79"/>
<stop offset="0.75" stop-color="#40C3A3"/>
<stop offset="1" stop-color="#209975"/>
</linearGradient>
<linearGradient id="paint18_linear_1483_12087" x1="23.7492" y1="434.273" x2="6.96988" y2="434.273" gradientUnits="userSpaceOnUse">
<stop offset="0.1" stop-color="#5A7EAD"/>
<stop offset="0.17" stop-color="#607DAD"/>
<stop offset="0.7" stop-color="#9378B2"/>
<stop offset="0.97" stop-color="#A776B4"/>
</linearGradient>
<linearGradient id="paint19_linear_1483_12087" x1="16.5156" y1="453.195" x2="13.6677" y2="453.195" gradientUnits="userSpaceOnUse">
<stop stop-color="#7D5743"/>
<stop offset="1" stop-color="#9F4700"/>
</linearGradient>
<linearGradient id="paint20_linear_1483_12087" x1="36.845" y1="424.619" x2="17.3521" y2="424.619" gradientUnits="userSpaceOnUse">
<stop offset="0.03" stop-color="#F6ACD2"/>
<stop offset="0.23" stop-color="#F6B3D3"/>
<stop offset="0.51" stop-color="#F7C8D9"/>
<stop offset="0.86" stop-color="#F9EAE2"/>
<stop offset="1" stop-color="#FAFAE6"/>
</linearGradient>
<linearGradient id="paint21_linear_1483_12087" x1="28.4434" y1="446.607" x2="25.1341" y2="446.607" gradientUnits="userSpaceOnUse">
<stop stop-color="#7D5743"/>
<stop offset="1" stop-color="#9F4700"/>
</linearGradient>
<linearGradient id="paint22_linear_1483_12087" x1="46.5384" y1="429.528" x2="33.2369" y2="429.528" gradientUnits="userSpaceOnUse">
<stop offset="0.1" stop-color="#5A7EAD"/>
<stop offset="0.17" stop-color="#607DAD"/>
<stop offset="0.7" stop-color="#9378B2"/>
<stop offset="0.97" stop-color="#A776B4"/>
</linearGradient>
<linearGradient id="paint23_linear_1483_12087" x1="40.8047" y1="444.528" x2="38.547" y2="444.528" gradientUnits="userSpaceOnUse">
<stop stop-color="#7D5743"/>
<stop offset="1" stop-color="#9F4700"/>
</linearGradient>
<linearGradient id="paint24_linear_1483_12087" x1="13.4985" y1="459.981" x2="13.4985" y2="457.443" gradientUnits="userSpaceOnUse">
<stop offset="0.19" stop-color="#666666"/>
<stop offset="0.35" stop-color="#6A6A6A"/>
<stop offset="0.54" stop-color="#787878"/>
<stop offset="0.74" stop-color="#8F8F8F"/>
<stop offset="0.94" stop-color="#AEAEAE"/>
<stop offset="0.97" stop-color="#B3B3B3"/>
</linearGradient>
<linearGradient id="paint25_linear_1483_12087" x1="45.0242" y1="442.299" x2="45.0242" y2="459.98" gradientUnits="userSpaceOnUse">
<stop stop-color="#FDEB79"/>
<stop offset="0.75" stop-color="#40C3A3"/>
<stop offset="1" stop-color="#209975"/>
</linearGradient>
<radialGradient id="paint26_radial_1483_12087" cx="0" cy="0" r="1" gradientTransform="matrix(-1.21013 -0.442993 -0.439017 1.22109 28.3699 455.164)" gradientUnits="userSpaceOnUse">
<stop offset="0.03" stop-color="#FCFF9C"/>
<stop offset="0.41" stop-color="#F5E69D"/>
<stop offset="0.97" stop-color="#F4C081"/>
</radialGradient>
<radialGradient id="paint27_radial_1483_12087" cx="0" cy="0" r="1" gradientTransform="matrix(-1.21013 -0.442993 -0.439017 1.22109 48.7439 449.24)" gradientUnits="userSpaceOnUse">
<stop offset="0.03" stop-color="#FCFF9C"/>
<stop offset="0.41" stop-color="#F5E69D"/>
<stop offset="0.97" stop-color="#F4C081"/>
</radialGradient>
<radialGradient id="paint28_radial_1483_12087" cx="0" cy="0" r="1" gradientTransform="matrix(-1.15019 -0.42105 -0.417272 1.16061 39.8441 456.155)" gradientUnits="userSpaceOnUse">
<stop offset="0.03" stop-color="#F6ACD2"/>
<stop offset="0.41" stop-color="#F59DC7"/>
<stop offset="0.97" stop-color="#F481B4"/>
</radialGradient>
<radialGradient id="paint29_radial_1483_12087" cx="0" cy="0" r="1" gradientUnits="userSpaceOnUse" gradientTransform="translate(35.5417 101.48) rotate(-19.94) scale(8.53432)">
<stop offset="0.03" stop-color="#F6ACD2"/>
<stop offset="0.41" stop-color="#F59DC7"/>
<stop offset="0.97" stop-color="#F481B4"/>
</radialGradient>
<radialGradient id="paint30_radial_1483_12087" cx="0" cy="0" r="1" gradientTransform="matrix(5.49998 1.4439 -1.44389 5.50002 212.5 105.209)" gradientUnits="userSpaceOnUse">
<stop offset="0.03" stop-color="#FFEC9F"/>
<stop offset="0.432692" stop-color="#FF9E88"/>
<stop offset="0.97" stop-color="#FF66AA"/>
</radialGradient>
<linearGradient id="paint31_linear_1483_12087" x1="204" y1="408.699" x2="204" y2="459.38" gradientUnits="userSpaceOnUse">
<stop stop-color="#FDEB79"/>
<stop offset="0.75" stop-color="#40C3A3"/>
<stop offset="1" stop-color="#209975"/>
</linearGradient>
<radialGradient id="paint32_radial_1483_12087" cx="0" cy="0" r="1" gradientUnits="userSpaceOnUse" gradientTransform="translate(237.014 428.707) rotate(-19.94) scale(4.23439)">
<stop offset="0.03" stop-color="#FCFF9C"/>
<stop offset="0.41" stop-color="#F5E69D"/>
<stop offset="0.97" stop-color="#F4C081"/>
</radialGradient>
<radialGradient id="paint33_radial_1483_12087" cx="0" cy="0" r="1" gradientUnits="userSpaceOnUse" gradientTransform="translate(171.58 446.023) rotate(-19.94) scale(3.21014)">
<stop offset="0.03" stop-color="#FCFF9C"/>
<stop offset="0.41" stop-color="#F5E69D"/>
<stop offset="0.97" stop-color="#F4C081"/>
</radialGradient>
<radialGradient id="paint34_radial_1483_12087" cx="0" cy="0" r="1" gradientUnits="userSpaceOnUse" gradientTransform="translate(216.289 430.839) rotate(-19.94) scale(3.21014)">
<stop offset="0.03" stop-color="#FCFF9C"/>
<stop offset="0.41" stop-color="#F5E69D"/>
<stop offset="0.97" stop-color="#F4C081"/>
</radialGradient>
<radialGradient id="paint35_radial_1483_12087" cx="0" cy="0" r="1" gradientUnits="userSpaceOnUse" gradientTransform="translate(259.446 444.871) rotate(-19.94) scale(3.08567)">
<stop offset="0.03" stop-color="#FCFF9C"/>
<stop offset="0.41" stop-color="#F5E69D"/>
<stop offset="0.97" stop-color="#F4C081"/>
</radialGradient>
<radialGradient id="paint36_radial_1483_12087" cx="0" cy="0" r="1" gradientUnits="userSpaceOnUse" gradientTransform="translate(145.965 452.463) rotate(-19.94) scale(3.48075)">
<stop offset="0.03" stop-color="#F6ACD2"/>
<stop offset="0.41" stop-color="#F59DC7"/>
<stop offset="0.97" stop-color="#F481B4"/>
</radialGradient>
<radialGradient id="paint37_radial_1483_12087" cx="0" cy="0" r="1" gradientUnits="userSpaceOnUse" gradientTransform="translate(195.535 442.88) rotate(-19.94) scale(3.48075)">
<stop offset="0.03" stop-color="#F6ACD2"/>
<stop offset="0.41" stop-color="#F59DC7"/>
<stop offset="0.97" stop-color="#F481B4"/>
</radialGradient>
<radialGradient id="paint38_radial_1483_12087" cx="0" cy="0" r="1" gradientUnits="userSpaceOnUse" gradientTransform="translate(219.576 447.368) rotate(-19.94) scale(3.3925)">
<stop offset="0.03" stop-color="#F6ACD2"/>
<stop offset="0.41" stop-color="#F59DC7"/>
<stop offset="0.97" stop-color="#F481B4"/>
</radialGradient>
<linearGradient id="paint39_linear_1483_12087" x1="238.675" y1="335.625" x2="233.665" y2="376.982" gradientUnits="userSpaceOnUse">
<stop stop-color="#FAFAE6"/>
<stop offset="1" stop-color="#FFD285"/>
</linearGradient>
<linearGradient id="paint40_linear_1483_12087" x1="217.722" y1="357.812" x2="219.284" y2="376.79" gradientUnits="userSpaceOnUse">
<stop stop-color="#FDEB79"/>
<stop offset="0.75" stop-color="#40C3A3"/>
<stop offset="1" stop-color="#209975"/>
</linearGradient>
<clipPath id="clip0_1483_12087">
<rect x="2" y="2" width="258" height="456" rx="12" fill="white"/>
</clipPath>
</defs>
</svg>
