<svg width="262" height="462" viewBox="0 0 262 462" fill="none" xmlns="http://www.w3.org/2000/svg">
<g filter="url(#filter0_d_1483_12244)">
<g clip-path="url(#clip0_1483_12244)">
<rect x="2" y="2" width="256" height="456" rx="12" fill="url(#paint0_linear_1483_12244)"/>
<g opacity="0.8">
<path d="M174.059 261.291C178.549 262.858 180.991 265.551 185.819 270.345C190.533 275.026 197.176 281.09 208.608 282.146C219.876 283.185 227.394 278.72 232.774 275.34C238.152 271.961 240.976 270.1 245.61 269.755C248.303 269.554 251.536 270.66 255.064 273.242C258.546 275.791 261.261 279.031 262.518 280.952L280.036 269.487C277.575 265.727 273.183 260.559 267.43 256.348C261.723 252.171 253.593 248.165 244.054 248.876C233.398 249.67 226.241 254.718 221.637 257.611C217.035 260.502 214.566 261.67 210.532 261.298C206.663 260.94 204.467 259.357 200.571 255.489C196.789 251.733 190.851 244.975 180.955 241.523L174.059 261.291Z" fill="url(#paint1_linear_1483_12244)"/>
<path d="M268.201 271.195C267.757 271.565 267.697 272.225 268.067 272.669C269.019 273.813 269.805 274.881 270.402 275.793L272.153 274.647C271.508 273.661 270.674 272.528 269.675 271.329C269.305 270.885 268.645 270.825 268.201 271.195Z" fill="url(#paint2_linear_1483_12244)"/>
<path d="M255.553 261.397C255.294 261.914 255.503 262.543 256.02 262.802C258.375 263.982 260.562 265.49 262.515 267.114C262.96 267.484 263.62 267.423 263.99 266.979C264.359 266.535 264.299 265.875 263.855 265.505C261.803 263.799 259.483 262.196 256.958 260.93C256.441 260.671 255.812 260.88 255.553 261.397Z" fill="url(#paint3_linear_1483_12244)"/>
<path d="M239.124 260.337C239.267 260.897 239.837 261.235 240.397 261.092C241.794 260.736 243.288 260.481 244.91 260.36C246.198 260.264 247.467 260.309 248.713 260.474C249.287 260.549 249.813 260.146 249.889 259.573C249.964 259 249.561 258.474 248.988 258.398C247.607 258.216 246.193 258.165 244.754 258.272C243.008 258.402 241.392 258.678 239.879 259.064C239.319 259.207 238.981 259.776 239.124 260.337Z" fill="url(#paint4_linear_1483_12244)"/>
<path d="M222.816 267.854C222.306 268.126 222.113 268.76 222.385 269.27C222.658 269.78 223.292 269.973 223.802 269.701C225.223 268.942 226.586 268.103 227.927 267.259C229.278 266.409 230.597 265.559 231.973 264.747C232.471 264.454 232.637 263.812 232.343 263.314C232.05 262.816 231.408 262.65 230.91 262.944C229.499 263.776 228.138 264.652 226.812 265.487C225.477 266.327 224.166 267.133 222.816 267.854Z" fill="url(#paint5_linear_1483_12244)"/>
<path d="M203.829 270.479C203.656 271.031 203.964 271.618 204.516 271.791C206.027 272.263 207.669 272.598 209.474 272.764C211.248 272.928 212.893 272.91 214.437 272.745C215.011 272.683 215.428 272.167 215.366 271.593C215.305 271.018 214.789 270.602 214.214 270.663C212.813 270.813 211.307 270.831 209.667 270.679C208.003 270.526 206.506 270.219 205.14 269.792C204.588 269.62 204.001 269.928 203.829 270.479Z" fill="url(#paint6_linear_1483_12244)"/>
<path d="M188.793 258.562C188.393 258.979 188.405 259.641 188.822 260.042C191.128 262.264 193.382 264.722 195.826 266.803C196.266 267.177 196.927 267.124 197.301 266.684C197.676 266.244 197.623 265.583 197.183 265.208C194.794 263.175 192.72 260.89 190.274 258.534C189.857 258.133 189.195 258.146 188.793 258.562Z" fill="url(#paint7_linear_1483_12244)"/>
<path d="M177.163 252.396C178.71 252.936 180.112 253.582 181.404 254.306C181.908 254.588 182.546 254.409 182.829 253.905C183.112 253.4 182.932 252.762 182.427 252.48C181.034 251.699 179.52 251.001 177.852 250.419L177.163 252.396Z" fill="url(#paint8_linear_1483_12244)"/>
</g>
<g opacity="0.8">
<path d="M85.6625 189.31C81.4813 185.019 80.2419 180.609 77.4946 172.49C74.812 164.563 70.7328 153.991 58.4371 146.374C46.3187 138.866 35.3323 139.674 27.366 140.459C19.4031 141.244 15.1736 141.755 9.75532 139.539C6.60627 138.251 3.58275 135.186 1.05747 130.291C-1.43503 125.46 -2.67356 120.281 -3.01092 117.408L-29.2071 120.484C-28.5469 126.107 -26.5012 134.403 -22.3831 142.385C-18.2979 150.303 -11.3835 159.39 -0.229852 163.952C12.2303 169.048 23.1369 167.381 29.9542 166.708C36.7683 166.037 40.2079 166.108 44.5463 168.796C48.7072 171.374 50.2929 174.394 52.5099 180.945C54.6621 187.305 57.5577 198.263 66.773 207.719L85.6625 189.31Z" fill="url(#paint9_linear_1483_12244)"/>
<path d="M-14.9034 125.215C-14.1946 125.047 -13.7554 124.337 -13.9227 123.628C-14.3533 121.803 -14.6384 120.157 -14.7986 118.793L-17.4178 119.101C-17.2447 120.574 -16.9412 122.321 -16.4897 124.234C-16.3223 124.943 -15.6122 125.382 -14.9034 125.215Z" fill="url(#paint10_linear_1483_12244)"/>
<path d="M-6.15245 143.372C-5.56996 142.935 -5.45211 142.108 -5.8891 141.526C-7.88079 138.87 -9.49855 135.942 -10.7875 133.012C-11.0807 132.345 -11.859 132.042 -12.5256 132.335C-13.1922 132.628 -13.4952 133.406 -13.2022 134.073C-11.8489 137.149 -10.1345 140.261 -7.99883 143.109C-7.56176 143.691 -6.73504 143.809 -6.15245 143.372Z" fill="url(#paint11_linear_1483_12244)"/>
<path d="M11.7731 153.805C11.9269 153.093 11.4745 152.391 10.7627 152.237C8.9879 151.853 7.15903 151.301 5.26287 150.525C3.75718 149.909 2.35111 149.145 1.03898 148.258C0.435365 147.851 -0.384711 148.01 -0.792342 148.613C-1.19988 149.217 -1.04094 150.036 -0.437423 150.444C1.01634 151.426 2.58183 152.278 4.26438 152.966C6.30638 153.802 8.28302 154.4 10.2057 154.815C10.9176 154.969 11.6192 154.516 11.7731 153.805Z" fill="url(#paint12_linear_1483_12244)"/>
<path d="M34.3854 154.499C35.1132 154.478 35.687 153.872 35.6669 153.144C35.6466 152.416 35.0398 151.842 34.3118 151.862C32.2839 151.919 30.2755 152.098 28.2879 152.296C26.2878 152.495 24.3225 152.711 22.3149 152.852C21.5884 152.903 21.0406 153.533 21.0915 154.26C21.1425 154.986 21.773 155.534 22.4995 155.483C24.5577 155.339 26.5849 155.116 28.5496 154.921C30.5271 154.724 32.457 154.553 34.3854 154.499Z" fill="url(#paint13_linear_1483_12244)"/>
<path d="M57.2675 162.215C57.7721 161.689 57.7554 160.854 57.2302 160.35C55.7916 158.967 54.1292 157.667 52.1872 156.464C50.2791 155.282 48.4147 154.378 46.5817 153.696C45.899 153.443 45.1398 153.79 44.8859 154.473C44.6322 155.155 44.9796 155.914 45.6621 156.168C47.3258 156.787 49.0334 157.614 50.798 158.707C52.5877 159.816 54.1023 161.002 55.4025 162.252C55.9277 162.756 56.7629 162.74 57.2675 162.215Z" fill="url(#paint14_linear_1483_12244)"/>
<path d="M67.5174 184.103C68.2035 183.859 68.5617 183.105 68.3177 182.419C66.9663 178.617 65.8077 174.578 64.2228 170.859C63.9372 170.189 63.1623 169.878 62.4923 170.163C61.8223 170.449 61.5107 171.223 61.7963 171.894C63.3455 175.529 64.3997 179.271 65.833 183.302C66.0771 183.989 66.8312 184.347 67.5174 184.103Z" fill="url(#paint15_linear_1483_12244)"/>
<path d="M77.1631 197.594C75.7221 196.116 74.5043 194.599 73.4552 193.056C73.0455 192.455 72.2252 192.298 71.623 192.708C71.0208 193.117 70.8652 193.938 71.2747 194.54C72.4066 196.204 73.7208 197.841 75.2742 199.435L77.1631 197.594Z" fill="url(#paint16_linear_1483_12244)"/>
</g>
<path d="M186.442 404.968C187.078 404.232 188.031 403.692 189.059 403.417C189.317 403.348 191.807 402.98 191.843 403.331C191.737 402.203 191.631 401.054 191.935 399.953C192.595 397.573 195.961 395.983 198.257 398.058C198.37 396.2 198.677 394.36 200.564 393.104C202.418 391.869 204.58 392.107 206.512 392.97C206.911 391.491 206.791 390.029 207.865 388.687C208.893 387.404 210.955 386.589 212.64 387.215C214.364 387.855 214.993 389.599 215.427 391.14C217.013 390.569 218.896 390.61 220.439 391.257C223.593 392.578 225.66 396.358 224.646 399.158C224.565 399.379 224.469 399.606 224.36 399.833C226.073 399.289 228.04 400.462 228.577 401.934C229.118 403.414 228.486 404.745 228.002 406.148C228.899 406.499 229.792 406.723 230.435 407.459C230.831 407.913 231.082 408.446 231.209 409H185.87C185.305 407.7 185.545 406.011 186.438 404.972L186.442 404.968Z" fill="url(#paint17_linear_1483_12244)"/>
<path d="M218.788 111.786C218.238 111.842 217.686 112.012 217.196 112.371C217.111 112.433 217.029 112.503 216.952 112.575C216.881 112.252 216.765 111.941 216.594 111.656C216.282 111.133 215.841 110.758 215.356 110.489C213.298 109.35 210.767 110.276 209.912 112.481C209.711 113 209.61 113.573 209.704 114.174C209.754 114.504 209.863 114.817 210.016 115.111C209.91 115.106 209.805 115.106 209.699 115.113C209.095 115.155 208.563 115.38 208.105 115.692C206.163 117.021 205.828 119.714 207.386 121.484C207.753 121.901 208.213 122.251 208.788 122.442C209.231 122.589 209.697 122.62 210.16 122.564C210.041 122.848 209.959 123.145 209.929 123.455C209.868 124.062 209.999 124.628 210.229 125.135C211.203 127.289 213.781 128.071 215.774 126.82C216.244 126.524 216.663 126.126 216.947 125.588C217.133 125.233 217.238 124.846 217.28 124.447C217.565 124.726 217.893 124.954 218.262 125.106C218.822 125.338 219.397 125.372 219.946 125.296C222.27 124.968 223.751 122.701 223.129 120.419C222.983 119.881 222.723 119.362 222.29 118.935C222.072 118.72 221.824 118.544 221.556 118.405C221.96 118.145 222.309 117.814 222.56 117.406C222.881 116.889 223.01 116.323 223.027 115.765C223.096 113.4 221.125 111.551 218.79 111.786H218.788Z" fill="url(#paint18_radial_1483_12244)"/>
<path d="M215.212 120.879C216.438 120.879 217.431 119.877 217.431 118.642C217.431 117.407 216.438 116.406 215.212 116.406C213.987 116.406 212.993 117.407 212.993 118.642C212.993 119.877 213.987 120.879 215.212 120.879Z" fill="#FDEB79"/>
<path d="M228.298 317.571C228.013 317.343 227.674 317.168 227.28 317.111C227.211 317.101 227.141 317.095 227.071 317.094C227.185 316.909 227.272 316.709 227.321 316.495C227.412 316.104 227.374 315.723 227.268 315.372C226.814 313.882 225.198 313.149 223.79 313.794C223.459 313.946 223.151 314.17 222.921 314.497C222.795 314.676 222.704 314.874 222.642 315.084C222.594 315.032 222.544 314.983 222.491 314.938C222.187 314.678 221.834 314.539 221.475 314.475C219.953 314.204 218.569 315.32 218.499 316.876C218.482 317.243 218.54 317.621 218.725 317.977C218.867 318.251 219.073 318.481 219.317 318.669C219.132 318.748 218.957 318.85 218.802 318.982C218.498 319.241 218.302 319.569 218.179 319.914C217.659 321.382 218.52 322.944 220.03 323.275C220.387 323.352 220.766 323.358 221.145 323.235C221.395 323.154 221.621 323.02 221.822 322.851C221.83 323.114 221.88 323.373 221.985 323.616C222.144 323.984 222.401 324.266 222.694 324.484C223.941 325.404 225.673 325.019 226.418 323.654C226.593 323.333 226.707 322.967 226.697 322.565C226.692 322.363 226.655 322.165 226.591 321.976C226.901 322.04 227.216 322.045 227.52 321.969C227.907 321.873 228.226 321.665 228.488 321.41C229.597 320.325 229.508 318.541 228.299 317.572L228.298 317.571Z" fill="url(#paint19_radial_1483_12244)"/>
<path d="M222.471 320.21C223.049 320.777 223.974 320.764 224.537 320.181C225.099 319.598 225.086 318.665 224.507 318.099C223.928 317.532 223.003 317.545 222.441 318.128C221.879 318.711 221.892 319.643 222.471 320.21Z" fill="#FDEB79"/>
<path d="M33.1954 410.975C31.8488 409.245 29.146 408.145 26.9386 408.989C24.6805 409.852 23.8574 412.205 23.2882 414.283C21.2106 413.513 18.744 413.568 16.7218 414.44C15.5937 414.926 14.5727 415.661 13.7101 416.547C13.5041 415.803 13.1939 415.074 12.6466 414.37C11.2999 412.64 8.59699 411.54 6.38978 412.384C4.13193 413.247 3.30855 415.599 2.73939 417.677C0.661726 416.907 -1.80483 416.964 -3.82702 417.836C-7.95943 419.617 -10.6668 424.716 -9.33873 428.492C-9.23234 428.789 -9.10711 429.095 -8.96373 429.401C-11.2081 428.668 -13.7857 430.249 -14.4891 432.235C-14.7999 433.11 -14.8144 433.947 -14.6796 434.771C-15.7015 434.83 -16.7099 435.056 -17.6268 435.452C-21.7592 437.233 -24.4666 442.332 -23.1385 446.108C-23.0321 446.405 -22.907 446.711 -22.7635 447.017C-25.0079 446.284 -27.5855 447.867 -28.2889 449.852C-28.9967 451.847 -28.169 453.642 -27.535 455.535C-28.7103 456.008 -29.8814 456.31 -30.7235 457.302C-31.2416 457.915 -31.5696 458.634 -31.7362 459.38H101.262L101.263 459.379H140.611C141.173 458.063 140.934 456.355 140.046 455.304L140.042 455.3C139.41 454.556 138.462 454.009 137.44 453.731C137.181 453.661 134.708 453.29 134.672 453.644C134.777 452.503 134.883 451.341 134.581 450.228C133.924 447.82 130.577 446.213 128.294 448.311C128.182 446.432 127.876 444.57 126 443.3C124.156 442.052 122.007 442.291 120.086 443.165C119.689 441.669 119.808 440.189 118.74 438.833C117.718 437.535 115.667 436.711 113.992 437.344C112.278 437.991 111.653 439.755 111.221 441.314C109.644 440.737 107.772 440.778 106.237 441.432C104.281 442.265 102.746 444.066 102.112 445.991C101.409 445.948 100.817 445.975 100.797 446.174C100.936 444.653 101.075 443.104 100.677 441.62C99.8116 438.41 95.4016 436.266 92.3937 439.063C92.2456 436.558 91.8423 434.077 89.3712 432.383C86.9419 430.718 84.1103 431.038 81.5792 432.202C81.0564 430.207 81.2135 428.235 79.8068 426.426C78.4601 424.696 75.7573 423.597 73.5499 424.441C71.2918 425.304 70.4678 427.656 69.8986 429.734C67.8209 428.964 65.3543 429.02 63.3322 429.892C62.1928 430.383 61.163 431.128 60.2951 432.026C59.5796 431.491 58.7273 431.086 57.8322 430.839C57.4925 430.746 54.2319 430.25 54.1857 430.723C54.3245 429.202 54.4635 427.652 54.0656 426.168C53.2002 422.957 48.7903 420.815 45.7824 423.612C45.6343 421.107 45.2319 418.624 42.7609 416.931C40.3314 415.266 37.4992 415.586 34.9679 416.751C34.445 414.756 34.6021 412.784 33.1954 410.975Z" fill="url(#paint20_linear_1483_12244)"/>
<path d="M20.8756 425.982C21.1486 426.01 21.4224 426.095 21.6654 426.272C21.7078 426.303 21.7486 426.338 21.7869 426.374C21.8218 426.214 21.8793 426.059 21.9641 425.918C22.1189 425.659 22.3378 425.472 22.5783 425.339C23.5994 424.774 24.8552 425.233 25.2797 426.327C25.3795 426.584 25.4295 426.869 25.3829 427.167C25.3579 427.331 25.3038 427.486 25.2281 427.632C25.2805 427.629 25.3329 427.629 25.3854 427.633C25.685 427.654 25.9488 427.765 26.176 427.921C27.1397 428.58 27.3061 429.916 26.533 430.794C26.3507 431.001 26.1227 431.175 25.8372 431.269C25.6175 431.342 25.3862 431.358 25.1565 431.33C25.2156 431.471 25.2564 431.618 25.2713 431.772C25.3013 432.073 25.2364 432.354 25.1224 432.606C24.6389 433.674 23.3598 434.062 22.3711 433.442C22.1381 433.295 21.93 433.097 21.7894 432.83C21.697 432.654 21.6446 432.462 21.6238 432.264C21.4823 432.403 21.32 432.516 21.1369 432.591C20.859 432.706 20.5735 432.723 20.3014 432.685C19.1479 432.523 18.4131 431.398 18.7218 430.266C18.7942 429.999 18.9232 429.741 19.1379 429.529C19.2461 429.423 19.3693 429.335 19.5025 429.267C19.3019 429.137 19.1288 428.973 19.004 428.771C18.845 428.514 18.7809 428.233 18.7726 427.957C18.7385 426.783 19.7163 425.866 20.8748 425.982H20.8756Z" fill="url(#paint21_radial_1483_12244)"/>
<path d="M22.65 430.493C22.0419 430.493 21.5489 429.996 21.5489 429.384C21.5489 428.771 22.0419 428.274 22.65 428.274C23.258 428.274 23.751 428.771 23.751 429.384C23.751 429.996 23.258 430.493 22.65 430.493Z" fill="#F481B4"/>
<path d="M86.0329 443.957C86.2398 443.978 86.4474 444.043 86.6316 444.177C86.6638 444.201 86.6947 444.227 86.7237 444.254C86.7502 444.133 86.7938 444.016 86.8581 443.908C86.9755 443.712 87.1414 443.571 87.3237 443.47C88.0979 443.041 89.0499 443.39 89.3717 444.219C89.4474 444.414 89.4852 444.629 89.4499 444.856C89.431 444.98 89.39 445.097 89.3325 445.208C89.3723 445.206 89.412 445.206 89.4518 445.209C89.6789 445.225 89.8789 445.309 90.0511 445.427C90.7817 445.927 90.9079 446.939 90.3218 447.605C90.1836 447.762 90.0108 447.894 89.7944 447.966C89.6278 448.021 89.4524 448.032 89.2783 448.011C89.3231 448.118 89.354 448.23 89.3653 448.347C89.3881 448.575 89.3388 448.788 89.2524 448.979C88.8859 449.789 87.9162 450.083 87.1666 449.613C86.99 449.501 86.8323 449.351 86.7256 449.149C86.6556 449.015 86.6159 448.87 86.6001 448.72C86.4928 448.825 86.3698 448.911 86.231 448.968C86.0203 449.055 85.8039 449.068 85.5976 449.039C84.7231 448.916 84.166 448.063 84.4001 447.205C84.455 447.002 84.5528 446.807 84.7156 446.646C84.7976 446.566 84.8909 446.499 84.9919 446.447C84.8398 446.349 84.7086 446.225 84.614 446.072C84.4935 445.877 84.4449 445.664 84.4386 445.454C84.4127 444.565 85.154 443.869 86.0323 443.957H86.0329Z" fill="url(#paint22_radial_1483_12244)"/>
<path d="M87.3772 447.378C86.9162 447.378 86.5425 447.002 86.5425 446.537C86.5425 446.072 86.9162 445.696 87.3772 445.696C87.8382 445.696 88.2119 446.072 88.2119 446.537C88.2119 447.002 87.8382 447.378 87.3772 447.378Z" fill="#F481B4"/>
<path d="M41.6696 428.773C41.8765 428.794 42.0841 428.858 42.2683 428.993C42.3005 429.016 42.3314 429.042 42.3605 429.07C42.387 428.948 42.4305 428.831 42.4948 428.724C42.6122 428.527 42.7781 428.386 42.9604 428.285C43.7346 427.857 44.6866 428.205 45.0084 429.034C45.0841 429.229 45.1219 429.445 45.0866 429.671C45.0677 429.795 45.0267 429.913 44.9693 430.023C45.009 430.022 45.0488 430.022 45.0885 430.024C45.3156 430.04 45.5156 430.125 45.6879 430.242C46.4185 430.742 46.5446 431.755 45.9585 432.421C45.8204 432.578 45.6475 432.709 45.4311 432.781C45.2645 432.836 45.0891 432.848 44.915 432.827C44.9598 432.934 44.9907 433.046 45.0021 433.162C45.0248 433.39 44.9756 433.603 44.8891 433.794C44.5226 434.604 43.5529 434.898 42.8034 434.428C42.6267 434.317 42.469 434.167 42.3623 433.964C42.2923 433.831 42.2526 433.685 42.2368 433.535C42.1295 433.64 42.0065 433.726 41.8677 433.783C41.657 433.87 41.4406 433.883 41.2343 433.854C40.3598 433.731 39.8028 432.878 40.0368 432.02C40.0917 431.818 40.1895 431.623 40.3523 431.462C40.4343 431.381 40.5277 431.315 40.6286 431.263C40.4766 431.165 40.3453 431.04 40.2507 430.887C40.1302 430.692 40.0816 430.479 40.0753 430.27C40.0494 429.38 40.7908 428.684 41.669 428.773H41.6696Z" fill="url(#paint23_radial_1483_12244)"/>
<path d="M43.0139 432.194C42.553 432.194 42.1793 431.817 42.1793 431.352C42.1793 430.888 42.553 430.511 43.0139 430.511C43.4749 430.511 43.8486 430.888 43.8486 431.352C43.8486 431.817 43.4749 432.194 43.0139 432.194Z" fill="#F481B4"/>
<path d="M-1.12438 442.885C-0.925461 442.905 -0.725941 442.967 -0.548858 443.096C-0.51793 443.119 -0.488214 443.144 -0.460317 443.17C-0.434847 443.054 -0.393002 442.941 -0.331144 442.838C-0.218346 442.649 -0.0588502 442.513 0.116413 442.416C0.860522 442.004 1.77565 442.339 2.08494 443.136C2.15771 443.324 2.1941 443.531 2.16014 443.749C2.14194 443.868 2.10252 443.981 2.04734 444.087C2.08554 444.085 2.12375 444.085 2.16196 444.088C2.38028 444.103 2.57252 444.184 2.73808 444.297C3.44034 444.778 3.56163 445.751 2.99824 446.391C2.86543 446.542 2.69927 446.669 2.49126 446.738C2.33115 446.791 2.16256 446.802 1.99518 446.782C2.03824 446.885 2.06796 446.992 2.07887 447.104C2.1007 447.323 2.0534 447.528 1.97032 447.711C1.61797 448.49 0.685866 448.773 -0.0345922 448.321C-0.204397 448.214 -0.356009 448.07 -0.458498 447.875C-0.525814 447.747 -0.56402 447.607 -0.579181 447.463C-0.682276 447.564 -0.800533 447.646 -0.933951 447.701C-1.1365 447.785 -1.34452 447.797 -1.54282 447.77C-2.38336 447.651 -2.91885 446.831 -2.69386 446.006C-2.6411 445.812 -2.5471 445.624 -2.39064 445.47C-2.3118 445.392 -2.22204 445.328 -2.12501 445.278C-2.27116 445.184 -2.39731 445.064 -2.48827 444.917C-2.6041 444.73 -2.6508 444.525 -2.65686 444.324C-2.68173 443.469 -1.96915 442.8 -1.12498 442.885H-1.12438Z" fill="url(#paint24_radial_1483_12244)"/>
<path d="M111.389 450.223C111.614 450.246 111.839 450.315 112.038 450.462C112.073 450.487 112.107 450.515 112.138 450.545C112.167 450.413 112.214 450.286 112.284 450.17C112.411 449.957 112.591 449.804 112.789 449.694C113.628 449.23 114.661 449.607 115.009 450.506C115.092 450.718 115.133 450.952 115.094 451.197C115.074 451.332 115.029 451.459 114.967 451.579C115.01 451.577 115.053 451.577 115.096 451.58C115.343 451.597 115.559 451.689 115.746 451.816C116.538 452.358 116.675 453.456 116.04 454.178C115.89 454.349 115.702 454.491 115.468 454.569C115.287 454.629 115.097 454.642 114.908 454.619C114.957 454.735 114.99 454.856 115.003 454.982C115.027 455.23 114.974 455.461 114.88 455.667C114.483 456.546 113.431 456.865 112.619 456.355C112.427 456.234 112.256 456.071 112.14 455.852C112.064 455.707 112.021 455.55 112.004 455.387C111.888 455.501 111.755 455.594 111.604 455.656C111.376 455.75 111.141 455.764 110.917 455.733C109.969 455.599 109.365 454.675 109.619 453.744C109.678 453.525 109.784 453.313 109.961 453.139C110.05 453.051 110.151 452.979 110.26 452.923C110.096 452.817 109.953 452.682 109.851 452.515C109.72 452.304 109.667 452.073 109.661 451.846C109.632 450.881 110.436 450.127 111.389 450.223H111.389Z" fill="url(#paint25_radial_1483_12244)"/>
<path d="M112.85 453.932C112.35 453.932 111.945 453.523 111.945 453.02C111.945 452.516 112.35 452.107 112.85 452.107C113.35 452.107 113.755 452.516 113.755 453.02C113.755 453.523 113.35 453.932 112.85 453.932Z" fill="#FDEB79"/>
<path d="M62.2027 440.64C62.4271 440.663 62.6521 440.732 62.8519 440.879C62.8868 440.904 62.9203 440.932 62.9518 440.962C62.9805 440.83 63.0277 440.703 63.0975 440.587C63.2247 440.374 63.4046 440.221 63.6023 440.111C64.4417 439.646 65.474 440.024 65.8229 440.923C65.905 441.135 65.946 441.369 65.9077 441.614C65.8872 441.749 65.8427 441.876 65.7805 441.996C65.8236 441.994 65.8667 441.994 65.9098 441.997C66.1561 442.014 66.3729 442.106 66.5597 442.233C67.3519 442.775 67.4887 443.873 66.8531 444.595C66.7033 444.766 66.5159 444.908 66.2812 444.986C66.1006 445.046 65.9105 445.059 65.7217 445.036C65.7702 445.152 65.8037 445.273 65.8161 445.399C65.8407 445.647 65.7873 445.878 65.6936 446.084C65.2962 446.963 64.2447 447.282 63.432 446.772C63.2405 446.651 63.0694 446.488 62.9538 446.269C62.8779 446.124 62.8348 445.967 62.8177 445.804C62.7014 445.918 62.568 446.011 62.4175 446.073C62.189 446.167 61.9544 446.181 61.7307 446.15C60.7825 446.016 60.1785 445.092 60.4322 444.161C60.4918 443.942 60.5978 443.73 60.7743 443.556C60.8632 443.468 60.9645 443.396 61.0739 443.34C60.9091 443.234 60.7668 443.099 60.6642 442.932C60.5335 442.721 60.4808 442.49 60.474 442.263C60.4459 441.298 61.2497 440.544 62.202 440.64H62.2027Z" fill="url(#paint26_radial_1483_12244)"/>
<path d="M63.6623 444.349C63.1625 444.349 62.7573 443.94 62.7573 443.437C62.7573 442.933 63.1625 442.524 63.6623 442.524C64.1622 442.524 64.5674 442.933 64.5674 443.437C64.5674 443.94 64.1622 444.349 63.6623 444.349Z" fill="#FDEB79"/>
<path d="M38.3669 445.185C38.5856 445.207 38.8049 445.275 38.9996 445.417C39.0336 445.442 39.0663 445.47 39.097 445.499C39.125 445.37 39.171 445.247 39.239 445.133C39.363 444.926 39.5384 444.776 39.7311 444.67C40.5492 444.217 41.5553 444.585 41.8953 445.461C41.9753 445.667 42.0153 445.895 41.978 446.134C41.958 446.265 41.9147 446.39 41.854 446.507C41.896 446.505 41.938 446.505 41.98 446.507C42.22 446.524 42.4314 446.614 42.6134 446.738C43.3855 447.266 43.5189 448.336 42.8994 449.04C42.7534 449.206 42.5707 449.345 42.342 449.421C42.166 449.479 41.9807 449.492 41.7966 449.469C41.844 449.582 41.8766 449.701 41.8887 449.824C41.9127 450.065 41.8606 450.29 41.7693 450.491C41.3819 451.348 40.3571 451.659 39.565 451.161C39.3783 451.044 39.2117 450.885 39.099 450.672C39.025 450.53 38.983 450.377 38.9663 450.218C38.8529 450.329 38.7229 450.42 38.5762 450.48C38.3535 450.572 38.1249 450.586 37.9068 450.555C36.9827 450.425 36.394 449.524 36.6413 448.617C36.6993 448.403 36.8027 448.197 36.9747 448.027C37.0614 447.941 37.1601 447.871 37.2667 447.816C37.1061 447.713 36.9674 447.581 36.8674 447.419C36.74 447.214 36.6887 446.989 36.682 446.767C36.6547 445.827 37.4381 445.092 38.3662 445.185H38.3669Z" fill="url(#paint27_radial_1483_12244)"/>
<path d="M39.7878 448.799C39.3006 448.799 38.9057 448.401 38.9057 447.91C38.9057 447.419 39.3006 447.021 39.7878 447.021C40.275 447.021 40.6699 447.419 40.6699 447.91C40.6699 448.401 40.275 448.799 39.7878 448.799Z" fill="#FDEB79"/>
<path d="M88.3318 305.215C90.697 301.844 93.1616 301.041 93.2779 301.005C93.1479 301.106 88.9171 304.319 88.3557 311.601C88.277 312.45 88.2873 313.288 88.3283 314H80.767C79.6717 306.838 74.5235 301.724 74.3455 301.547C74.5064 301.594 77.991 302.743 80.6506 308.045C79.1993 299 75.4785 294.587 75.4785 294.587C75.4785 294.587 79.5519 297.276 82.054 305.465C80.8868 297.659 77.6624 291.422 72.4492 287.801C72.4492 287.801 79.2335 289.554 83.1631 301.012C82.3518 291.368 79.9352 286.518 80.7807 281C80.7807 281 81.9171 289.398 84.3782 294.598C84.4501 294.75 84.5152 294.902 84.5836 295.054C85.0286 290.327 85.9528 285.282 87.7875 281.405C87.7362 281.64 85.7166 290.873 86.6545 296.6C86.7401 297.131 86.8085 297.673 86.8633 298.219C88.1606 294.631 90.0912 292.647 90.1699 292.567C90.1288 292.665 88.8315 295.78 88.2633 300.095C92.121 292.437 97.1014 291.042 97.2554 291.003C92.8398 294.071 89.8516 299.025 88.3318 305.212V305.215Z" fill="url(#paint28_linear_1483_12244)"/>
<path d="M85.3487 304.824C85.3487 304.824 81.6659 309.048 81.3907 317H60.5763C60.517 306.316 52.7264 302.408 52.6045 302.351C52.723 302.365 59.1582 303.149 62.7504 308.706C62.7504 308.706 60.5763 301.603 58.4021 296.368C58.4021 296.368 64.1998 300.107 66.3739 309.08C66.3739 309.08 67.461 297.487 69.2727 293.748C69.2727 293.748 68.548 301.973 70.3598 304.964C70.3598 304.964 73.2586 302.347 73.9833 293C73.9833 293 75.7951 298.608 75.0704 306.833C75.0704 306.833 77.241 299.733 79.4186 297.116C79.3455 297.264 76.1853 303.526 78.3316 308.333C78.3316 308.333 79.4186 300.855 84.8539 297.487C84.8539 297.487 82.2338 301.182 81.4429 308.678C83.1049 305.812 85.3417 304.824 85.3417 304.824H85.3487Z" fill="url(#paint29_linear_1483_12244)"/>
</g>
</g>
<defs>
<filter id="filter0_d_1483_12244" x="0" y="0" width="262" height="462" filterUnits="userSpaceOnUse" color-interpolation-filters="sRGB">
<feFlood flood-opacity="0" result="BackgroundImageFix"/>
<feColorMatrix in="SourceAlpha" type="matrix" values="0 0 0 0 0 0 0 0 0 0 0 0 0 0 0 0 0 0 127 0" result="hardAlpha"/>
<feOffset dx="1" dy="1"/>
<feGaussianBlur stdDeviation="1.5"/>
<feColorMatrix type="matrix" values="0 0 0 0 0 0 0 0 0 0 0 0 0 0 0 0 0 0 0.3 0"/>
<feBlend mode="normal" in2="BackgroundImageFix" result="effect1_dropShadow_1483_12244"/>
<feBlend mode="normal" in="SourceGraphic" in2="effect1_dropShadow_1483_12244" result="shape"/>
</filter>
<linearGradient id="paint0_linear_1483_12244" x1="130" y1="-133" x2="130" y2="75" gradientUnits="userSpaceOnUse">
<stop stop-color="#F594C1"/>
<stop offset="1" stop-color="white"/>
</linearGradient>
<linearGradient id="paint1_linear_1483_12244" x1="222.008" y1="234.767" x2="230.477" y2="286.226" gradientUnits="userSpaceOnUse">
<stop stop-color="#F6ACD2"/>
<stop offset="1" stop-color="#F481B4"/>
</linearGradient>
<linearGradient id="paint2_linear_1483_12244" x1="221.324" y1="243.265" x2="227.83" y2="282.799" gradientUnits="userSpaceOnUse">
<stop stop-color="#FAFAE6"/>
<stop offset="1" stop-color="#FFD285"/>
</linearGradient>
<linearGradient id="paint3_linear_1483_12244" x1="221.324" y1="243.265" x2="227.83" y2="282.799" gradientUnits="userSpaceOnUse">
<stop stop-color="#FAFAE6"/>
<stop offset="1" stop-color="#FFD285"/>
</linearGradient>
<linearGradient id="paint4_linear_1483_12244" x1="221.324" y1="243.265" x2="227.83" y2="282.799" gradientUnits="userSpaceOnUse">
<stop stop-color="#FAFAE6"/>
<stop offset="1" stop-color="#FFD285"/>
</linearGradient>
<linearGradient id="paint5_linear_1483_12244" x1="221.324" y1="243.265" x2="227.83" y2="282.799" gradientUnits="userSpaceOnUse">
<stop stop-color="#FAFAE6"/>
<stop offset="1" stop-color="#FFD285"/>
</linearGradient>
<linearGradient id="paint6_linear_1483_12244" x1="221.324" y1="243.265" x2="227.83" y2="282.799" gradientUnits="userSpaceOnUse">
<stop stop-color="#FAFAE6"/>
<stop offset="1" stop-color="#FFD285"/>
</linearGradient>
<linearGradient id="paint7_linear_1483_12244" x1="221.324" y1="243.265" x2="227.83" y2="282.799" gradientUnits="userSpaceOnUse">
<stop stop-color="#FAFAE6"/>
<stop offset="1" stop-color="#FFD285"/>
</linearGradient>
<linearGradient id="paint8_linear_1483_12244" x1="221.324" y1="243.265" x2="227.83" y2="282.799" gradientUnits="userSpaceOnUse">
<stop stop-color="#FAFAE6"/>
<stop offset="1" stop-color="#FFD285"/>
</linearGradient>
<linearGradient id="paint9_linear_1483_12244" x1="16.692" y1="192.254" x2="36.077" y2="129.478" gradientUnits="userSpaceOnUse">
<stop stop-color="#F6ACD2"/>
<stop offset="1" stop-color="#F481B4"/>
</linearGradient>
<linearGradient id="paint10_linear_1483_12244" x1="22.2418" y1="183.059" x2="37.1348" y2="134.83" gradientUnits="userSpaceOnUse">
<stop stop-color="#FAFAE6"/>
<stop offset="1" stop-color="#FFD285"/>
</linearGradient>
<linearGradient id="paint11_linear_1483_12244" x1="22.2418" y1="183.059" x2="37.1348" y2="134.83" gradientUnits="userSpaceOnUse">
<stop stop-color="#FAFAE6"/>
<stop offset="1" stop-color="#FFD285"/>
</linearGradient>
<linearGradient id="paint12_linear_1483_12244" x1="22.2418" y1="183.059" x2="37.1348" y2="134.83" gradientUnits="userSpaceOnUse">
<stop stop-color="#FAFAE6"/>
<stop offset="1" stop-color="#FFD285"/>
</linearGradient>
<linearGradient id="paint13_linear_1483_12244" x1="22.2418" y1="183.059" x2="37.1348" y2="134.83" gradientUnits="userSpaceOnUse">
<stop stop-color="#FAFAE6"/>
<stop offset="1" stop-color="#FFD285"/>
</linearGradient>
<linearGradient id="paint14_linear_1483_12244" x1="22.2418" y1="183.059" x2="37.1348" y2="134.83" gradientUnits="userSpaceOnUse">
<stop stop-color="#FAFAE6"/>
<stop offset="1" stop-color="#FFD285"/>
</linearGradient>
<linearGradient id="paint15_linear_1483_12244" x1="22.2418" y1="183.059" x2="37.1348" y2="134.83" gradientUnits="userSpaceOnUse">
<stop stop-color="#FAFAE6"/>
<stop offset="1" stop-color="#FFD285"/>
</linearGradient>
<linearGradient id="paint16_linear_1483_12244" x1="22.2418" y1="183.059" x2="37.1348" y2="134.83" gradientUnits="userSpaceOnUse">
<stop stop-color="#FAFAE6"/>
<stop offset="1" stop-color="#FFD285"/>
</linearGradient>
<linearGradient id="paint17_linear_1483_12244" x1="208.387" y1="387" x2="208.387" y2="409" gradientUnits="userSpaceOnUse">
<stop stop-color="#FDEB79"/>
<stop offset="0.75" stop-color="#40C3A3"/>
<stop offset="1" stop-color="#209975"/>
</linearGradient>
<radialGradient id="paint18_radial_1483_12244" cx="0" cy="0" r="1" gradientTransform="matrix(7.9605 -2.91051 2.88795 8.02269 216.863 117.277)" gradientUnits="userSpaceOnUse">
<stop offset="0.03" stop-color="#F6ACD2"/>
<stop offset="0.41" stop-color="#F59DC7"/>
<stop offset="0.97" stop-color="#F481B4"/>
</radialGradient>
<radialGradient id="paint19_radial_1483_12244" cx="0" cy="0" r="1" gradientTransform="matrix(5.45754 1.44451 -1.4321 5.49984 223.767 319)" gradientUnits="userSpaceOnUse">
<stop offset="0.03" stop-color="#FFEC9F"/>
<stop offset="0.432692" stop-color="#FF9E88"/>
<stop offset="0.97" stop-color="#FF66AA"/>
</radialGradient>
<linearGradient id="paint20_linear_1483_12244" x1="54.5889" y1="408.699" x2="54.5889" y2="459.38" gradientUnits="userSpaceOnUse">
<stop stop-color="#FDEB79"/>
<stop offset="0.75" stop-color="#40C3A3"/>
<stop offset="1" stop-color="#209975"/>
</linearGradient>
<radialGradient id="paint21_radial_1483_12244" cx="0" cy="0" r="1" gradientTransform="matrix(-3.94968 -1.44408 -1.43289 3.98054 21.8307 428.707)" gradientUnits="userSpaceOnUse">
<stop offset="0.03" stop-color="#FCFF9C"/>
<stop offset="0.41" stop-color="#F5E69D"/>
<stop offset="0.97" stop-color="#F4C081"/>
</radialGradient>
<radialGradient id="paint22_radial_1483_12244" cx="0" cy="0" r="1" gradientTransform="matrix(-2.9943 -1.09477 -1.08629 3.01769 86.7569 446.023)" gradientUnits="userSpaceOnUse">
<stop offset="0.03" stop-color="#FCFF9C"/>
<stop offset="0.41" stop-color="#F5E69D"/>
<stop offset="0.97" stop-color="#F4C081"/>
</radialGradient>
<radialGradient id="paint23_radial_1483_12244" cx="0" cy="0" r="1" gradientTransform="matrix(-2.9943 -1.09477 -1.08629 3.01769 42.3937 430.838)" gradientUnits="userSpaceOnUse">
<stop offset="0.03" stop-color="#FCFF9C"/>
<stop offset="0.41" stop-color="#F5E69D"/>
<stop offset="0.97" stop-color="#F4C081"/>
</radialGradient>
<radialGradient id="paint24_radial_1483_12244" cx="0" cy="0" r="1" gradientTransform="matrix(-2.8782 -1.05233 -1.04417 2.90069 -0.428404 444.87)" gradientUnits="userSpaceOnUse">
<stop offset="0.03" stop-color="#FCFF9C"/>
<stop offset="0.41" stop-color="#F5E69D"/>
<stop offset="0.97" stop-color="#F4C081"/>
</radialGradient>
<radialGradient id="paint25_radial_1483_12244" cx="0" cy="0" r="1" gradientTransform="matrix(-3.24672 -1.18706 -1.17786 3.27208 112.174 452.463)" gradientUnits="userSpaceOnUse">
<stop offset="0.03" stop-color="#F6ACD2"/>
<stop offset="0.41" stop-color="#F59DC7"/>
<stop offset="0.97" stop-color="#F481B4"/>
</radialGradient>
<radialGradient id="paint26_radial_1483_12244" cx="0" cy="0" r="1" gradientTransform="matrix(-3.24672 -1.18706 -1.17786 3.27208 62.9878 442.88)" gradientUnits="userSpaceOnUse">
<stop offset="0.03" stop-color="#F6ACD2"/>
<stop offset="0.41" stop-color="#F59DC7"/>
<stop offset="0.97" stop-color="#F481B4"/>
</radialGradient>
<radialGradient id="paint27_radial_1483_12244" cx="0" cy="0" r="1" gradientTransform="matrix(-3.1644 -1.15696 -1.148 3.18912 39.1321 447.368)" gradientUnits="userSpaceOnUse">
<stop offset="0.03" stop-color="#F6ACD2"/>
<stop offset="0.41" stop-color="#F59DC7"/>
<stop offset="0.97" stop-color="#F481B4"/>
</radialGradient>
<linearGradient id="paint28_linear_1483_12244" x1="84.8523" y1="281" x2="84.8523" y2="314" gradientUnits="userSpaceOnUse">
<stop stop-color="#FAFAE6"/>
<stop offset="1" stop-color="#FFD285"/>
</linearGradient>
<linearGradient id="paint29_linear_1483_12244" x1="68.9766" y1="293" x2="68.9766" y2="317" gradientUnits="userSpaceOnUse">
<stop stop-color="#FDEB79"/>
<stop offset="0.75" stop-color="#40C3A3"/>
<stop offset="1" stop-color="#209975"/>
</linearGradient>
<clipPath id="clip0_1483_12244">
<rect x="2" y="2" width="256" height="456" rx="12" fill="white"/>
</clipPath>
</defs>
</svg>
